<svg width="343" height="230" viewBox="0 0 343 230" fill="none" xmlns="http://www.w3.org/2000/svg">
<g clip-path="url(#clip0_1300_9514)">
<rect width="343" height="230" rx="12" fill="#F3F5F6"/>
<rect width="343" height="230" rx="12" fill="#FDFCFF"/>
<rect width="343" height="230" rx="12" fill="url(#paint0_linear_1300_9514)" fill-opacity="0.6"/>
<rect width="343" height="230" rx="12" fill="white" fill-opacity="0.1"/>
<g clip-path="url(#clip1_1300_9514)">
<rect x="97.5" y="40" width="148" height="280" rx="20" fill="white"/>
<g clip-path="url(#clip2_1300_9514)">
<rect width="148" height="672.512" transform="translate(97.5 39.7437)" fill="white"/>
<rect width="148" height="23.68" transform="translate(97.5 24.5361)" fill="white"/>
<circle cx="112.498" cy="36.376" r="7.104" fill="#F1ECF7"/>
<rect width="148" height="9.472" transform="translate(97.5 48.2158)" fill="white"/>
<rect width="148" height="12.3147" transform="translate(97.5 57.688)" fill="white"/>
<path d="M103.907 65.8452L105.086 62.4967H105.826L107.01 65.8452H106.367L106.088 65.0173H104.827L104.55 65.8452H103.907ZM105.926 64.5317L105.47 63.1812H105.442L104.989 64.5317H105.926ZM108.009 65.8452H107.408V62.4967H108.009V65.8452ZM113.088 65.133H112.574V63.6021H111.834V63.1858H112.574V62.0805H113.088V65.133ZM113.194 66.1736H110.345V64.8647H110.858V65.7573H113.194V66.1736ZM111.122 62.913C111.122 63.0841 111.16 63.2514 111.235 63.4148C111.311 63.5767 111.423 63.7223 111.571 63.8518C111.719 63.9798 111.897 64.0785 112.107 64.1478L111.848 64.5595C111.62 64.4808 111.423 64.3668 111.256 64.2172C111.091 64.0661 110.962 63.8896 110.868 63.6877C110.774 63.9127 110.639 64.1085 110.465 64.275C110.291 64.44 110.083 64.5641 109.841 64.6473L109.577 64.2311C109.793 64.1602 109.977 64.0569 110.13 63.9212C110.284 63.784 110.4 63.6283 110.479 63.4541C110.559 63.2783 110.599 63.0964 110.599 62.9083V62.7973H109.73V62.3811H111.987V62.7973H111.122V62.913ZM116.986 63.801H117.574V64.2311H116.986V66.2568H116.468V62.0758H116.986V63.801ZM113.629 65.096C114.085 65.096 114.441 65.0929 114.697 65.0867V64.6959C114.546 64.6697 114.413 64.6219 114.299 64.5525C114.187 64.4832 114.1 64.396 114.038 64.2912C113.976 64.1848 113.946 64.0677 113.948 63.9397C113.946 63.784 113.988 63.6468 114.073 63.5281C114.157 63.4094 114.277 63.3177 114.431 63.2529C114.585 63.1866 114.762 63.1535 114.961 63.1535C115.156 63.1535 115.331 63.1866 115.483 63.2529C115.637 63.3177 115.758 63.4094 115.844 63.5281C115.932 63.6468 115.977 63.784 115.978 63.9397C115.977 64.0692 115.944 64.1864 115.881 64.2912C115.818 64.396 115.728 64.4839 115.613 64.5548C115.499 64.6242 115.366 64.6712 115.215 64.6959V65.0682C115.614 65.0466 115.958 65.0158 116.246 64.9757L116.279 65.3503C115.881 65.4213 115.474 65.4675 115.058 65.4891C114.642 65.5107 114.19 65.5215 113.703 65.5215L113.629 65.096ZM116.2 62.9638H113.707V62.5568H114.697V62.0943H115.215V62.5568H116.2V62.9638ZM114.961 63.5466C114.799 63.5497 114.67 63.5859 114.575 63.6553C114.48 63.7231 114.433 63.8179 114.433 63.9397C114.433 64.06 114.481 64.154 114.577 64.2218C114.672 64.2897 114.8 64.322 114.961 64.319C115.119 64.322 115.246 64.2897 115.34 64.2218C115.436 64.1525 115.483 64.0584 115.483 63.9397C115.483 63.8195 115.436 63.7247 115.34 63.6553C115.246 63.5859 115.119 63.5497 114.961 63.5466ZM122.495 66.2568H122.005V64.1247H121.533V66.0441H121.061V62.1545H121.533V63.7131H122.005V62.0758H122.495V66.2568ZM120.589 62.987H119.544V64.8462C119.788 64.8431 120.007 64.8339 120.203 64.8185C120.399 64.803 120.597 64.7768 120.797 64.7398L120.834 65.1607C120.603 65.207 120.375 65.2378 120.15 65.2532C119.925 65.2686 119.644 65.2779 119.308 65.281H119.026V62.5707H120.589V62.987ZM126.472 65.133H125.954V62.0805H126.472V65.133ZM126.588 66.1736H123.707V64.8416H124.225V65.7573H126.588V66.1736ZM124.548 62.7187C124.548 62.916 124.586 63.1041 124.662 63.283C124.739 63.4618 124.853 63.6206 125.004 63.7593C125.155 63.8965 125.338 64.0014 125.552 64.0738L125.288 64.4808C125.054 64.3991 124.852 64.2789 124.682 64.1201C124.513 63.9613 124.381 63.7732 124.287 63.5558C124.191 63.7902 124.057 63.9937 123.882 64.1663C123.71 64.339 123.503 64.4685 123.263 64.5548L122.994 64.1478C123.215 64.0708 123.401 63.959 123.554 63.8125C123.708 63.6645 123.824 63.4965 123.901 63.3084C123.978 63.1203 124.016 62.9238 124.016 62.7187V62.3117H124.548V62.7187ZM131.504 63.0471H132.087V63.4726H131.504V64.5132H130.991V62.0758H131.504V63.0471ZM128.859 62.8898H129.835V62.321H130.343V64.2912H128.35V62.321H128.859V62.8898ZM129.835 63.8842V63.2876H128.859V63.8842H129.835ZM131.532 65.1283H129.321V65.7897H131.611V66.1967H128.808V64.7167H131.532V65.1283ZM135.792 66.2568H135.274V62.0758H135.792V66.2568ZM134.543 62.5198C134.543 63.1843 134.393 63.7678 134.092 64.2704C133.791 64.7714 133.293 65.1869 132.596 65.5168L132.328 65.1052C132.866 64.8493 133.27 64.5433 133.542 64.1872C133.815 63.8295 133.974 63.4094 134.02 62.9268H132.54V62.5198H134.543ZM141.018 64.2172H140.505V63.1581H139.672V62.7465H140.505V62.0758H141.018V64.2172ZM141.018 65.4798H138.775V65.799H141.152V66.206H138.271V65.096H140.509V64.8H138.266V64.3976H141.018V65.4798ZM139.034 62.5476C139.034 62.7218 139.072 62.8883 139.147 63.0471C139.223 63.2059 139.334 63.3469 139.482 63.4703C139.63 63.5921 139.809 63.6853 140.019 63.7501L139.746 64.1478C139.523 64.0723 139.329 63.9644 139.166 63.8241C139.002 63.6823 138.874 63.515 138.782 63.3223C138.688 63.5397 138.554 63.7277 138.382 63.8865C138.211 64.0438 138.004 64.1617 137.762 64.2403L137.494 63.8287C137.713 63.7624 137.898 63.6653 138.051 63.5373C138.205 63.4078 138.321 63.2583 138.398 63.0887C138.477 62.9191 138.516 62.7388 138.516 62.5476V62.2146H139.034V62.5476ZM145.111 64.5595H144.598V63.5373H143.885V63.1165H144.598V62.0758H145.111V64.5595ZM143.696 64.6658C143.99 64.6658 144.245 64.6974 144.459 64.7607C144.675 64.8223 144.84 64.9133 144.954 65.0335C145.068 65.1522 145.125 65.2948 145.125 65.4613C145.125 65.6278 145.068 65.7704 144.954 65.8892C144.84 66.0094 144.675 66.1004 144.459 66.162C144.245 66.2252 143.99 66.2568 143.696 66.2568C143.403 66.2568 143.149 66.2252 142.935 66.162C142.721 66.1004 142.557 66.0094 142.442 65.8892C142.33 65.7704 142.274 65.6278 142.276 65.4613C142.274 65.2948 142.33 65.1522 142.442 65.0335C142.557 64.9133 142.721 64.8223 142.935 64.7607C143.149 64.6974 143.403 64.6658 143.696 64.6658ZM143.696 65.059C143.403 65.059 143.178 65.0937 143.021 65.163C142.863 65.2309 142.785 65.3303 142.785 65.4613C142.785 65.5908 142.863 65.6895 143.021 65.7573C143.178 65.8252 143.403 65.8591 143.696 65.8591C143.989 65.8591 144.215 65.8252 144.373 65.7573C144.532 65.6895 144.612 65.5908 144.612 65.4613C144.612 65.3303 144.532 65.2309 144.373 65.163C144.215 65.0937 143.989 65.059 143.696 65.059ZM143.145 62.7927C143.145 62.9654 143.183 63.1334 143.259 63.2968C143.334 63.4587 143.446 63.6044 143.594 63.7339C143.742 63.8619 143.921 63.9613 144.131 64.0322L143.872 64.4392C143.645 64.3621 143.448 64.2488 143.282 64.0993C143.117 63.9482 142.987 63.7724 142.893 63.572C142.799 63.7987 142.665 63.9968 142.491 64.1663C142.317 64.3344 142.108 64.4623 141.864 64.5502L141.596 64.1432C141.813 64.0692 141.999 63.9621 142.153 63.8218C142.308 63.6799 142.424 63.5204 142.503 63.3431C142.583 63.1658 142.623 62.9839 142.623 62.7973V62.765H141.753V62.3487H144.01V62.765H143.145V62.7927Z" fill="#66707A"/>
<rect width="148" height="23.68" transform="translate(97.5 70.0024)" fill="white"/>
<circle cx="112.498" cy="81.8423" r="7.104" fill="#F1ECF7"/>
<path fill-rule="evenodd" clip-rule="evenodd" d="M111.745 82.9746C111.983 82.6593 112.124 82.2669 112.124 81.8416C112.124 80.8013 111.28 79.958 110.24 79.958C109.2 79.958 108.356 80.8013 108.356 81.8416C108.356 82.8819 109.2 83.7253 110.24 83.7253C110.259 83.7253 110.277 83.725 110.295 83.7245H114.706C114.724 83.725 114.742 83.7253 114.761 83.7253C115.801 83.7253 116.644 82.8819 116.644 81.8416C116.644 80.8013 115.801 79.958 114.761 79.958C113.721 79.958 112.877 80.8013 112.877 81.8416C112.877 82.2669 113.018 82.6593 113.256 82.9746H111.745ZM110.283 82.9746C110.889 82.9521 111.374 82.4534 111.374 81.8416C111.374 81.2155 110.866 80.7079 110.24 80.7079C109.614 80.7079 109.106 81.2155 109.106 81.8416C109.106 82.4607 109.602 82.9638 110.219 82.9752C110.226 82.9748 110.233 82.9746 110.24 82.9746H110.283ZM114.782 82.9752C114.775 82.9748 114.768 82.9746 114.761 82.9746H114.718C114.112 82.9521 113.627 82.4534 113.627 81.8416C113.627 81.2155 114.135 80.7079 114.761 80.7079C115.387 80.7079 115.895 81.2155 115.895 81.8416C115.895 82.4607 115.398 82.9638 114.782 82.9752Z" fill="#6D35DD"/>
<path d="M128.025 82.7575H122.931V82.2148H125.133V81.8016H123.585V79.4645H127.415V79.9948H124.27V80.3771H127.279V80.8828H124.27V81.2775H127.458V81.8016H125.817V82.2148H128.025V82.7575ZM125.478 83.0658C125.885 83.0658 126.233 83.1018 126.52 83.1737C126.808 83.2436 127.027 83.3464 127.177 83.482C127.329 83.6156 127.406 83.7791 127.408 83.9723C127.406 84.2703 127.238 84.4965 126.903 84.6506C126.57 84.8068 126.095 84.885 125.478 84.885C124.851 84.885 124.37 84.8068 124.035 84.6506C123.702 84.4965 123.536 84.2703 123.536 83.9723C123.536 83.7791 123.611 83.6156 123.761 83.482C123.913 83.3464 124.134 83.2436 124.424 83.1737C124.714 83.1018 125.065 83.0658 125.478 83.0658ZM125.478 83.5776C124.64 83.5776 124.22 83.7092 124.22 83.9723C124.22 84.108 124.324 84.2087 124.532 84.2745C124.741 84.3402 125.057 84.3731 125.478 84.3731C125.894 84.3731 126.204 84.3402 126.409 84.2745C126.617 84.2087 126.722 84.108 126.724 83.9723C126.718 83.7092 126.303 83.5776 125.478 83.5776ZM132.81 81.6166H133.594V82.1901H132.81V84.8911H132.12V79.3165H132.81V81.6166ZM128.333 83.3433C128.942 83.3433 129.417 83.3392 129.758 83.331V82.8099C129.557 82.7749 129.38 82.7112 129.228 82.6187C129.078 82.5262 128.961 82.4101 128.879 82.2703C128.797 82.1285 128.757 81.9722 128.759 81.8016C128.757 81.594 128.812 81.4111 128.925 81.2528C129.039 81.0945 129.198 80.9722 129.403 80.8859C129.609 80.7975 129.844 80.7533 130.109 80.7533C130.371 80.7533 130.603 80.7975 130.806 80.8859C131.012 80.9722 131.172 81.0945 131.287 81.2528C131.404 81.4111 131.464 81.594 131.466 81.8016C131.464 81.9743 131.421 82.1305 131.337 82.2703C131.252 82.4101 131.133 82.5272 130.979 82.6218C130.827 82.7143 130.65 82.777 130.449 82.8099V83.3063C130.981 83.2775 131.439 83.2364 131.824 83.183L131.867 83.6825C131.337 83.777 130.794 83.8387 130.239 83.8675C129.684 83.8962 129.082 83.9106 128.432 83.9106L128.333 83.3433ZM131.762 80.5005H128.438V79.9578H129.758V79.3411H130.449V79.9578H131.762V80.5005ZM130.109 81.2775C129.894 81.2816 129.722 81.3299 129.595 81.4224C129.469 81.5128 129.406 81.6392 129.406 81.8016C129.406 81.962 129.47 82.0873 129.598 82.1778C129.725 82.2682 129.896 82.3114 130.109 82.3073C130.321 82.3114 130.49 82.2682 130.615 82.1778C130.743 82.0853 130.806 81.9599 130.806 81.8016C130.806 81.6413 130.743 81.5149 130.615 81.4224C130.49 81.3299 130.321 81.2816 130.109 81.2775ZM139.982 80.075H138.37C138.398 80.2353 138.491 80.3864 138.647 80.5282C138.805 80.67 139.017 80.7913 139.282 80.892C139.55 80.9907 139.855 81.0575 140.198 81.0925L139.945 81.629C139.448 81.5755 139.019 81.4542 138.66 81.2651C138.3 81.074 138.044 80.8355 137.892 80.5498C137.74 80.8355 137.485 81.074 137.127 81.2651C136.772 81.4542 136.344 81.5755 135.844 81.629L135.604 81.0925C135.943 81.0575 136.244 80.9897 136.507 80.889C136.77 80.7882 136.98 80.667 137.136 80.5251C137.293 80.3833 137.386 80.2332 137.417 80.075H135.82V79.5323H139.982V80.075ZM140.439 82.6095H135.357V82.0606H137.553V81.2898H138.231V82.0606H140.439V82.6095ZM139.816 84.8911H139.131V83.6085H135.918V83.0596H139.816V84.8911ZM143.349 79.4275C143.758 79.4275 144.113 79.4706 144.413 79.557C144.715 79.6433 144.947 79.7687 145.11 79.9331C145.274 80.0955 145.358 80.2887 145.36 80.5128C145.358 80.7327 145.274 80.9229 145.11 81.0832C144.947 81.2435 144.715 81.3658 144.413 81.4501C144.113 81.5344 143.758 81.5755 143.349 81.5735C142.944 81.5755 142.59 81.5344 142.286 81.4501C141.983 81.3658 141.75 81.2435 141.586 81.0832C141.421 80.9229 141.339 80.7327 141.339 80.5128C141.339 80.2887 141.421 80.0955 141.586 79.9331C141.75 79.7687 141.983 79.6433 142.286 79.557C142.59 79.4706 142.944 79.4275 143.349 79.4275ZM143.349 79.964C142.938 79.964 142.619 80.0112 142.39 80.1058C142.164 80.2003 142.052 80.336 142.054 80.5128C142.052 80.6813 142.164 80.8108 142.39 80.9013C142.619 80.9917 142.938 81.039 143.349 81.0431C143.76 81.039 144.08 80.9917 144.308 80.9013C144.536 80.8108 144.65 80.6813 144.65 80.5128C144.65 80.336 144.536 80.2003 144.308 80.1058C144.08 80.0112 143.76 79.964 143.349 79.964ZM145.279 84.8233H141.413V82.9486H145.279V84.8233ZM142.091 84.2683H144.613V83.4913H142.091V84.2683ZM145.896 82.5046H140.815V81.9496H145.896V82.5046Z" fill="#3B4044"/>
<path d="M233.435 81.889C233.435 82.3027 233.356 82.6615 233.198 82.9655C233.04 83.2676 232.822 83.4988 232.545 83.6588C232.27 83.8171 231.959 83.8962 231.612 83.8962C231.263 83.8962 230.95 83.8162 230.673 83.6561C230.396 83.4961 230.178 83.2649 230.02 82.9628C229.862 82.6588 229.782 82.3009 229.782 81.889C229.782 81.4753 229.862 81.1174 230.02 80.8152C230.178 80.5113 230.396 80.2801 230.673 80.1219C230.95 79.9618 231.263 79.8817 231.612 79.8817C231.959 79.8817 232.27 79.9618 232.545 80.1219C232.822 80.2801 233.04 80.5113 233.198 80.8152C233.356 81.1174 233.435 81.4753 233.435 81.889ZM232.61 81.889C232.61 81.6138 232.569 81.38 232.486 81.1875C232.405 80.9951 232.29 80.8494 232.14 80.7505C231.991 80.6498 231.815 80.5994 231.612 80.5994C231.408 80.5994 231.231 80.6498 231.08 80.7505C230.931 80.8494 230.815 80.996 230.732 81.1902C230.649 81.3827 230.608 81.6156 230.608 81.889C230.608 82.1624 230.649 82.3962 230.732 82.5905C230.815 82.7829 230.931 82.9295 231.08 83.0302C231.231 83.1291 231.408 83.1786 231.612 83.1786C231.815 83.1786 231.991 83.1291 232.14 83.0302C232.29 82.9295 232.405 82.7829 232.486 82.5905C232.569 82.398 232.61 82.1642 232.61 81.889ZM237.277 83.8423H236.576L234.86 81.3602H234.828V83.8423H234.018V79.9357H234.73L236.436 82.4178H236.473V79.9357H237.277V83.8423Z" fill="#6D35DD"/>
<rect width="148" height="23.68" transform="translate(97.5 93.6826)" fill="white"/>
<circle cx="112.498" cy="105.522" r="7.104" fill="#F1ECF7"/>
<g clip-path="url(#clip3_1300_9514)">
<path d="M112.501 101.181C110.694 101.181 109.224 102.651 109.224 104.458C109.224 105.394 109.615 106.272 110.305 106.891C110.124 106.461 110.029 105.991 110.029 105.522C110.029 103.573 111.615 101.987 113.565 101.987C114.033 101.987 114.503 102.082 114.934 102.262C114.315 101.573 113.437 101.181 112.501 101.181Z" fill="#FF19F5"/>
<path d="M116.842 105.523C116.842 103.716 115.372 102.246 113.565 102.246C112.629 102.246 111.751 102.637 111.132 103.327C111.563 103.146 112.033 103.051 112.501 103.051C114.45 103.051 116.036 104.637 116.036 106.587C116.036 107.055 115.942 107.525 115.761 107.956C116.45 107.337 116.842 106.459 116.842 105.523Z" fill="#9E4EFF"/>
<path d="M112.501 109.864C114.308 109.864 115.778 108.394 115.778 106.587C115.778 105.651 115.386 104.773 114.697 104.154C114.877 104.585 114.972 105.055 114.972 105.523C114.972 107.472 113.386 109.058 111.436 109.058C110.969 109.058 110.498 108.964 110.067 108.783C110.687 109.472 111.565 109.864 112.501 109.864Z" fill="#FF19F5"/>
<path d="M108.159 105.523C108.159 107.33 109.629 108.8 111.436 108.8C112.372 108.8 113.25 108.408 113.869 107.719C113.439 107.899 112.969 107.994 112.501 107.994C110.551 107.994 108.965 106.408 108.965 104.458C108.965 103.991 109.06 103.52 109.24 103.089C108.551 103.709 108.159 104.587 108.159 105.523Z" fill="#9E4EFF"/>
</g>
<path d="M122.882 108.022L124.455 103.558H125.441L127.02 108.022H126.163L125.79 106.919H124.109L123.739 108.022H122.882ZM125.574 106.271L124.966 104.47H124.929L124.325 106.271H125.574ZM128.352 108.022H127.55V103.558H128.352V108.022ZM135.123 107.073H134.438V105.032H133.452V104.477H134.438V103.003H135.123V107.073ZM135.265 108.46H131.466V106.715H132.151V107.905H135.265V108.46ZM132.502 104.113C132.502 104.341 132.552 104.564 132.653 104.782C132.754 104.998 132.903 105.192 133.1 105.365C133.298 105.535 133.536 105.667 133.816 105.759L133.47 106.308C133.166 106.203 132.903 106.051 132.681 105.852C132.461 105.65 132.288 105.415 132.163 105.146C132.038 105.446 131.859 105.707 131.626 105.929C131.394 106.149 131.117 106.314 130.794 106.425L130.442 105.87C130.73 105.776 130.976 105.638 131.179 105.457C131.385 105.274 131.54 105.067 131.645 104.834C131.752 104.6 131.805 104.357 131.805 104.107V103.959H130.646V103.404H133.655V103.959H132.502V104.113ZM140.321 105.297H141.105V105.87H140.321V108.571H139.631V102.997H140.321V105.297ZM135.844 107.023C136.453 107.023 136.928 107.019 137.269 107.011V106.49C137.068 106.455 136.891 106.391 136.739 106.299C136.589 106.206 136.472 106.09 136.39 105.95C136.308 105.809 136.268 105.652 136.27 105.482C136.268 105.274 136.323 105.091 136.436 104.933C136.55 104.775 136.709 104.652 136.914 104.566C137.12 104.478 137.355 104.433 137.62 104.433C137.882 104.433 138.114 104.478 138.317 104.566C138.523 104.652 138.683 104.775 138.798 104.933C138.915 105.091 138.975 105.274 138.977 105.482C138.975 105.654 138.932 105.811 138.848 105.95C138.763 106.09 138.644 106.207 138.49 106.302C138.338 106.394 138.161 106.457 137.96 106.49V106.986C138.492 106.958 138.95 106.917 139.335 106.863L139.378 107.363C138.848 107.457 138.305 107.519 137.75 107.548C137.195 107.576 136.593 107.591 135.943 107.591L135.844 107.023ZM139.273 104.181H135.949V103.638H137.269V103.021H137.96V103.638H139.273V104.181ZM137.62 104.958C137.405 104.962 137.233 105.01 137.106 105.103C136.98 105.193 136.917 105.319 136.917 105.482C136.917 105.642 136.981 105.768 137.109 105.858C137.236 105.948 137.407 105.992 137.62 105.987C137.832 105.992 138.001 105.948 138.126 105.858C138.254 105.765 138.317 105.64 138.317 105.482C138.317 105.321 138.254 105.195 138.126 105.103C138.001 105.01 137.832 104.962 137.62 104.958ZM147.666 108.571H147.012V105.728H146.383V108.288H145.754V103.101H146.383V105.18H147.012V102.997H147.666V108.571ZM145.125 104.211H143.732V106.69C144.056 106.686 144.349 106.674 144.61 106.653C144.871 106.633 145.136 106.598 145.403 106.549L145.452 107.11C145.144 107.171 144.84 107.213 144.539 107.233C144.239 107.254 143.865 107.266 143.417 107.27H143.041V103.656H145.125V104.211ZM152.969 107.073H152.279V103.003H152.969V107.073ZM153.123 108.46H149.282V106.684H149.972V107.905H153.123V108.46ZM150.404 103.854C150.404 104.117 150.454 104.368 150.555 104.606C150.658 104.845 150.81 105.056 151.011 105.241C151.213 105.424 151.456 105.564 151.742 105.661L151.391 106.203C151.078 106.094 150.809 105.934 150.583 105.722C150.357 105.511 150.181 105.26 150.056 104.97C149.928 105.282 149.748 105.554 149.516 105.784C149.286 106.014 149.01 106.187 148.69 106.302L148.332 105.759C148.626 105.657 148.875 105.507 149.078 105.312C149.284 105.115 149.438 104.891 149.541 104.64C149.643 104.389 149.695 104.127 149.695 103.854V103.311H150.404V103.854ZM159.679 104.292H160.456V104.859H159.679V106.246H158.994V102.997H159.679V104.292ZM156.151 104.082H157.452V103.323H158.131V105.95H155.473V103.323H156.151V104.082ZM157.452 105.408V104.612H156.151V105.408H157.452ZM159.716 107.067H156.768V107.948H159.82V108.491H156.083V106.518H159.716V107.067ZM165.395 108.571H164.704V102.997H165.395V108.571ZM163.73 103.589C163.73 104.475 163.53 105.253 163.129 105.923C162.728 106.591 162.063 107.145 161.134 107.585L160.776 107.036C161.494 106.695 162.033 106.287 162.395 105.812C162.759 105.335 162.972 104.775 163.033 104.131H161.06V103.589H163.73Z" fill="#3B4044"/>
<rect width="148" height="9.472" transform="translate(97.5 117.362)" fill="white"/>
<rect width="148" height="12.3147" transform="translate(97.5 126.834)" fill="white"/>
<path d="M107.251 132.448H107.834V132.873H107.251V134.279H106.737V131.222H107.251V132.448ZM107.417 135.32H104.573V133.96H105.086V134.904H107.417V135.32ZM105.128 131.5C105.338 131.5 105.528 131.545 105.699 131.636C105.87 131.726 106.005 131.851 106.104 132.011C106.204 132.171 106.255 132.352 106.256 132.554C106.255 132.753 106.204 132.933 106.104 133.093C106.005 133.252 105.869 133.377 105.697 133.468C105.526 133.559 105.336 133.604 105.128 133.604C104.918 133.604 104.727 133.559 104.554 133.468C104.382 133.377 104.245 133.252 104.145 133.093C104.046 132.933 103.998 132.753 103.999 132.554C103.998 132.354 104.046 132.174 104.145 132.013C104.245 131.851 104.382 131.726 104.554 131.636C104.727 131.545 104.918 131.5 105.128 131.5ZM105.128 131.948C105.011 131.948 104.904 131.974 104.809 132.025C104.713 132.074 104.638 132.145 104.582 132.238C104.528 132.328 104.502 132.434 104.504 132.554C104.502 132.671 104.528 132.776 104.582 132.867C104.638 132.957 104.713 133.028 104.809 133.077C104.904 133.126 105.011 133.151 105.128 133.151C105.245 133.151 105.351 133.126 105.445 133.077C105.54 133.028 105.615 132.957 105.669 132.867C105.725 132.776 105.752 132.671 105.752 132.554C105.752 132.434 105.725 132.328 105.669 132.238C105.615 132.145 105.54 132.074 105.445 132.025C105.351 131.974 105.245 131.948 105.128 131.948ZM111.529 133.59H111.011V131.227H111.529V133.59ZM111.529 135.352H108.754V133.798H111.529V135.352ZM109.263 134.936H111.025V134.205H109.263V134.936ZM109.605 131.791C109.605 131.97 109.644 132.141 109.723 132.305C109.802 132.468 109.916 132.613 110.067 132.739C110.219 132.866 110.4 132.963 110.613 133.031L110.363 133.424C110.126 133.35 109.921 133.24 109.748 133.093C109.576 132.945 109.441 132.769 109.344 132.566C109.247 132.786 109.109 132.978 108.932 133.142C108.756 133.304 108.546 133.425 108.301 133.507L108.046 133.1C108.267 133.029 108.454 132.927 108.608 132.793C108.762 132.658 108.878 132.505 108.955 132.332C109.034 132.158 109.073 131.978 109.073 131.791V131.384H109.605V131.791ZM115.95 133.803H112.13V133.396H113.781V133.086H112.62V131.333H115.493V131.731H113.134V132.018H115.391V132.397H113.134V132.693H115.525V133.086H114.295V133.396H115.95V133.803ZM114.04 134.034C114.346 134.034 114.606 134.061 114.822 134.115C115.038 134.168 115.202 134.245 115.315 134.347C115.429 134.447 115.486 134.569 115.488 134.714C115.486 134.938 115.36 135.107 115.109 135.223C114.859 135.34 114.503 135.399 114.04 135.399C113.57 135.399 113.209 135.34 112.958 135.223C112.708 135.107 112.583 134.938 112.583 134.714C112.583 134.569 112.64 134.447 112.752 134.347C112.866 134.245 113.032 134.168 113.249 134.115C113.467 134.061 113.73 134.034 114.04 134.034ZM114.04 134.418C113.411 134.418 113.097 134.517 113.097 134.714C113.097 134.816 113.175 134.891 113.33 134.941C113.488 134.99 113.724 135.015 114.04 135.015C114.352 135.015 114.585 134.99 114.739 134.941C114.894 134.891 114.973 134.816 114.975 134.714C114.97 134.517 114.659 134.418 114.04 134.418ZM119.539 132.947H120.127V133.378H119.539V135.403H119.021V131.222H119.539V132.947ZM116.182 134.242C116.638 134.242 116.994 134.239 117.25 134.233V133.842C117.099 133.816 116.966 133.768 116.852 133.699C116.74 133.63 116.653 133.543 116.591 133.438C116.529 133.331 116.499 133.214 116.501 133.086C116.499 132.93 116.541 132.793 116.626 132.675C116.71 132.556 116.83 132.464 116.984 132.399C117.138 132.333 117.315 132.3 117.514 132.3C117.709 132.3 117.884 132.333 118.036 132.399C118.19 132.464 118.311 132.556 118.397 132.675C118.485 132.793 118.53 132.93 118.531 133.086C118.53 133.216 118.497 133.333 118.434 133.438C118.371 133.543 118.281 133.63 118.166 133.701C118.052 133.771 117.919 133.818 117.768 133.842V134.215C118.167 134.193 118.511 134.162 118.799 134.122L118.832 134.497C118.434 134.568 118.027 134.614 117.611 134.636C117.195 134.657 116.743 134.668 116.256 134.668L116.182 134.242ZM118.753 132.11H116.26V131.703H117.25V131.241H117.768V131.703H118.753V132.11ZM117.514 132.693C117.352 132.696 117.223 132.732 117.128 132.802C117.033 132.87 116.986 132.964 116.986 133.086C116.986 133.206 117.034 133.3 117.13 133.368C117.225 133.436 117.353 133.469 117.514 133.465C117.672 133.469 117.799 133.436 117.893 133.368C117.989 133.299 118.036 133.205 118.036 133.086C118.036 132.966 117.989 132.871 117.893 132.802C117.799 132.732 117.672 132.696 117.514 132.693ZM124.951 133.364H124.437V132.305H123.605V131.893H124.437V131.222H124.951V133.364ZM124.951 134.626H122.708V134.945H125.085V135.352H122.203V134.242H124.442V133.946H122.199V133.544H124.951V134.626ZM122.967 131.694C122.967 131.868 123.004 132.035 123.08 132.194C123.155 132.352 123.267 132.493 123.415 132.617C123.563 132.739 123.742 132.832 123.952 132.897L123.679 133.294C123.455 133.219 123.262 133.111 123.098 132.971C122.935 132.829 122.807 132.661 122.715 132.469C122.62 132.686 122.487 132.874 122.314 133.033C122.143 133.19 121.937 133.308 121.695 133.387L121.426 132.975C121.645 132.909 121.831 132.812 121.984 132.684C122.138 132.554 122.254 132.405 122.331 132.235C122.409 132.066 122.449 131.885 122.449 131.694V131.361H122.967V131.694ZM129.044 133.706H128.53V132.684H127.818V132.263H128.53V131.222H129.044V133.706ZM127.629 133.812C127.923 133.812 128.177 133.844 128.392 133.907C128.608 133.969 128.772 134.06 128.887 134.18C129.001 134.299 129.058 134.441 129.058 134.608C129.058 134.774 129.001 134.917 128.887 135.036C128.772 135.156 128.608 135.247 128.392 135.309C128.177 135.372 127.923 135.403 127.629 135.403C127.336 135.403 127.082 135.372 126.868 135.309C126.653 135.247 126.489 135.156 126.375 135.036C126.263 134.917 126.207 134.774 126.209 134.608C126.207 134.441 126.263 134.299 126.375 134.18C126.489 134.06 126.653 133.969 126.868 133.907C127.082 133.844 127.336 133.812 127.629 133.812ZM127.629 134.205C127.336 134.205 127.111 134.24 126.953 134.31C126.796 134.377 126.717 134.477 126.717 134.608C126.717 134.737 126.796 134.836 126.953 134.904C127.111 134.972 127.336 135.006 127.629 135.006C127.921 135.006 128.147 134.972 128.306 134.904C128.465 134.836 128.544 134.737 128.544 134.608C128.544 134.477 128.465 134.377 128.306 134.31C128.147 134.24 127.921 134.205 127.629 134.205ZM127.078 131.939C127.078 132.112 127.116 132.28 127.192 132.443C127.267 132.605 127.379 132.751 127.527 132.88C127.675 133.008 127.854 133.108 128.063 133.179L127.804 133.586C127.578 133.509 127.381 133.395 127.215 133.246C127.05 133.095 126.92 132.919 126.826 132.719C126.732 132.945 126.598 133.143 126.424 133.313C126.25 133.481 126.041 133.609 125.797 133.697L125.529 133.29C125.746 133.216 125.932 133.109 126.086 132.968C126.24 132.826 126.357 132.667 126.435 132.49C126.515 132.312 126.556 132.13 126.556 131.944V131.911H125.686V131.495H127.943V131.911H127.078V131.939Z" fill="#66707A"/>
<rect width="148" height="23.68" transform="translate(97.5 139.149)" fill="white"/>
<circle cx="112.498" cy="150.989" r="7.104" fill="#F1ECF7"/>
<path fill-rule="evenodd" clip-rule="evenodd" d="M112.502 148.791C111.308 148.791 110.34 149.759 110.34 150.953V153.458H112.193V151.766C112.193 151.595 112.331 151.457 112.502 151.457C112.673 151.457 112.811 151.595 112.811 151.766V153.458H114.665V150.953C114.665 149.759 113.696 148.791 112.502 148.791Z" fill="#6D35DD"/>
<rect x="109.454" y="153.263" width="6.09843" height="0.619569" rx="0.309784" fill="#6D35DD"/>
<path fill-rule="evenodd" clip-rule="evenodd" d="M112.181 147.483C112.181 147.307 112.324 147.164 112.5 147.164C112.676 147.164 112.819 147.307 112.819 147.483V148.074C112.819 148.25 112.676 148.393 112.5 148.393C112.324 148.393 112.181 148.25 112.181 148.074V147.483ZM114.932 147.98C115.022 147.83 115.218 147.778 115.371 147.863C115.523 147.948 115.574 148.138 115.484 148.287L115.171 148.81C115.082 148.959 114.885 149.012 114.733 148.927C114.58 148.842 114.529 148.652 114.619 148.502L114.932 147.98ZM109.63 147.863C109.782 147.778 109.979 147.83 110.068 147.98L110.381 148.502C110.471 148.652 110.42 148.842 110.268 148.927C110.115 149.012 109.919 148.959 109.829 148.81L109.516 148.287C109.426 148.138 109.477 147.948 109.63 147.863Z" fill="#6D35DD"/>
<path d="M127.575 151.306H126.897V148.463H127.575V151.306ZM127.587 153.014H124.572V153.446H127.754V153.988H123.9V152.502H126.903V152.095H123.887V151.565H127.587V153.014ZM125.022 149.03C125.022 149.269 125.073 149.497 125.176 149.715C125.281 149.933 125.435 150.125 125.639 150.291C125.842 150.458 126.087 150.584 126.372 150.671L126.039 151.201C125.723 151.104 125.448 150.957 125.216 150.76C124.986 150.563 124.806 150.328 124.677 150.057C124.547 150.351 124.364 150.606 124.128 150.822C123.891 151.035 123.61 151.195 123.283 151.3L122.938 150.763C123.23 150.669 123.478 150.533 123.684 150.356C123.891 150.177 124.048 149.974 124.152 149.746C124.259 149.515 124.313 149.277 124.313 149.03V148.599H125.022V149.03ZM130.51 149.801C130.508 150.144 130.565 150.478 130.68 150.803C130.795 151.128 130.961 151.417 131.179 151.67C131.397 151.922 131.653 152.112 131.947 152.237L131.54 152.786C131.226 152.64 130.951 152.427 130.717 152.148C130.485 151.868 130.303 151.542 130.171 151.17C130.04 151.573 129.854 151.927 129.613 152.231C129.375 152.533 129.09 152.761 128.759 152.915L128.34 152.342C128.642 152.212 128.904 152.017 129.126 151.756C129.35 151.493 129.521 151.192 129.638 150.853C129.755 150.511 129.813 150.161 129.813 149.801V148.913H130.51V149.801ZM133.039 154.044H132.348V148.463H133.039V154.044ZM138.256 150.066H139.033V150.64H138.256V152.484H137.559V148.463H138.256V150.066ZM136.739 148.888C136.739 149.378 136.636 149.821 136.43 150.217C136.225 150.612 135.927 150.952 135.536 151.238C135.148 151.522 134.677 151.744 134.124 151.904L133.84 151.361C134.262 151.24 134.626 151.085 134.932 150.896C135.24 150.705 135.484 150.487 135.663 150.242C135.841 149.997 135.95 149.733 135.989 149.45H134.075V148.888H136.739ZM138.465 153.927H134.673V152.07H135.37V153.372H138.465V153.927ZM145.908 153.365H140.815V152.804H143.01V151.719H141.376V148.833H142.06V149.746H144.644V148.833H145.329V151.719H143.688V152.804H145.908V153.365ZM144.644 151.164V150.294H142.06V151.164H144.644ZM150.91 154.044H150.219V148.463H150.91V154.044ZM147.906 148.87C148.186 148.87 148.435 148.951 148.653 149.114C148.873 149.274 149.045 149.503 149.171 149.801C149.296 150.097 149.36 150.442 149.362 150.837C149.36 151.234 149.296 151.581 149.171 151.879C149.047 152.177 148.876 152.408 148.656 152.57C148.436 152.73 148.186 152.81 147.906 152.81C147.625 152.81 147.374 152.73 147.154 152.57C146.934 152.408 146.762 152.177 146.636 151.879C146.513 151.581 146.451 151.234 146.451 150.837C146.451 150.442 146.513 150.097 146.636 149.801C146.762 149.503 146.934 149.274 147.154 149.114C147.374 148.951 147.625 148.87 147.906 148.87ZM147.906 149.487C147.748 149.487 147.608 149.54 147.487 149.647C147.368 149.754 147.275 149.909 147.21 150.113C147.144 150.316 147.111 150.558 147.111 150.837C147.111 151.119 147.144 151.361 147.21 151.565C147.275 151.768 147.368 151.924 147.487 152.033C147.608 152.14 147.748 152.194 147.906 152.194C148.063 152.194 148.2 152.14 148.32 152.033C148.439 151.924 148.531 151.768 148.597 151.565C148.663 151.361 148.696 151.119 148.696 150.837C148.696 150.558 148.663 150.317 148.597 150.116C148.531 149.912 148.439 149.757 148.32 149.65C148.2 149.541 148.063 149.487 147.906 149.487ZM154.61 149.228C154.61 149.513 154.696 149.792 154.869 150.063C155.043 150.335 155.284 150.569 155.59 150.766C155.896 150.961 156.24 151.092 156.62 151.158L156.312 151.731C155.845 151.633 155.43 151.451 155.066 151.186C154.704 150.918 154.433 150.597 154.252 150.22C154.067 150.595 153.793 150.915 153.429 151.182C153.065 151.448 152.651 151.631 152.186 151.731L151.884 151.158C152.26 151.09 152.599 150.958 152.901 150.763C153.206 150.566 153.444 150.331 153.617 150.06C153.792 149.789 153.88 149.511 153.882 149.228V148.814H154.61V149.228ZM156.823 153.328H151.73V152.761H156.823V153.328ZM161.843 154.038H161.152V148.463H161.843V154.038ZM160.486 149.567H159.95V152.067C160.246 152.043 160.507 152.017 160.733 151.99L160.77 152.502C160.234 152.588 159.673 152.646 159.09 152.675C158.506 152.704 157.89 152.718 157.243 152.718L157.175 152.157C157.311 152.157 157.541 152.155 157.866 152.151V149.567H157.323V149.006H160.486V149.567ZM158.525 152.135C158.776 152.129 159.027 152.12 159.278 152.107V149.567H158.525V152.135ZM167.288 151.774H166.598V148.469H167.288V151.774ZM165.414 151.879C165.8 151.879 166.136 151.921 166.422 152.006C166.708 152.09 166.928 152.212 167.082 152.373C167.236 152.533 167.313 152.724 167.313 152.946C167.313 153.17 167.236 153.362 167.082 153.523C166.928 153.683 166.708 153.805 166.422 153.89C166.136 153.974 165.8 154.015 165.414 154.013C165.023 154.015 164.684 153.974 164.396 153.89C164.11 153.805 163.89 153.683 163.736 153.523C163.584 153.362 163.508 153.17 163.508 152.946C163.508 152.724 163.584 152.533 163.736 152.373C163.89 152.212 164.11 152.09 164.396 152.006C164.684 151.921 165.023 151.879 165.414 151.879ZM165.414 152.41C165.021 152.414 164.719 152.461 164.507 152.551C164.297 152.64 164.193 152.771 164.193 152.946C164.193 153.121 164.298 153.254 164.51 153.347C164.722 153.437 165.023 153.483 165.414 153.483C165.806 153.483 166.108 153.437 166.32 153.347C166.534 153.254 166.641 153.121 166.641 152.946C166.641 152.773 166.535 152.642 166.323 152.551C166.111 152.461 165.808 152.414 165.414 152.41ZM164.723 149.246C164.723 149.493 164.774 149.728 164.877 149.952C164.98 150.174 165.133 150.372 165.337 150.544C165.54 150.715 165.786 150.845 166.073 150.936L165.734 151.478C165.418 151.374 165.144 151.221 164.914 151.022C164.686 150.821 164.507 150.583 164.378 150.31C164.25 150.618 164.069 150.886 163.835 151.115C163.601 151.341 163.321 151.511 162.996 151.626L162.651 151.071C162.943 150.973 163.191 150.83 163.394 150.643C163.6 150.454 163.754 150.239 163.857 149.998C163.961 149.756 164.014 149.505 164.014 149.246V148.71H164.723V149.246ZM172.437 149.351H170.513V149.869H172.326V150.418H170.513V150.967C171.034 150.965 171.457 150.953 171.784 150.933C172.113 150.912 172.437 150.872 172.758 150.812L172.832 151.355C172.497 151.413 172.161 151.452 171.824 151.472C171.487 151.493 171.068 151.503 170.569 151.503H170.273H169.829V148.79H172.437V149.351ZM173.998 153.97H170.396V151.99H173.998V153.97ZM171.075 153.415H173.319V152.527H171.075V153.415ZM173.998 149.795H174.775V150.362H173.998V151.731H173.313V148.463H173.998V149.795ZM177.161 150.048C177.161 150.354 177.219 150.657 177.334 150.957C177.451 151.255 177.617 151.524 177.833 151.762C178.051 151.998 178.306 152.177 178.598 152.299L178.222 152.841C177.899 152.704 177.618 152.497 177.38 152.222C177.142 151.946 176.957 151.626 176.825 151.263C176.693 151.653 176.507 152 176.267 152.302C176.029 152.602 175.749 152.827 175.428 152.977L175.034 152.44C175.319 152.309 175.57 152.116 175.786 151.861C176.004 151.606 176.171 151.32 176.289 151.004C176.406 150.685 176.464 150.366 176.464 150.048V149.579H175.237V149.012H178.382V149.579H177.161V150.048ZM179.696 154.038H179.005V148.463H179.696V154.038Z" fill="#3B4044"/>
<path d="M233.387 151.035C233.387 151.442 233.311 151.797 233.16 152.101C233.009 152.403 232.8 152.636 232.532 152.8C232.265 152.962 231.964 153.043 231.628 153.043C231.288 153.043 230.984 152.962 230.716 152.8C230.45 152.636 230.241 152.403 230.09 152.101C229.939 151.797 229.863 151.442 229.863 151.035C229.863 150.627 229.939 150.272 230.09 149.97C230.241 149.666 230.45 149.433 230.716 149.271C230.984 149.109 231.288 149.028 231.628 149.028C231.964 149.028 232.265 149.109 232.532 149.271C232.8 149.433 233.009 149.666 233.16 149.97C233.311 150.272 233.387 150.627 233.387 151.035ZM232.799 151.035C232.799 150.726 232.748 150.462 232.648 150.242C232.547 150.023 232.408 149.856 232.229 149.743C232.053 149.63 231.853 149.573 231.628 149.573C231.401 149.573 231.199 149.63 231.021 149.743C230.843 149.856 230.703 150.023 230.603 150.242C230.502 150.462 230.452 150.726 230.452 151.035C230.452 151.345 230.502 151.609 230.603 151.829C230.703 152.048 230.843 152.214 231.021 152.328C231.199 152.441 231.401 152.498 231.628 152.498C231.853 152.498 232.053 152.441 232.229 152.328C232.408 152.214 232.547 152.048 232.648 151.829C232.748 151.607 232.799 151.343 232.799 151.035ZM237.207 152.989H236.662L234.682 150.134H234.65V152.989H234.056V149.082H234.606L236.587 151.942H236.624V149.082H237.207V152.989Z" fill="#6D35DD"/>
<rect width="148" height="23.68" transform="translate(97.5 162.829)" fill="white"/>
<circle cx="112.498" cy="174.669" r="7.104" fill="#F1ECF7"/>
<circle cx="112.501" cy="174.669" r="2.80213" stroke="#6D35DD" stroke-width="0.7104"/>
<path d="M114.412 172.76L110.617 176.555" stroke="#6D35DD" stroke-width="0.7104" stroke-linecap="round"/>
<path d="M125.824 172.908C125.824 173.194 125.91 173.472 126.083 173.743C126.257 174.015 126.498 174.249 126.804 174.446C127.11 174.642 127.454 174.772 127.834 174.838L127.526 175.411C127.059 175.313 126.644 175.131 126.28 174.866C125.918 174.598 125.647 174.277 125.466 173.901C125.281 174.275 125.007 174.595 124.643 174.863C124.279 175.128 123.865 175.311 123.4 175.411L123.098 174.838C123.474 174.77 123.813 174.639 124.115 174.443C124.42 174.246 124.658 174.012 124.831 173.74C125.006 173.469 125.094 173.191 125.096 172.908V172.495H125.824V172.908ZM128.037 177.009H122.944V176.441H128.037V177.009ZM131.053 173.124H130.652V174.567C130.78 174.556 130.94 174.54 131.133 174.517L131.164 175.017C130.523 175.144 129.612 175.208 128.432 175.208L128.358 174.641C128.57 174.641 128.736 174.64 128.858 174.638V173.124H128.463V172.575H131.053V173.124ZM133.168 175.411H132.514V174.061H132.003V175.356H131.361V172.242H132.003V173.506H132.514V172.149H133.168V175.411ZM133.168 177.65H129.413V175.67H133.168V177.65ZM130.085 177.095H132.49V176.201H130.085V177.095ZM129.487 174.628C129.731 174.62 129.912 174.613 130.029 174.607V173.124H129.487V174.628ZM139.754 173.265H140.531V173.833H139.754V174.943H139.07V172.143H139.754V173.265ZM139.754 176.645H136.794V177.107H139.927V177.65H136.116V176.145H139.07V175.714H136.11V175.183H139.754V176.645ZM136.899 172.328C137.181 172.328 137.433 172.382 137.657 172.488C137.882 172.593 138.057 172.741 138.185 172.932C138.312 173.122 138.377 173.337 138.379 173.58C138.377 173.818 138.312 174.033 138.185 174.224C138.057 174.413 137.88 174.561 137.654 174.668C137.43 174.773 137.179 174.826 136.899 174.826C136.617 174.826 136.363 174.772 136.137 174.665C135.913 174.558 135.737 174.41 135.607 174.221C135.48 174.032 135.417 173.818 135.419 173.58C135.417 173.337 135.48 173.122 135.607 172.932C135.734 172.741 135.911 172.593 136.137 172.488C136.363 172.382 136.617 172.328 136.899 172.328ZM136.899 172.883C136.743 172.883 136.603 172.912 136.48 172.969C136.356 173.027 136.26 173.108 136.19 173.213C136.122 173.318 136.089 173.44 136.091 173.58C136.089 173.718 136.122 173.84 136.19 173.947C136.26 174.054 136.356 174.137 136.48 174.197C136.603 174.254 136.743 174.283 136.899 174.283C137.053 174.283 137.192 174.254 137.315 174.197C137.441 174.137 137.538 174.054 137.608 173.947C137.678 173.84 137.713 173.718 137.713 173.58C137.713 173.44 137.678 173.318 137.608 173.213C137.538 173.108 137.442 173.027 137.318 172.969C137.195 172.912 137.055 172.883 136.899 172.883ZM145.458 175.455H144.768V172.149H145.458V175.455ZM143.67 174.092H141.783V174.671C142.307 174.669 142.749 174.658 143.109 174.638C143.471 174.615 143.839 174.573 144.213 174.511L144.299 175.066C143.884 175.132 143.475 175.176 143.072 175.199C142.671 175.221 142.176 175.233 141.586 175.233H141.111V173.568H142.992V173.019H141.098V172.476H143.67V174.092ZM145.458 177.65H141.758V175.714H145.458V177.65ZM142.437 177.095H144.786V176.262H142.437V177.095ZM150.743 174.807H148.054V172.488H150.743V174.807ZM148.733 174.271H150.065V173.031H148.733V174.271ZM152.402 175.319H151.724V172.143H152.402V175.319ZM152.519 176.164H150.928C150.951 176.312 151.038 176.457 151.19 176.599C151.344 176.74 151.554 176.864 151.819 176.969C152.084 177.073 152.388 177.142 152.729 177.175L152.494 177.699C152.053 177.654 151.664 177.55 151.329 177.388C150.996 177.225 150.742 177.025 150.567 176.787C150.393 177.025 150.137 177.224 149.8 177.385C149.463 177.545 149.07 177.65 148.622 177.699L148.387 177.175C148.731 177.146 149.036 177.081 149.303 176.978C149.57 176.875 149.781 176.752 149.935 176.608C150.092 176.462 150.18 176.314 150.2 176.164H148.616V175.646H150.219V175.159H150.91V175.646H152.519V176.164ZM157.631 172.606C157.631 172.84 157.714 173.068 157.878 173.29C158.044 173.512 158.277 173.702 158.575 173.861C158.875 174.019 159.218 174.123 159.605 174.172L159.333 174.727C158.865 174.657 158.449 174.513 158.088 174.295C157.726 174.075 157.453 173.807 157.271 173.491C157.088 173.807 156.816 174.075 156.457 174.295C156.097 174.513 155.685 174.657 155.22 174.727L154.949 174.172C155.331 174.123 155.671 174.019 155.969 173.861C156.267 173.702 156.499 173.512 156.663 173.29C156.828 173.068 156.91 172.84 156.91 172.606V172.322H157.631V172.606ZM159.808 175.775H157.594V177.718H156.916V175.775H154.727V175.208H159.808V175.775ZM164.828 176.219H164.137V172.149H164.828V176.219ZM164.982 177.607H161.14V175.831H161.831V177.052H164.982V177.607ZM162.262 173C162.262 173.263 162.313 173.514 162.414 173.753C162.516 173.991 162.668 174.203 162.87 174.388C163.071 174.571 163.315 174.711 163.601 174.807L163.249 175.35C162.937 175.241 162.667 175.081 162.441 174.869C162.215 174.657 162.039 174.406 161.914 174.116C161.787 174.429 161.607 174.7 161.374 174.93C161.144 175.161 160.869 175.333 160.548 175.448L160.19 174.906C160.484 174.803 160.733 174.654 160.937 174.459C161.142 174.261 161.296 174.037 161.399 173.787C161.502 173.536 161.553 173.274 161.553 173V172.458H162.262V173ZM169.101 173.913C169.101 174.193 169.153 174.471 169.255 174.749C169.36 175.026 169.512 175.279 169.712 175.507C169.911 175.735 170.15 175.915 170.427 176.047L170.045 176.565C169.751 176.427 169.495 176.229 169.277 175.97C169.061 175.711 168.893 175.414 168.771 175.078C168.646 175.44 168.468 175.76 168.238 176.037C168.01 176.315 167.741 176.524 167.43 176.663L167.054 176.133C167.338 176.006 167.582 175.824 167.788 175.587C167.995 175.351 168.153 175.087 168.26 174.795C168.368 174.503 168.423 174.209 168.423 173.913V173.623H167.233V173.074H168.423V172.26H169.107V173.074H170.279V173.623H169.101V173.913ZM171.506 174.351H172.363V174.924H171.506V177.718H170.822V172.143H171.506V174.351ZM176.995 173.709H177.778V174.277H176.995V176.176H176.31V172.143H176.995V173.709ZM175.33 173.154H173.51V174.671H173.628C174.129 174.671 174.539 174.659 174.858 174.634C175.179 174.61 175.494 174.565 175.804 174.499L175.878 175.054C175.523 175.124 175.157 175.171 174.781 175.196C174.405 175.22 173.905 175.233 173.282 175.233H172.832V172.606H175.33V173.154ZM177.217 177.607H173.424V175.751H174.109V177.052H177.217V177.607Z" fill="#3B4044"/>
<rect width="148" height="9.472" transform="translate(97.5 186.509)" fill="white"/>
<rect width="148" height="12.3147" transform="translate(97.5 195.981)" fill="white"/>
<path d="M105.137 200.503C105.347 200.503 105.536 200.544 105.704 200.626C105.872 200.706 106.004 200.818 106.099 200.961C106.196 201.105 106.246 201.267 106.247 201.447C106.246 201.629 106.196 201.791 106.099 201.935C106.004 202.078 105.872 202.19 105.704 202.27C105.536 202.35 105.347 202.39 105.137 202.39C104.926 202.39 104.736 202.35 104.566 202.27C104.398 202.19 104.266 202.078 104.171 201.935C104.075 201.791 104.027 201.629 104.027 201.447C104.027 201.267 104.075 201.105 104.171 200.961C104.266 200.818 104.399 200.706 104.568 200.626C104.738 200.544 104.928 200.503 105.137 200.503ZM105.137 200.929C105.02 200.929 104.915 200.951 104.823 200.994C104.73 201.035 104.658 201.095 104.605 201.174C104.553 201.251 104.527 201.342 104.527 201.447C104.527 201.553 104.553 201.647 104.605 201.727C104.658 201.805 104.73 201.866 104.823 201.909C104.915 201.953 105.02 201.974 105.137 201.974C105.254 201.974 105.359 201.953 105.452 201.909C105.544 201.866 105.617 201.805 105.669 201.727C105.721 201.647 105.748 201.553 105.748 201.447C105.748 201.342 105.721 201.251 105.669 201.174C105.617 201.095 105.544 201.035 105.452 200.994C105.359 200.951 105.254 200.929 105.137 200.929ZM107.436 202.483H106.918V200.369H107.436V202.483ZM107.436 203.755H105.174V204.092H107.561V204.499H104.67V203.376H106.922V203.066H104.661V202.663H107.436V203.755ZM111.344 201.581H111.927V202.007H111.344V203.45H110.831V200.374H111.344V201.581ZM111.51 204.467H108.666V203.14H109.179V204.051H111.51V204.467ZM108.698 201.308H109.674V200.67H110.183V202.77H108.19V200.67H108.698V201.308ZM109.674 202.363V201.706H108.698V202.363H109.674ZM116.764 202.511H116.251V201.452H115.419V201.04H116.251V200.369H116.764V202.511ZM116.764 203.773H114.521V204.092H116.899V204.499H114.017V203.389H116.256V203.093H114.013V202.691H116.764V203.773ZM114.78 200.841C114.78 201.015 114.818 201.182 114.894 201.341C114.969 201.499 115.081 201.64 115.229 201.764C115.377 201.886 115.556 201.979 115.765 202.044L115.493 202.441C115.269 202.366 115.076 202.258 114.912 202.118C114.749 201.976 114.621 201.808 114.528 201.616C114.434 201.833 114.301 202.021 114.128 202.18C113.957 202.337 113.75 202.455 113.508 202.534L113.24 202.122C113.459 202.056 113.645 201.959 113.798 201.831C113.952 201.701 114.067 201.552 114.144 201.382C114.223 201.213 114.262 201.032 114.262 200.841V200.508H114.78V200.841ZM120.858 202.853H120.344V201.831H119.632V201.41H120.344V200.369H120.858V202.853ZM119.442 202.959C119.737 202.959 119.991 202.991 120.205 203.054C120.421 203.116 120.586 203.207 120.7 203.327C120.814 203.446 120.871 203.588 120.871 203.755C120.871 203.921 120.814 204.064 120.7 204.183C120.586 204.303 120.421 204.394 120.205 204.455C119.991 204.519 119.737 204.55 119.442 204.55C119.149 204.55 118.896 204.519 118.682 204.455C118.467 204.394 118.303 204.303 118.189 204.183C118.076 204.064 118.021 203.921 118.022 203.755C118.021 203.588 118.076 203.446 118.189 203.327C118.303 203.207 118.467 203.116 118.682 203.054C118.896 202.991 119.149 202.959 119.442 202.959ZM119.442 203.352C119.149 203.352 118.924 203.387 118.767 203.456C118.61 203.524 118.531 203.624 118.531 203.755C118.531 203.884 118.61 203.983 118.767 204.051C118.924 204.119 119.149 204.153 119.442 204.153C119.735 204.153 119.961 204.119 120.12 204.051C120.279 203.983 120.358 203.884 120.358 203.755C120.358 203.624 120.279 203.524 120.12 203.456C119.961 203.387 119.735 203.352 119.442 203.352ZM118.892 201.086C118.892 201.259 118.93 201.427 119.005 201.59C119.081 201.752 119.193 201.898 119.341 202.027C119.489 202.155 119.667 202.255 119.877 202.326L119.618 202.733C119.391 202.656 119.195 202.542 119.028 202.393C118.863 202.242 118.734 202.066 118.64 201.865C118.546 202.092 118.412 202.29 118.238 202.46C118.063 202.628 117.854 202.756 117.611 202.844L117.343 202.437C117.56 202.363 117.746 202.256 117.9 202.115C118.054 201.973 118.17 201.814 118.249 201.637C118.329 201.459 118.369 201.277 118.369 201.091V201.058H117.5V200.642H119.757V201.058H118.892V201.086Z" fill="#66707A"/>
<rect width="148" height="23.68" transform="translate(97.5 208.296)" fill="white"/>
<circle cx="112.498" cy="220.136" r="7.104" fill="#F1ECF7"/>
<rect x="111.938" y="216.65" width="1.12557" height="1.40696" rx="0.562785" fill="#6D35DD"/>
<path fill-rule="evenodd" clip-rule="evenodd" d="M114.44 222.136V222.136H110.561V219.381V219.243H110.566C110.637 218.242 111.476 217.452 112.501 217.452C113.525 217.452 114.364 218.242 114.435 219.243H114.44V219.381V221.493L115.087 222.136H114.44ZM110.561 221.493V222.136H109.914L110.561 221.493Z" fill="#6D35DD"/>
<path d="M114.44 222.136V222.321C114.543 222.321 114.626 222.238 114.626 222.136H114.44ZM114.44 222.136V221.95C114.338 221.95 114.255 222.033 114.255 222.136H114.44ZM110.561 222.136H110.375C110.375 222.238 110.458 222.321 110.561 222.321V222.136ZM110.561 219.243V219.057C110.458 219.057 110.375 219.14 110.375 219.243H110.561ZM110.566 219.243V219.428C110.663 219.428 110.744 219.353 110.751 219.256L110.566 219.243ZM114.435 219.243L114.25 219.256C114.257 219.353 114.338 219.428 114.435 219.428V219.243ZM114.44 219.243H114.626C114.626 219.14 114.543 219.057 114.44 219.057V219.243ZM114.44 221.493H114.255C114.255 221.542 114.275 221.59 114.31 221.625L114.44 221.493ZM115.087 222.136V222.321C115.162 222.321 115.23 222.276 115.258 222.206C115.287 222.137 115.271 222.057 115.217 222.004L115.087 222.136ZM110.561 222.136V222.321C110.663 222.321 110.746 222.238 110.746 222.136H110.561ZM110.561 221.493H110.746C110.746 221.418 110.701 221.35 110.632 221.322C110.563 221.293 110.483 221.309 110.43 221.361L110.561 221.493ZM109.914 222.136L109.783 222.004C109.73 222.057 109.714 222.137 109.743 222.206C109.771 222.276 109.839 222.321 109.914 222.321V222.136ZM114.626 222.136V222.136H114.255V222.136H114.626ZM110.561 222.321H114.44V221.95H110.561V222.321ZM110.375 219.381V222.136H110.746V219.381H110.375ZM110.375 219.243V219.381H110.746V219.243H110.375ZM110.566 219.057H110.561V219.428H110.566V219.057ZM112.501 217.267C111.379 217.267 110.459 218.132 110.381 219.23L110.751 219.256C110.815 218.352 111.573 217.638 112.501 217.638V217.267ZM114.62 219.23C114.542 218.132 113.622 217.267 112.501 217.267V217.638C113.428 217.638 114.186 218.352 114.25 219.256L114.62 219.23ZM114.44 219.057H114.435V219.428H114.44V219.057ZM114.626 219.381V219.243H114.255V219.381H114.626ZM114.626 221.493V219.381H114.255V221.493H114.626ZM115.217 222.004L114.571 221.361L114.31 221.625L114.956 222.267L115.217 222.004ZM114.44 222.321H115.087V221.95H114.44V222.321ZM110.746 222.136V221.493H110.375V222.136H110.746ZM109.914 222.321H110.561V221.95H109.914V222.321ZM110.43 221.361L109.783 222.004L110.045 222.267L110.691 221.624L110.43 221.361Z" fill="#6D35DD"/>
<path d="M112.501 223.701C112.923 223.701 113.265 223.457 113.265 223.156H111.736C111.736 223.457 112.078 223.701 112.501 223.701Z" fill="#6D35DD" stroke="#6D35DD" stroke-width="0.391661" stroke-linejoin="round"/>
<path d="M127.341 218.732H128.118V219.3H127.341V220.41H126.656V217.61H127.341V218.732ZM127.341 222.112H124.381V222.574H127.513V223.117H123.702V221.612H126.656V221.18H123.696V220.65H127.341V222.112ZM124.485 217.795C124.767 217.795 125.02 217.848 125.244 217.955C125.468 218.06 125.644 218.208 125.771 218.399C125.899 218.588 125.963 218.804 125.965 219.047C125.963 219.285 125.899 219.5 125.771 219.691C125.644 219.88 125.467 220.028 125.241 220.135C125.017 220.24 124.765 220.292 124.485 220.292C124.204 220.292 123.95 220.239 123.724 220.132C123.5 220.025 123.323 219.877 123.194 219.688C123.066 219.499 123.003 219.285 123.005 219.047C123.003 218.804 123.066 218.588 123.194 218.399C123.321 218.208 123.498 218.06 123.724 217.955C123.95 217.848 124.204 217.795 124.485 217.795ZM124.485 218.35C124.329 218.35 124.189 218.379 124.066 218.436C123.943 218.494 123.846 218.575 123.776 218.68C123.708 218.785 123.676 218.907 123.678 219.047C123.676 219.184 123.708 219.307 123.776 219.414C123.846 219.521 123.943 219.604 124.066 219.663C124.189 219.721 124.329 219.75 124.485 219.75C124.64 219.75 124.778 219.721 124.902 219.663C125.027 219.604 125.125 219.521 125.195 219.414C125.265 219.307 125.299 219.184 125.299 219.047C125.299 218.907 125.265 218.785 125.195 218.68C125.125 218.575 125.028 218.494 124.905 218.436C124.781 218.379 124.642 218.35 124.485 218.35ZM133.045 220.921H132.354V217.616H133.045V220.921ZM131.256 219.559H129.369V220.138C129.894 220.136 130.336 220.125 130.695 220.104C131.057 220.082 131.425 220.04 131.799 219.978L131.885 220.533C131.47 220.599 131.061 220.643 130.658 220.665C130.257 220.688 129.762 220.699 129.172 220.699H128.697V219.034H130.578V218.486H128.685V217.943H131.256V219.559ZM133.045 223.117H129.345V221.18H133.045V223.117ZM130.023 222.562H132.373V221.729H130.023V222.562ZM140.025 220.465H139.341V219.053H138.231V218.504H139.341V217.61H140.025V220.465ZM140.025 222.149H137.035V222.574H140.204V223.117H136.362V221.637H139.347V221.242H136.356V220.706H140.025V222.149ZM137.38 218.239C137.38 218.471 137.43 218.693 137.531 218.905C137.632 219.117 137.781 219.305 137.978 219.469C138.175 219.632 138.414 219.756 138.693 219.842L138.33 220.373C138.032 220.272 137.774 220.128 137.556 219.941C137.338 219.752 137.167 219.529 137.044 219.272C136.918 219.562 136.741 219.812 136.51 220.024C136.282 220.234 136.007 220.391 135.684 220.496L135.326 219.947C135.618 219.859 135.866 219.729 136.07 219.559C136.275 219.386 136.429 219.187 136.532 218.96C136.637 218.734 136.689 218.494 136.689 218.239V217.795H137.38V218.239ZM145.483 220.921H144.798V219.559H143.849V218.997H144.798V217.61H145.483V220.921ZM143.596 221.063C143.989 221.063 144.328 221.105 144.613 221.19C144.901 221.272 145.121 221.393 145.273 221.553C145.425 221.712 145.501 221.902 145.501 222.124C145.501 222.346 145.425 222.536 145.273 222.694C145.121 222.855 144.901 222.976 144.613 223.058C144.328 223.142 143.989 223.185 143.596 223.185C143.205 223.185 142.867 223.142 142.582 223.058C142.296 222.976 142.077 222.855 141.925 222.694C141.775 222.536 141.701 222.346 141.703 222.124C141.701 221.902 141.775 221.712 141.925 221.553C142.077 221.393 142.296 221.272 142.582 221.19C142.867 221.105 143.205 221.063 143.596 221.063ZM143.596 221.587C143.205 221.587 142.905 221.634 142.696 221.726C142.486 221.817 142.381 221.949 142.381 222.124C142.381 222.297 142.486 222.428 142.696 222.519C142.905 222.609 143.205 222.654 143.596 222.654C143.987 222.654 144.288 222.609 144.499 222.519C144.711 222.428 144.817 222.297 144.817 222.124C144.817 221.949 144.711 221.817 144.499 221.726C144.288 221.634 143.987 221.587 143.596 221.587ZM142.862 218.566C142.862 218.796 142.912 219.02 143.013 219.238C143.114 219.454 143.263 219.648 143.46 219.821C143.658 219.991 143.896 220.124 144.176 220.218L143.83 220.761C143.528 220.658 143.266 220.507 143.044 220.308C142.824 220.106 142.651 219.872 142.526 219.605C142.401 219.907 142.222 220.171 141.99 220.397C141.757 220.621 141.479 220.792 141.154 220.909L140.796 220.366C141.086 220.268 141.334 220.125 141.539 219.938C141.745 219.749 141.9 219.536 142.005 219.3C142.112 219.063 142.165 218.821 142.165 218.572V218.529H141.006V217.974H144.015V218.529H142.862V218.566Z" fill="#3B4044"/>
<rect width="148" height="40.6507" transform="translate(97.5 39.7437)" fill="white"/>
<rect width="148" height="22.1013" transform="translate(97.5 58.293)" fill="white"/>
<path d="M110.113 69.8809H109.232V68.3131H108.045V67.6124H109.232V66.6689H110.113V69.8809ZM110.113 71.8304H106.797V72.2189H110.293V72.9126H105.923V71.1852H109.239V70.8244H105.916V70.1446H110.113V71.8304ZM107.157 67.3349C107.155 67.5939 107.205 67.8413 107.307 68.0772C107.411 68.3107 107.571 68.5189 107.789 68.7016C108.006 68.8819 108.277 69.0207 108.6 69.1178L108.136 69.7977C107.805 69.6913 107.521 69.5375 107.282 69.3363C107.044 69.1328 106.855 68.8912 106.713 68.6114C106.572 68.9236 106.375 69.193 106.12 69.4196C105.868 69.6462 105.562 69.8162 105.201 69.9295L104.743 69.2288C105.081 69.1294 105.363 68.9848 105.59 68.7952C105.816 68.6033 105.984 68.3824 106.093 68.1327C106.204 67.8829 106.26 67.617 106.263 67.3349V66.877H107.157V67.3349ZM116.253 70.4151H115.371V68.9236H114.386V68.209H115.371V66.6689H116.253V70.4151ZM114.095 70.5539C114.544 70.5562 114.93 70.6059 115.254 70.703C115.58 70.7978 115.831 70.9366 116.006 71.1193C116.182 71.302 116.271 71.5205 116.273 71.7749C116.271 72.0269 116.182 72.2443 116.006 72.427C115.831 72.6097 115.58 72.7484 115.254 72.8433C114.927 72.9404 114.541 72.9889 114.095 72.9889C113.649 72.9889 113.262 72.9404 112.936 72.8433C112.61 72.7484 112.359 72.6097 112.184 72.427C112.01 72.2443 111.924 72.0269 111.924 71.7749C111.924 71.5205 112.01 71.302 112.184 71.1193C112.359 70.9366 112.609 70.7978 112.933 70.703C113.259 70.6059 113.646 70.5562 114.095 70.5539ZM114.095 71.2337C113.235 71.2337 112.805 71.4141 112.805 71.7749C112.805 71.9552 112.913 72.0905 113.131 72.1807C113.35 72.2709 113.672 72.316 114.095 72.316C114.518 72.316 114.84 72.2709 115.059 72.1807C115.281 72.0882 115.392 71.9529 115.392 71.7749C115.392 71.4141 114.96 71.2337 114.095 71.2337ZM114.574 67.7581H113.318C113.325 68.0124 113.382 68.2576 113.488 68.4934C113.597 68.727 113.757 68.9374 113.97 69.1247C114.185 69.3121 114.451 69.4577 114.768 69.5618L114.331 70.2556C113.993 70.1469 113.702 69.985 113.457 69.7699C113.214 69.5526 113.022 69.297 112.881 69.0033C112.735 69.3363 112.534 69.6254 112.277 69.8705C112.021 70.1133 111.711 70.2972 111.348 70.4221L110.89 69.7214C111.223 69.6104 111.502 69.4531 111.726 69.2496C111.952 69.0438 112.121 68.8126 112.232 68.5559C112.346 68.2992 112.407 68.0332 112.416 67.7581H111.147V67.0504H114.574V67.7581Z" fill="#181A1B"/>
<path fill-rule="evenodd" clip-rule="evenodd" d="M218.1 65.7301C218.1 65.4472 218.348 65.2095 218.664 65.2095C218.98 65.2095 219.228 65.4472 219.228 65.7301V66.1158L219.32 66.1379C220.453 66.4095 221.285 67.3656 221.285 68.4972V71.1017L222.142 71.8997C222.179 71.9345 222.199 71.9806 222.199 72.0275C222.199 72.1241 222.113 72.2107 221.997 72.2107H215.331C215.214 72.2107 215.129 72.1241 215.129 72.0275C215.129 71.9806 215.149 71.9345 215.186 71.8997L216.043 71.1017V68.4972C216.043 67.3656 216.874 66.4095 218.007 66.1379L218.1 66.1158V65.7301ZM218.664 66.6765C217.592 66.6765 216.714 67.4871 216.714 68.4972V71.3538L216.455 71.595H220.872L220.614 71.3538V68.4972C220.614 67.4871 219.736 66.6765 218.664 66.6765Z" fill="#3B4044"/>
<path fill-rule="evenodd" clip-rule="evenodd" d="M219.515 72.7549C219.515 73.2251 219.134 73.6063 218.664 73.6063C218.194 73.6063 217.812 73.2251 217.812 72.7549H219.515Z" fill="#3B4044"/>
<circle cx="222.216" cy="65.7913" r="0.789333" fill="#E93D35"/>
<path fill-rule="evenodd" clip-rule="evenodd" d="M233.809 71.2248C235.202 71.2248 236.332 70.0955 236.332 68.7023C236.332 67.3091 235.202 66.1797 233.809 66.1797C232.416 66.1797 231.287 67.3091 231.287 68.7023C231.287 70.0955 232.416 71.2248 233.809 71.2248ZM233.809 71.9089C235.58 71.9089 237.016 70.4733 237.016 68.7023C237.016 66.9313 235.58 65.4956 233.809 65.4956C232.038 65.4956 230.603 66.9313 230.603 68.7023C230.603 70.4733 232.038 71.9089 233.809 71.9089Z" fill="#3B4044"/>
<path fill-rule="evenodd" clip-rule="evenodd" d="M235.948 70.356L238.113 72.5218C238.247 72.6554 238.247 72.872 238.113 73.0055C237.98 73.1391 237.763 73.1391 237.63 73.0055L235.464 70.8397L235.948 70.356Z" fill="#3B4044"/>
<rect width="148" height="18.5493" transform="translate(97.5 39.7437)" fill="white"/>
<path d="M113.619 47.1033C114.568 47.1033 115.395 47.7786 115.395 49.3819V49.3881C115.395 50.8866 114.719 51.7746 113.6 51.7746C112.783 51.7746 112.172 51.2905 112.031 50.6091L112.024 50.5752H112.808L112.817 50.606C112.934 50.9174 113.208 51.1209 113.6 51.1209C114.306 51.1209 114.605 50.4302 114.639 49.5792C114.639 49.5453 114.642 49.5114 114.642 49.4775H114.581C114.417 49.829 114.029 50.1404 113.418 50.1404C112.564 50.1404 111.966 49.5176 111.966 48.6727V48.6666C111.966 47.7632 112.653 47.1033 113.619 47.1033ZM113.615 49.5299C114.118 49.5299 114.503 49.1661 114.503 48.6635V48.6573C114.503 48.1486 114.118 47.7508 113.625 47.7508C113.134 47.7508 112.743 48.1424 112.743 48.6388V48.645C112.743 49.1599 113.11 49.5299 113.615 49.5299ZM116.668 48.7807C116.387 48.7807 116.178 48.5648 116.178 48.2935C116.178 48.0191 116.387 47.8063 116.668 47.8063C116.952 47.8063 117.158 48.0191 117.158 48.2935C117.158 48.5648 116.952 48.7807 116.668 48.7807ZM116.668 51.0685C116.387 51.0685 116.178 50.8557 116.178 50.5813C116.178 50.3069 116.387 50.0942 116.668 50.0942C116.952 50.0942 117.158 50.3069 117.158 50.5813C117.158 50.8557 116.952 51.0685 116.668 51.0685ZM120.1 51.6636V50.8095H117.923V50.1589C118.5 49.1568 119.132 48.1332 119.736 47.2143H120.862V50.1527H121.46V50.8095H120.862V51.6636H120.1ZM118.663 50.1712H120.112V47.8495H120.066C119.61 48.5463 119.095 49.3696 118.663 50.125V50.1712ZM123.177 51.6636V47.9975H123.125L122.018 48.7807V48.0314L123.18 47.2143H123.973V51.6636H123.177Z" fill="#181A1B"/>
<path opacity="0.35" d="M225.038 48.8213C225.038 48.0585 225.657 47.44 226.419 47.44H233.129C233.892 47.44 234.51 48.0585 234.51 48.8213V50.7947C234.51 51.5576 233.892 52.176 233.129 52.176H226.419C225.657 52.176 225.038 51.5576 225.038 50.7947V48.8213Z" stroke="black" stroke-width="0.394667"/>
<path opacity="0.4" d="M235.103 49.2163V50.8819C235.438 50.7409 235.656 50.4127 235.656 50.0491C235.656 49.6855 235.438 49.3574 235.103 49.2163Z" fill="black"/>
<path d="M225.631 48.8216C225.631 48.3856 225.984 48.0322 226.42 48.0322H233.13C233.565 48.0322 233.919 48.3856 233.919 48.8216V50.7949C233.919 51.2308 233.565 51.5842 233.13 51.5842H226.42C225.984 51.5842 225.631 51.2308 225.631 50.7949V48.8216Z" fill="black"/>
<path fill-rule="evenodd" clip-rule="evenodd" d="M218.723 48.6584C219.696 48.6585 220.633 49.0403 221.338 49.7249C221.391 49.7778 221.476 49.7771 221.529 49.7234L222.036 49.2003C222.063 49.173 222.078 49.1362 222.077 49.0978C222.077 49.0594 222.062 49.0227 222.035 48.9958C220.184 47.1843 217.262 47.1843 215.41 48.9958C215.384 49.0227 215.368 49.0594 215.368 49.0977C215.368 49.1361 215.383 49.173 215.409 49.2003L215.917 49.7234C215.969 49.7772 216.054 49.7779 216.107 49.7249C216.813 49.0402 217.749 48.6584 218.723 48.6584ZM218.737 50.2378C219.272 50.2378 219.788 50.4407 220.184 50.8072C220.238 50.8592 220.322 50.858 220.374 50.8046L220.882 50.2815C220.908 50.254 220.923 50.2168 220.923 50.1781C220.922 50.1394 220.907 50.1025 220.88 50.0756C219.672 48.9293 217.803 48.9293 216.595 50.0756C216.568 50.1025 216.553 50.1394 216.552 50.1781C216.552 50.2168 216.567 50.2541 216.593 50.2815L217.101 50.8046C217.153 50.858 217.237 50.8592 217.291 50.8072C217.687 50.4409 218.203 50.238 218.737 50.2378ZM219.769 51.259C219.769 51.2977 219.754 51.3351 219.727 51.3623L218.85 52.2662C218.824 52.2928 218.789 52.3077 218.752 52.3077C218.716 52.3077 218.681 52.2928 218.655 52.2662L217.777 51.3623C217.75 51.3351 217.735 51.2977 217.736 51.2589C217.737 51.2201 217.753 51.1834 217.782 51.1574C218.342 50.6736 219.163 50.6736 219.723 51.1574C219.751 51.1834 219.768 51.2202 219.769 51.259Z" fill="#181A1B"/>
<path d="M209.054 48.8212C209.054 48.6032 209.231 48.4265 209.449 48.4265H209.843C210.061 48.4265 210.238 48.6032 210.238 48.8212V51.9785C210.238 52.1965 210.061 52.3732 209.843 52.3732H209.449C209.231 52.3732 209.054 52.1965 209.054 51.9785V48.8212Z" fill="#181A1B"/>
<path d="M211.027 48.0319C211.027 47.8139 211.204 47.6372 211.422 47.6372H211.817C212.035 47.6372 212.211 47.8139 212.211 48.0319V51.9785C212.211 52.1965 212.035 52.3732 211.817 52.3732H211.422C211.204 52.3732 211.027 52.1965 211.027 51.9785V48.0319Z" fill="#181A1B"/>
<path d="M207.081 50.2025C207.081 49.9846 207.257 49.8079 207.475 49.8079H207.87C208.088 49.8079 208.265 49.9846 208.265 50.2025V51.9785C208.265 52.1965 208.088 52.3732 207.87 52.3732H207.475C207.257 52.3732 207.081 52.1965 207.081 51.9785V50.2025Z" fill="#181A1B"/>
<path d="M205.107 51.1892C205.107 50.9712 205.284 50.7945 205.502 50.7945H205.897C206.115 50.7945 206.291 50.9712 206.291 51.1892V51.9785C206.291 52.1965 206.115 52.3732 205.897 52.3732H205.502C205.284 52.3732 205.107 52.1965 205.107 51.9785V51.1892Z" fill="#181A1B"/>
</g>
</g>
<rect x="94.8" y="37.3" width="153.4" height="285.4" rx="22.7" stroke="black" stroke-width="5.4"/>
<g filter="url(#filter0_d_1300_9514)">
<g clip-path="url(#clip4_1300_9514)">
<g clip-path="url(#clip5_1300_9514)">
<rect width="230" height="1045.12" transform="translate(57 -272.533)" fill="white"/>
<rect width="230" height="18.8133" transform="translate(57 103.041)" fill="white"/>
<rect width="230" height="36.8" transform="translate(57 121.854)" fill="white"/>
<circle cx="80.3066" cy="140.254" r="11.04" fill="#F1ECF7"/>
<path fill-rule="evenodd" clip-rule="evenodd" d="M80.3136 136.837C78.4576 136.837 76.9531 138.342 76.9531 140.198V144.091H79.8335V141.461C79.8335 141.196 80.0484 140.981 80.3136 140.981C80.5787 140.981 80.7936 141.196 80.7936 141.461V144.091H83.674V140.198C83.674 138.342 82.1695 136.837 80.3136 136.837Z" fill="#6D35DD"/>
<rect x="75.5762" y="143.788" width="9.47729" height="0.962843" rx="0.481422" fill="#6D35DD"/>
<path fill-rule="evenodd" clip-rule="evenodd" d="M79.816 134.805C79.816 134.532 80.038 134.31 80.3117 134.31C80.5855 134.31 80.8074 134.532 80.8074 134.805V135.724C80.8074 135.998 80.5855 136.22 80.3117 136.22C80.038 136.22 79.816 135.998 79.816 135.724V134.805ZM84.091 135.578C84.2305 135.345 84.5358 135.263 84.7729 135.395C85.0099 135.527 85.0891 135.823 84.9496 136.055L84.4633 136.867C84.3238 137.1 84.0185 137.181 83.7814 137.049C83.5444 136.918 83.4652 136.622 83.6047 136.389L84.091 135.578ZM75.8511 135.395C76.0882 135.263 76.3934 135.345 76.5329 135.578L77.0192 136.389C77.1587 136.622 77.0796 136.918 76.8425 137.049C76.6054 137.181 76.3001 137.1 76.1606 136.867L75.6743 136.055C75.5348 135.823 75.614 135.527 75.8511 135.395Z" fill="#6D35DD"/>
<path d="M103.738 139.861H102.683V135.443H103.738V139.861ZM103.757 142.516H99.0704V143.187H104.015V144.03H98.0258V141.721H102.693V141.088H98.0067V140.264H103.757V142.516ZM99.77 136.325C99.77 136.696 99.8499 137.05 100.01 137.389C100.173 137.728 100.412 138.026 100.728 138.285C101.045 138.544 101.425 138.74 101.869 138.874L101.351 139.698C100.859 139.548 100.433 139.32 100.072 139.013C99.7141 138.707 99.4346 138.342 99.2333 137.921C99.0321 138.378 98.7478 138.774 98.3804 139.109C98.0131 139.441 97.5754 139.689 97.0675 139.852L96.5308 139.018C96.9845 138.871 97.371 138.66 97.6904 138.386C98.0131 138.108 98.2558 137.791 98.4188 137.437C98.5849 137.079 98.6679 136.708 98.6679 136.325V135.654H99.77V136.325ZM108.299 137.523C108.296 138.057 108.384 138.576 108.563 139.08C108.742 139.585 109 140.034 109.339 140.427C109.678 140.82 110.075 141.114 110.532 141.308L109.9 142.161C109.411 141.935 108.984 141.604 108.62 141.17C108.259 140.735 107.977 140.229 107.772 139.651C107.568 140.277 107.279 140.826 106.905 141.299C106.534 141.768 106.092 142.123 105.578 142.363L104.926 141.471C105.395 141.27 105.803 140.967 106.148 140.561C106.496 140.152 106.761 139.684 106.943 139.157C107.125 138.627 107.216 138.082 107.216 137.523V136.143H108.299V137.523ZM112.228 144.116H111.155V135.443H112.228V144.116ZM120.336 137.935H121.543V138.826H120.336V141.692H119.253V135.443H120.336V137.935ZM117.978 136.105C117.978 136.865 117.819 137.553 117.499 138.17C117.18 138.783 116.717 139.312 116.11 139.756C115.506 140.197 114.774 140.542 113.915 140.791L113.474 139.948C114.129 139.759 114.694 139.518 115.17 139.224C115.65 138.927 116.028 138.588 116.306 138.208C116.584 137.828 116.753 137.418 116.814 136.977H113.838V136.105H117.978ZM120.662 143.934H114.768V141.05H115.851V143.072H120.662V143.934ZM132.229 143.062H124.313V142.19H127.725V140.503H125.185V136.018H126.249V137.437H130.264V136.018H131.328V140.503H128.779V142.19H132.229V143.062ZM130.264 139.641V138.29H126.249V139.641H130.264ZM140.001 144.116H138.928V135.443H140.001V144.116ZM135.334 136.076C135.768 136.076 136.155 136.202 136.493 136.455C136.835 136.704 137.103 137.06 137.298 137.523C137.493 137.983 137.592 138.52 137.595 139.133C137.592 139.75 137.493 140.289 137.298 140.753C137.107 141.216 136.84 141.574 136.498 141.826C136.156 142.075 135.768 142.2 135.334 142.2C134.896 142.2 134.506 142.075 134.165 141.826C133.823 141.574 133.554 141.216 133.36 140.753C133.168 140.289 133.072 139.75 133.072 139.133C133.072 138.52 133.168 137.983 133.36 137.523C133.554 137.06 133.823 136.704 134.165 136.455C134.506 136.202 134.896 136.076 135.334 136.076ZM135.334 137.034C135.088 137.034 134.871 137.117 134.682 137.283C134.497 137.45 134.353 137.691 134.251 138.007C134.149 138.323 134.098 138.699 134.098 139.133C134.098 139.571 134.149 139.948 134.251 140.264C134.353 140.58 134.497 140.823 134.682 140.992C134.871 141.158 135.088 141.241 135.334 141.241C135.577 141.241 135.791 141.158 135.976 140.992C136.161 140.823 136.305 140.58 136.407 140.264C136.509 139.948 136.56 139.571 136.56 139.133C136.56 138.699 136.509 138.325 136.407 138.012C136.305 137.696 136.161 137.454 135.976 137.288C135.791 137.119 135.577 137.034 135.334 137.034ZM145.751 136.632C145.751 137.076 145.885 137.509 146.153 137.93C146.425 138.352 146.799 138.716 147.275 139.023C147.751 139.326 148.284 139.529 148.875 139.631L148.396 140.523C147.671 140.369 147.025 140.087 146.46 139.675C145.898 139.259 145.476 138.759 145.195 138.175C144.908 138.756 144.481 139.254 143.916 139.67C143.35 140.082 142.707 140.366 141.985 140.523L141.515 139.631C142.1 139.526 142.627 139.322 143.096 139.018C143.569 138.711 143.94 138.347 144.208 137.926C144.479 137.504 144.617 137.073 144.62 136.632V135.99H145.751V136.632ZM149.191 143.005H141.275V142.123H149.191V143.005ZM156.992 144.107H155.919V135.443H156.992V144.107ZM154.884 137.159H154.05V141.045C154.51 141.007 154.916 140.967 155.267 140.925L155.325 141.721C154.491 141.855 153.62 141.944 152.713 141.989C151.806 142.034 150.849 142.056 149.843 142.056L149.738 141.184C149.948 141.184 150.306 141.181 150.811 141.174V137.159H149.968V136.287H154.884V137.159ZM151.836 141.15C152.226 141.141 152.616 141.126 153.005 141.107V137.159H151.836V141.15ZM165.454 140.59H164.381V135.453H165.454V140.59ZM162.541 140.753C163.141 140.753 163.664 140.818 164.108 140.949C164.552 141.08 164.894 141.27 165.133 141.519C165.373 141.768 165.493 142.066 165.493 142.411C165.493 142.759 165.373 143.057 165.133 143.307C164.894 143.556 164.552 143.746 164.108 143.877C163.664 144.008 163.141 144.072 162.541 144.068C161.934 144.072 161.407 144.008 160.96 143.877C160.516 143.746 160.174 143.556 159.934 143.307C159.698 143.057 159.58 142.759 159.58 142.411C159.58 142.066 159.698 141.768 159.934 141.519C160.174 141.27 160.516 141.08 160.96 140.949C161.407 140.818 161.934 140.753 162.541 140.753ZM162.541 141.577C161.931 141.583 161.461 141.657 161.132 141.797C160.806 141.935 160.643 142.139 160.643 142.411C160.643 142.682 160.808 142.89 161.137 143.033C161.466 143.174 161.934 143.244 162.541 143.244C163.151 143.244 163.621 143.174 163.95 143.033C164.282 142.89 164.448 142.682 164.448 142.411C164.448 142.142 164.283 141.938 163.954 141.797C163.625 141.657 163.154 141.583 162.541 141.577ZM161.468 136.661C161.468 137.044 161.547 137.41 161.707 137.758C161.867 138.103 162.105 138.41 162.421 138.678C162.737 138.943 163.119 139.146 163.566 139.286L163.039 140.13C162.547 139.967 162.122 139.73 161.765 139.421C161.41 139.108 161.132 138.739 160.931 138.314C160.733 138.793 160.452 139.21 160.088 139.564C159.723 139.916 159.289 140.181 158.784 140.36L158.248 139.497C158.701 139.344 159.086 139.122 159.402 138.831C159.722 138.537 159.961 138.203 160.121 137.83C160.284 137.453 160.365 137.063 160.365 136.661V135.827H161.468V136.661ZM173.456 136.823H170.466V137.628H173.284V138.481H170.466V139.334C171.274 139.331 171.933 139.314 172.44 139.282C172.952 139.25 173.456 139.187 173.955 139.095L174.07 139.938C173.549 140.028 173.027 140.088 172.503 140.12C171.979 140.152 171.329 140.168 170.553 140.168H170.093H169.403V135.951H173.456V136.823ZM175.881 144.001H170.284V140.925H175.881V144.001ZM171.338 143.139H174.827V141.759H171.338V143.139ZM175.881 137.513H177.088V138.395H175.881V140.523H174.817V135.443H175.881V137.513ZM180.797 137.906C180.797 138.382 180.887 138.854 181.065 139.32C181.248 139.783 181.506 140.2 181.842 140.571C182.18 140.938 182.576 141.216 183.03 141.404L182.445 142.248C181.944 142.034 181.508 141.713 181.137 141.285C180.767 140.856 180.479 140.36 180.275 139.794C180.07 140.401 179.781 140.94 179.408 141.409C179.037 141.876 178.603 142.225 178.104 142.458L177.491 141.625C177.935 141.42 178.325 141.12 178.66 140.724C178.999 140.328 179.259 139.884 179.441 139.392C179.623 138.897 179.714 138.402 179.714 137.906V137.178H177.807V136.296H182.695V137.178H180.797V137.906ZM184.736 144.107H183.663V135.443H184.736V144.107Z" fill="#3B4044"/>
<path d="M268.176 140.718C268.176 141.35 268.059 141.902 267.824 142.375C267.589 142.844 267.263 143.206 266.847 143.46C266.433 143.712 265.965 143.838 265.442 143.838C264.914 143.838 264.442 143.712 264.025 143.46C263.612 143.206 263.287 142.844 263.053 142.375C262.818 141.902 262.7 141.35 262.7 140.718C262.7 140.084 262.818 139.532 263.053 139.062C263.287 138.59 263.612 138.228 264.025 137.976C264.442 137.725 264.914 137.599 265.442 137.599C265.965 137.599 266.433 137.725 266.847 137.976C267.263 138.228 267.589 138.59 267.824 139.062C268.059 139.532 268.176 140.084 268.176 140.718ZM267.262 140.718C267.262 140.238 267.184 139.827 267.027 139.486C266.871 139.145 266.654 138.886 266.377 138.71C266.103 138.534 265.792 138.446 265.442 138.446C265.09 138.446 264.776 138.534 264.499 138.71C264.222 138.886 264.006 139.145 263.849 139.486C263.693 139.827 263.614 140.238 263.614 140.718C263.614 141.199 263.693 141.61 263.849 141.951C264.006 142.292 264.222 142.551 264.499 142.727C264.776 142.903 265.09 142.991 265.442 142.991C265.792 142.991 266.103 142.903 266.377 142.727C266.654 142.551 266.871 142.292 267.027 141.951C267.184 141.607 267.262 141.196 267.262 140.718ZM274.113 143.754H273.266L270.189 139.318H270.138V143.754H269.216V137.683H270.071L273.149 142.127H273.207V137.683H274.113V143.754Z" fill="#6D35DD"/>
<rect width="230" height="36.8" transform="translate(57 158.654)" fill="white"/>
</g>
</g>
</g>
</g>
<defs>
<filter id="filter0_d_1300_9514" x="37.1081" y="109.541" width="269.784" height="85.7838" filterUnits="userSpaceOnUse" color-interpolation-filters="sRGB">
<feFlood flood-opacity="0" result="BackgroundImageFix"/>
<feColorMatrix in="SourceAlpha" type="matrix" values="0 0 0 0 0 0 0 0 0 0 0 0 0 0 0 0 0 0 127 0" result="hardAlpha"/>
<feOffset dy="12.4324"/>
<feGaussianBlur stdDeviation="9.94595"/>
<feColorMatrix type="matrix" values="0 0 0 0 0 0 0 0 0 0 0 0 0 0 0 0 0 0 0.12 0"/>
<feBlend mode="normal" in2="BackgroundImageFix" result="effect1_dropShadow_1300_9514"/>
<feBlend mode="normal" in="SourceGraphic" in2="effect1_dropShadow_1300_9514" result="shape"/>
</filter>
<linearGradient id="paint0_linear_1300_9514" x1="347.872" y1="177.727" x2="59.516" y2="-25.4069" gradientUnits="userSpaceOnUse">
<stop stop-color="#DBB3F9"/>
<stop offset="1" stop-color="#D3E7FF"/>
</linearGradient>
<clipPath id="clip0_1300_9514">
<rect width="343" height="230" rx="12" fill="white"/>
</clipPath>
<clipPath id="clip1_1300_9514">
<rect x="97.5" y="40" width="148" height="280" rx="20" fill="white"/>
</clipPath>
<clipPath id="clip2_1300_9514">
<rect width="148" height="672.512" fill="white" transform="translate(97.5 39.7437)"/>
</clipPath>
<clipPath id="clip3_1300_9514">
<rect width="8.68267" height="8.68267" fill="white" transform="translate(108.159 101.181)"/>
</clipPath>
<clipPath id="clip4_1300_9514">
<rect x="57" y="117" width="230" height="46" rx="9.94595" fill="white"/>
</clipPath>
<clipPath id="clip5_1300_9514">
<rect width="230" height="1045.12" fill="white" transform="translate(57 -272.533)"/>
</clipPath>
</defs>
</svg>
