<svg width="343" height="230" viewBox="0 0 343 230" fill="none" xmlns="http://www.w3.org/2000/svg">
<g clip-path="url(#clip0_1300_9388)">
<rect width="343" height="230" rx="12" fill="#F3F5F6"/>
<rect width="343" height="230" rx="12" fill="#FDFCFF"/>
<rect width="343" height="230" rx="12" fill="url(#paint0_linear_1300_9388)" fill-opacity="0.6"/>
<rect width="343" height="230" rx="12" fill="white" fill-opacity="0.1"/>
<circle opacity="0.2" cx="119" cy="40" r="2" fill="#9E4EFF"/>
<g clip-path="url(#clip1_1300_9388)">
<rect x="97.5" y="57" width="148" height="280" rx="19.2" fill="url(#paint1_linear_1300_9388)"/>
<g clip-path="url(#clip2_1300_9388)">
<rect x="106.557" y="77.9678" width="38.016" height="38.016" rx="6.336" fill="white" fill-opacity="0.05"/>
<rect x="152.492" y="77.9678" width="38.016" height="38.016" rx="6.336" fill="white" fill-opacity="0.05"/>
<rect x="198.429" y="77.9678" width="38.016" height="38.016" rx="6.336" fill="white" fill-opacity="0.05"/>
<rect x="106.557" y="123.983" width="38.016" height="38.016" rx="6.336" fill="white" fill-opacity="0.05"/>
<rect x="152.492" y="123.983" width="38.016" height="38.016" rx="6.336" fill="white" fill-opacity="0.05"/>
<rect x="198.429" y="123.983" width="38.016" height="38.016" rx="6.336" fill="white" fill-opacity="0.05"/>
<rect x="106.557" y="170" width="38.016" height="38.016" rx="6.336" fill="white" fill-opacity="0.05"/>
<rect x="152.492" y="170" width="38.016" height="38.016" rx="6.336" fill="white" fill-opacity="0.05"/>
<rect x="198.429" y="170" width="38.016" height="38.016" rx="6.336" fill="white" fill-opacity="0.05"/>
<rect x="106.557" y="216.016" width="38.016" height="38.016" rx="6.336" fill="white" fill-opacity="0.05"/>
<rect x="152.492" y="216.016" width="38.016" height="38.016" rx="6.336" fill="white" fill-opacity="0.05"/>
<rect x="198.429" y="216.016" width="38.016" height="38.016" rx="6.336" fill="white" fill-opacity="0.05"/>
</g>
<path d="M144.973 57H198.029V61.2134C198.029 64.2822 194.485 66.7736 190.12 66.7736H152.882C148.517 66.7736 144.973 64.2822 144.973 61.2134V57Z" fill="black"/>
</g>
<rect x="94.7075" y="54.2075" width="153.585" height="285.585" rx="21.9925" stroke="black" stroke-width="5.58491"/>
<rect x="97.5" y="57" width="148" height="280" rx="19.2" fill="url(#paint2_linear_1300_9388)" fill-opacity="0.1"/>
<g filter="url(#filter0_d_1300_9388)">
<rect x="103.5" y="73" width="136" height="30" rx="15" fill="#181A1B" fill-opacity="0.7"/>
</g>
<rect width="51" height="5" rx="1.2" transform="matrix(1 0 -4.97216e-06 1 132 80.5)" fill="white" fill-opacity="0.05"/>
<rect width="21.2969" height="5" rx="1.2" transform="matrix(1 0 -4.97216e-06 1 132 89.5)" fill="white" fill-opacity="0.05"/>
<circle opacity="0.8" cx="200.5" cy="88" r="10" fill="#00D179"/>
<circle cx="118.5" cy="88" r="10" fill="white" fill-opacity="0.05"/>
<circle opacity="0.8" cx="224.5" cy="88" r="10" fill="#F73D3E"/>
<rect opacity="0.3" x="103.5" y="140" width="136" height="40" rx="8" fill="#F3F5F6"/>
<circle opacity="0.3" cx="285.5" cy="173.5" r="4.5" fill="#00D179"/>
<circle cx="54" cy="123" r="5" fill="#9E4EFF"/>
<circle opacity="0.2" cx="46.5" cy="113.5" r="2.5" fill="#9E4EFF"/>
<circle cx="75" cy="210" r="3" fill="#F65CF0"/>
<circle cx="279" cy="67" r="3" fill="#F65CF0"/>
<path d="M324.693 98.3178C319.035 119.357 294.246 118.831 286.415 118.118C285.157 118.003 284.394 116.757 284.791 115.562L285.914 112.184C286.195 111.337 285.896 110.401 285.231 109.803C282.189 107.069 274.419 98.5942 277.856 85.8133C281.271 73.1136 294.525 65.6178 307.458 69.0708C320.392 72.5238 328.132 85.5278 324.693 98.3178Z" fill="#F65CF0"/>
<rect x="299.389" y="80.7905" width="3.56494" height="4.45618" rx="1.78247" fill="white"/>
<path fill-rule="evenodd" clip-rule="evenodd" d="M307.316 98.1636V98.1638H295.029V89.4382V89.001H295.044C295.27 85.8314 297.927 83.3296 301.172 83.3296C304.418 83.3296 307.075 85.8314 307.301 89.001H307.316V89.4382V96.1279L309.364 98.1636H307.316ZM295.028 96.1274V98.1636H292.98L295.028 96.1274Z" fill="white"/>
<path d="M307.316 98.1638V98.7512C307.64 98.7512 307.903 98.4882 307.903 98.1638H307.316ZM307.316 98.1636V97.5763C306.992 97.5763 306.729 97.8392 306.729 98.1636H307.316ZM295.029 98.1638H294.441C294.441 98.4882 294.704 98.7512 295.029 98.7512V98.1638ZM295.029 89.001V88.4136C294.704 88.4136 294.441 88.6766 294.441 89.001H295.029ZM295.044 89.001V89.5883C295.353 89.5883 295.608 89.3501 295.63 89.0426L295.044 89.001ZM307.301 89.001L306.715 89.0426C306.737 89.3501 306.992 89.5883 307.301 89.5883V89.001ZM307.316 89.001H307.903C307.903 88.6766 307.64 88.4136 307.316 88.4136V89.001ZM307.316 96.1279H306.729C306.729 96.2843 306.791 96.4342 306.902 96.5444L307.316 96.1279ZM309.364 98.1636V98.751C309.601 98.751 309.816 98.6075 309.906 98.3876C309.997 98.1677 309.946 97.9148 309.778 97.7471L309.364 98.1636ZM295.028 98.1636V98.751C295.353 98.751 295.616 98.488 295.616 98.1636H295.028ZM295.028 96.1274H295.616C295.616 95.8902 295.473 95.6762 295.254 95.5851C295.035 95.494 294.782 95.5436 294.614 95.7109L295.028 96.1274ZM292.98 98.1636L292.566 97.7471C292.398 97.9148 292.347 98.1677 292.437 98.3876C292.528 98.6075 292.743 98.751 292.98 98.751V98.1636ZM307.903 98.1638V98.1636H306.729V98.1638H307.903ZM295.029 98.7512H307.316V97.5765H295.029V98.7512ZM294.441 89.4382V98.1638H295.616V89.4382H294.441ZM294.441 89.001V89.4382H295.616V89.001H294.441ZM295.044 88.4136H295.029V89.5883H295.044V88.4136ZM301.172 82.7422C297.62 82.7422 294.706 85.4816 294.458 88.9593L295.63 89.0426C295.834 86.1811 298.235 83.917 301.172 83.917V82.7422ZM307.886 88.9593C307.639 85.4816 304.725 82.7422 301.172 82.7422V83.917C304.11 83.917 306.511 86.1811 306.715 89.0426L307.886 88.9593ZM307.316 88.4136H307.301V89.5883H307.316V88.4136ZM307.903 89.4382V89.001H306.729V89.4382H307.903ZM307.903 96.1279V89.4382H306.729V96.1279H307.903ZM309.778 97.7471L307.73 95.7114L306.902 96.5444L308.949 98.5801L309.778 97.7471ZM307.316 98.751H309.364V97.5763H307.316V98.751ZM295.616 98.1636V96.1274H294.441V98.1636H295.616ZM292.98 98.751H295.028V97.5763H292.98V98.751ZM294.614 95.7109L292.566 97.7471L293.395 98.5801L295.442 96.544L294.614 95.7109Z" fill="white"/>
<path d="M301.172 103.12C302.509 103.12 303.593 102.347 303.593 101.394H298.752C298.752 102.347 299.836 103.12 301.172 103.12Z" fill="white" stroke="white" stroke-width="1.24048" stroke-linejoin="round"/>
<path d="M20.4601 157.128C25.1113 174.424 45.491 173.992 51.9287 173.406C52.9625 173.312 53.5897 172.287 53.2634 171.305L52.3408 168.528C52.1094 167.831 52.3551 167.062 52.9018 166.57C55.4028 164.322 61.7903 157.355 58.9647 146.848C56.157 136.407 45.2615 130.245 34.6287 133.084C23.996 135.923 17.6325 146.613 20.4601 157.128Z" fill="#9E4EFF"/>
<path fill-rule="evenodd" clip-rule="evenodd" d="M30.8123 149.439C30.2882 147.483 31.449 145.472 33.405 144.948L42.2593 142.575C44.2154 142.051 46.2259 143.212 46.7501 145.168L49.1226 154.023C49.6467 155.979 48.4859 157.989 46.5298 158.513L37.6755 160.886C35.7195 161.41 33.7089 160.249 33.1848 158.293L30.8123 149.439ZM34.3849 150.379C34.2539 149.89 34.5441 149.387 35.0331 149.256L43.002 147.121C43.491 146.99 43.9936 147.28 44.1246 147.769C44.2557 148.258 43.9655 148.761 43.4765 148.892L35.5076 151.027C35.0186 151.158 34.5159 150.868 34.3849 150.379ZM36.1007 153.241C35.6117 153.372 35.3215 153.875 35.4525 154.364C35.5836 154.853 36.0862 155.143 36.5752 155.012L41.8878 153.588C42.3768 153.457 42.667 152.955 42.536 152.466C42.405 151.977 41.9023 151.686 41.4133 151.817L36.1007 153.241Z" fill="white"/>
<rect x="32.9307" y="143.177" width="1.83333" height="3.66667" rx="0.916667" transform="rotate(-15 32.9307 143.177)" fill="white"/>
<rect x="40.0137" y="141.279" width="1.83333" height="3.66667" rx="0.916667" transform="rotate(-15 40.0137 141.279)" fill="white"/>
<g filter="url(#filter1_d_1300_9388)">
<g filter="url(#filter2_d_1300_9388)">
<rect x="66.5" y="107" width="210" height="62" rx="12" fill="white"/>
</g>
<path d="M134.89 126.695H133.536V129.048H134.814V129.993H127.682V129.048H128.971V126.695H127.639V125.729H134.89V126.695ZM135.685 131.895H131.828V134.945H130.646V131.895H126.812V130.917H135.685V131.895ZM132.354 129.048V126.695H130.163V129.048H132.354ZM139.948 127.576C139.944 128.174 140.043 128.756 140.243 129.322C140.444 129.888 140.734 130.391 141.113 130.831C141.493 131.271 141.939 131.601 142.451 131.819L141.742 132.775C141.194 132.521 140.716 132.151 140.308 131.664C139.903 131.177 139.586 130.609 139.357 129.961C139.128 130.663 138.804 131.279 138.385 131.809C137.97 132.335 137.474 132.732 136.897 133.001L136.167 132.002C136.693 131.776 137.15 131.436 137.536 130.981C137.927 130.523 138.224 129.999 138.428 129.408C138.632 128.813 138.734 128.203 138.734 127.576V126.029H139.948V127.576ZM144.352 134.967H143.149V125.245H144.352V134.967ZM155.94 127.2H157.294V128.188H155.94V130.122H154.748V125.245H155.94V127.2ZM155.94 133.087H150.784V133.893H156.241V134.838H149.603V132.217H154.748V131.465H149.592V130.541H155.94V133.087ZM150.967 125.567C151.457 125.567 151.898 125.66 152.288 125.847C152.678 126.029 152.985 126.287 153.207 126.62C153.429 126.95 153.541 127.326 153.545 127.748C153.541 128.163 153.429 128.538 153.207 128.871C152.985 129.2 152.677 129.458 152.283 129.644C151.892 129.827 151.454 129.918 150.967 129.918C150.476 129.918 150.034 129.825 149.64 129.639C149.25 129.452 148.942 129.195 148.716 128.865C148.494 128.536 148.385 128.163 148.389 127.748C148.385 127.326 148.494 126.95 148.716 126.62C148.938 126.287 149.246 126.029 149.64 125.847C150.034 125.66 150.476 125.567 150.967 125.567ZM150.967 126.534C150.695 126.534 150.451 126.584 150.236 126.685C150.022 126.785 149.853 126.926 149.731 127.109C149.613 127.292 149.556 127.505 149.56 127.748C149.556 127.988 149.613 128.201 149.731 128.387C149.853 128.573 150.022 128.718 150.236 128.822C150.451 128.923 150.695 128.973 150.967 128.973C151.235 128.973 151.477 128.923 151.692 128.822C151.91 128.718 152.08 128.573 152.202 128.387C152.324 128.201 152.385 127.988 152.385 127.748C152.385 127.505 152.324 127.292 152.202 127.109C152.08 126.926 151.912 126.785 151.697 126.685C151.482 126.584 151.239 126.534 150.967 126.534ZM165.822 131.014H164.619V125.256H165.822V131.014ZM162.707 128.64H159.42V129.649C160.333 129.646 161.103 129.626 161.729 129.59C162.359 129.551 163 129.478 163.652 129.37L163.802 130.337C163.079 130.451 162.367 130.528 161.665 130.568C160.967 130.607 160.104 130.627 159.076 130.627H158.249V127.727H161.525V126.771H158.227V125.825H162.707V128.64ZM165.822 134.838H159.377V131.465H165.822V134.838ZM160.558 133.871H164.651V132.421H160.558V133.871ZM171.6 125.396C172.338 125.396 172.966 125.46 173.485 125.589C174.008 125.718 174.407 125.908 174.683 126.158C174.959 126.405 175.098 126.706 175.102 127.061C175.098 127.598 174.792 128.009 174.183 128.296C173.575 128.582 172.714 128.729 171.6 128.736C170.483 128.729 169.62 128.582 169.011 128.296C168.402 128.009 168.098 127.598 168.098 127.061C168.098 126.706 168.236 126.405 168.512 126.158C168.787 125.908 169.187 125.718 169.709 125.589C170.232 125.46 170.862 125.396 171.6 125.396ZM171.6 126.276C170.862 126.276 170.302 126.344 169.919 126.48C169.536 126.613 169.348 126.806 169.355 127.061C169.351 127.326 169.537 127.522 169.913 127.651C170.289 127.78 170.852 127.845 171.6 127.845C172.359 127.845 172.927 127.78 173.303 127.651C173.679 127.522 173.867 127.326 173.867 127.061C173.867 126.806 173.675 126.613 173.292 126.48C172.909 126.344 172.345 126.276 171.6 126.276ZM176.037 130.208H167.185V129.252H176.037V130.208ZM174.93 133.237H169.409V133.957H175.199V134.87H168.238V132.389H173.759V131.744H168.227V130.863H174.93V133.237ZM187.034 128.296H180.331V125.374H181.502V127.34H187.034V128.296ZM188.054 129.918H184.187V130.767H186.969V133.184H181.448V133.946H187.292V134.87H180.245V132.346H185.788V131.669H180.234V130.767H183.016V129.918H179.181V128.951H188.054V129.918ZM196.776 134.967H195.583V129.8H193.918V128.822H195.583V125.245H196.776V134.967ZM193.36 129.649H190.18V131.69C190.979 131.687 191.677 131.665 192.275 131.626C192.876 131.587 193.482 131.511 194.09 131.4L194.187 132.378C193.503 132.5 192.824 132.582 192.151 132.625C191.478 132.668 190.685 132.689 189.772 132.689H188.998V128.683H192.189V127.061H188.966V126.094H193.36V129.649ZM202.166 126.91H204.432V125.675H205.614V129.907H200.984V125.675H202.166V126.91ZM204.432 128.962V127.812H202.166V128.962H204.432ZM208.31 127.211H209.664V128.178H208.31V130.219H207.118V125.245H208.31V127.211ZM208.31 133.151H203.154V133.925H208.611V134.87H201.972V132.281H207.118V131.54H201.962V130.605H208.31V133.151ZM218.192 132.346H216.989V125.256H218.192V132.346ZM218.46 134.763H211.768V131.669H212.971V133.796H218.46V134.763ZM213.723 126.738C213.723 127.197 213.811 127.633 213.986 128.049C214.165 128.464 214.43 128.833 214.781 129.155C215.132 129.474 215.556 129.717 216.054 129.886L215.442 130.831C214.898 130.641 214.429 130.362 214.035 129.993C213.641 129.624 213.335 129.188 213.116 128.683C212.894 129.227 212.581 129.7 212.176 130.101C211.775 130.502 211.295 130.802 210.737 131.003L210.114 130.058C210.626 129.879 211.059 129.619 211.414 129.279C211.772 128.935 212.04 128.545 212.219 128.108C212.398 127.671 212.488 127.215 212.488 126.738V125.793H213.723V126.738ZM223.035 128.006C223.035 128.514 223.132 129.026 223.325 129.542C223.522 130.058 223.803 130.527 224.169 130.949C224.537 131.372 224.969 131.698 225.463 131.927L224.797 132.872C224.263 132.621 223.796 132.254 223.395 131.771C222.994 131.284 222.681 130.727 222.455 130.101C222.23 130.785 221.909 131.391 221.494 131.921C221.078 132.451 220.597 132.847 220.049 133.108L219.351 132.174C219.848 131.938 220.285 131.596 220.661 131.148C221.041 130.7 221.331 130.201 221.531 129.649C221.736 129.098 221.839 128.55 221.843 128.006V127.189H219.727V126.201H225.066V127.189H223.035V128.006ZM227.16 129.026H228.653V130.025H227.16V134.956H225.968V125.245H227.16V129.026ZM239.694 131.014H238.501V128.64H236.847V127.662H238.501V125.245H239.694V131.014ZM236.407 131.261C237.091 131.261 237.682 131.334 238.179 131.481C238.681 131.624 239.064 131.835 239.329 132.115C239.594 132.39 239.726 132.722 239.726 133.108C239.726 133.495 239.594 133.826 239.329 134.102C239.064 134.381 238.681 134.593 238.179 134.736C237.682 134.883 237.091 134.956 236.407 134.956C235.726 134.956 235.137 134.883 234.64 134.736C234.142 134.593 233.761 134.381 233.496 134.102C233.234 133.826 233.105 133.495 233.109 133.108C233.105 132.722 233.234 132.39 233.496 132.115C233.761 131.835 234.142 131.624 234.64 131.481C235.137 131.334 235.726 131.261 236.407 131.261ZM236.407 132.174C235.726 132.174 235.204 132.254 234.838 132.416C234.473 132.573 234.291 132.804 234.291 133.108C234.291 133.409 234.473 133.638 234.838 133.796C235.204 133.953 235.726 134.032 236.407 134.032C237.087 134.032 237.612 133.953 237.98 133.796C238.349 133.638 238.534 133.409 238.534 133.108C238.534 132.804 238.349 132.573 237.98 132.416C237.612 132.254 237.087 132.174 236.407 132.174ZM235.128 126.91C235.128 127.311 235.216 127.701 235.392 128.081C235.567 128.457 235.827 128.795 236.17 129.096C236.514 129.393 236.93 129.624 237.417 129.789L236.815 130.734C236.289 130.555 235.832 130.292 235.445 129.945C235.062 129.594 234.761 129.186 234.543 128.72C234.325 129.247 234.013 129.707 233.608 130.101C233.204 130.491 232.719 130.788 232.153 130.992L231.53 130.047C232.035 129.875 232.466 129.626 232.824 129.3C233.182 128.971 233.453 128.6 233.635 128.188C233.821 127.777 233.915 127.354 233.915 126.921V126.846H231.895V125.879H237.137V126.846H235.128V126.91ZM249.887 133.785H241.014V132.808H244.838V130.917H241.991V125.89H243.184V127.479H247.685V125.89H248.877V130.917H246.02V132.808H249.887V133.785ZM247.685 129.95V128.436H243.184V129.95H247.685ZM259.328 130.552H250.455V129.649H259.328V130.552ZM258.254 133.345H252.689V134.021H258.544V134.849H251.497V132.571H257.072V131.97H251.486V131.132H258.254V133.345ZM258.232 127.651H252.765V128.285H258.404V129.102H251.583V126.878H257.04V126.287H251.551V125.46H258.232V127.651ZM134.514 143.081H135.824V144.069H134.514V146.819H133.321V140.256H134.514V143.081ZM126.736 145.659C127.639 145.659 128.455 145.65 129.186 145.632V145.036C128.641 144.968 128.212 144.811 127.896 144.563C127.581 144.313 127.424 143.998 127.424 143.618C127.424 143.325 127.521 143.069 127.714 142.85C127.907 142.632 128.181 142.465 128.536 142.351C128.89 142.232 129.3 142.175 129.766 142.179C130.235 142.175 130.645 142.232 130.996 142.351C131.35 142.465 131.624 142.632 131.817 142.85C132.011 143.069 132.107 143.325 132.107 143.618C132.107 143.994 131.953 144.306 131.646 144.553C131.338 144.8 130.915 144.959 130.378 145.031V145.584C131.277 145.545 132.09 145.477 132.816 145.38L132.913 146.207C131.993 146.368 131.044 146.474 130.066 146.524C129.092 146.57 128.025 146.594 126.865 146.594L126.736 145.659ZM134.514 149.956H133.321V148.173H127.961V147.238H134.514V149.956ZM132.559 141.899H126.983V141.019H129.186V140.17H130.378V141.019H132.559V141.899ZM129.766 142.984C129.386 142.977 129.091 143.029 128.879 143.14C128.672 143.251 128.57 143.41 128.573 143.618C128.566 143.819 128.67 143.978 128.885 144.096C129.1 144.211 129.393 144.266 129.766 144.263C130.138 144.266 130.432 144.211 130.646 144.096C130.861 143.978 130.969 143.819 130.969 143.618C130.969 143.41 130.863 143.251 130.652 143.14C130.441 143.029 130.145 142.977 129.766 142.984ZM144.363 147.271H143.16V140.256H144.363V147.271ZM144.632 149.763H137.939V146.562H139.142V148.796H144.632V149.763ZM139.067 140.89C139.554 140.89 139.996 140.995 140.394 141.207C140.791 141.414 141.105 141.702 141.334 142.071C141.563 142.44 141.677 142.855 141.677 143.317C141.677 143.786 141.563 144.207 141.334 144.58C141.105 144.948 140.791 145.237 140.394 145.444C139.996 145.652 139.554 145.756 139.067 145.756C138.577 145.756 138.131 145.652 137.73 145.444C137.332 145.237 137.019 144.948 136.79 144.58C136.561 144.207 136.446 143.786 136.446 143.317C136.446 142.855 136.561 142.44 136.79 142.071C137.019 141.702 137.332 141.414 137.73 141.207C138.131 140.995 138.577 140.89 139.067 140.89ZM139.067 141.932C138.791 141.932 138.542 141.989 138.32 142.104C138.098 142.218 137.925 142.381 137.799 142.592C137.674 142.804 137.613 143.045 137.617 143.317C137.613 143.597 137.674 143.842 137.799 144.053C137.925 144.264 138.098 144.427 138.32 144.542C138.542 144.657 138.791 144.714 139.067 144.714C139.336 144.714 139.579 144.657 139.798 144.542C140.016 144.427 140.188 144.264 140.313 144.053C140.442 143.842 140.507 143.597 140.507 143.317C140.507 143.045 140.442 142.804 140.313 142.592C140.188 142.381 140.016 142.218 139.798 142.104C139.579 141.989 139.336 141.932 139.067 141.932ZM153.331 144.112H154.825V145.101H153.331V149.956H152.15V140.245H153.331V144.112ZM151.398 142.694H145.672V141.738H147.971V140.385H149.163V141.738H151.398V142.694ZM148.573 143.328C149.035 143.328 149.45 143.427 149.819 143.624C150.191 143.817 150.483 144.087 150.694 144.435C150.905 144.782 151.011 145.176 151.011 145.616C151.011 146.057 150.905 146.451 150.694 146.798C150.483 147.142 150.191 147.41 149.819 147.604C149.45 147.797 149.035 147.894 148.573 147.894C148.104 147.894 147.683 147.797 147.31 147.604C146.938 147.41 146.646 147.142 146.435 146.798C146.224 146.451 146.12 146.057 146.123 145.616C146.12 145.176 146.224 144.782 146.435 144.435C146.646 144.087 146.938 143.817 147.31 143.624C147.683 143.427 148.104 143.328 148.573 143.328ZM148.573 144.306C148.318 144.306 148.091 144.359 147.89 144.467C147.694 144.574 147.54 144.728 147.429 144.929C147.318 145.126 147.262 145.355 147.262 145.616C147.262 145.878 147.318 146.107 147.429 146.304C147.54 146.497 147.694 146.647 147.89 146.755C148.091 146.859 148.318 146.909 148.573 146.905C148.82 146.909 149.04 146.859 149.233 146.755C149.43 146.647 149.584 146.497 149.695 146.304C149.81 146.107 149.869 145.878 149.872 145.616C149.869 145.355 149.81 145.126 149.695 144.929C149.584 144.732 149.43 144.58 149.233 144.472C149.04 144.361 148.82 144.306 148.573 144.306ZM158.207 142.791C158.207 143.335 158.272 143.863 158.4 144.375C158.533 144.888 158.739 145.357 159.018 145.783C159.297 146.209 159.647 146.554 160.065 146.819L159.41 147.732C158.988 147.478 158.63 147.138 158.336 146.712C158.042 146.282 157.811 145.79 157.643 145.235C157.46 145.84 157.212 146.377 156.897 146.846C156.581 147.315 156.202 147.686 155.758 147.958L155.017 147.066C155.471 146.791 155.851 146.429 156.155 145.981C156.46 145.534 156.685 145.042 156.832 144.504C156.982 143.967 157.058 143.414 157.058 142.845V141.104H158.207V142.791ZM163.557 149.956H162.407V140.245H163.557V149.956ZM161.537 149.483H160.409V144.574H159.023V143.586H160.409V140.417H161.537V149.483ZM173.503 148.774H164.63V147.797H166.681V145.342C166.287 145.113 165.981 144.828 165.763 144.488C165.548 144.148 165.442 143.765 165.446 143.339C165.442 142.834 165.595 142.386 165.903 141.996C166.211 141.606 166.638 141.305 167.186 141.094C167.734 140.879 168.354 140.771 169.045 140.771C169.739 140.771 170.361 140.879 170.908 141.094C171.46 141.305 171.89 141.606 172.197 141.996C172.509 142.383 172.665 142.83 172.665 143.339C172.665 143.754 172.559 144.132 172.348 144.472C172.14 144.809 171.845 145.09 171.462 145.315V147.797H173.503V148.774ZM169.045 141.717C168.561 141.717 168.135 141.783 167.766 141.916C167.401 142.044 167.116 142.231 166.912 142.474C166.712 142.718 166.613 143.006 166.617 143.339C166.613 143.668 166.712 143.955 166.912 144.198C167.116 144.442 167.403 144.63 167.772 144.762C168.141 144.895 168.565 144.961 169.045 144.961C169.524 144.961 169.949 144.895 170.318 144.762C170.69 144.63 170.978 144.442 171.182 144.198C171.39 143.955 171.494 143.668 171.494 143.339C171.494 143.009 171.39 142.723 171.182 142.479C170.978 142.232 170.692 142.044 170.323 141.916C169.954 141.783 169.528 141.717 169.045 141.717ZM170.248 147.797V145.772C169.868 145.854 169.467 145.896 169.045 145.896C168.64 145.896 168.246 145.856 167.863 145.777V147.797H170.248ZM175.263 149.086C175.113 149.086 174.973 149.048 174.844 148.973C174.715 148.898 174.613 148.796 174.538 148.667C174.463 148.538 174.425 148.398 174.425 148.248C174.425 148.101 174.463 147.965 174.538 147.84C174.613 147.711 174.715 147.609 174.844 147.534C174.973 147.458 175.113 147.421 175.263 147.421C175.406 147.421 175.541 147.458 175.666 147.534C175.795 147.609 175.897 147.711 175.972 147.84C176.051 147.965 176.09 148.101 176.09 148.248C176.09 148.398 176.051 148.538 175.972 148.667C175.897 148.796 175.795 148.898 175.666 148.973C175.541 149.048 175.406 149.086 175.263 149.086Z" fill="#3B4044"/>
<rect x="75.5" y="116" width="44" height="44" rx="9.42857" fill="#F3F5F6"/>
<g clip-path="url(#clip3_1300_9388)">
<path d="M97.5 126.083C92.5397 126.083 88.5049 130.119 88.5049 135.079C88.5049 137.648 89.5804 140.058 91.4721 141.758C90.9766 140.575 90.7164 139.285 90.7164 138C90.7164 132.649 95.07 128.295 100.422 128.295C101.706 128.295 102.997 128.555 104.179 129.051C102.479 127.16 100.069 126.083 97.5 126.083Z" fill="#FF19F5"/>
<path d="M109.417 138C109.417 133.04 105.381 129.005 100.421 129.005C97.8524 129.005 95.4423 130.08 93.7422 131.972C94.9249 131.477 96.2149 131.216 97.4999 131.216C102.851 131.216 107.205 135.57 107.205 140.922C107.205 142.206 106.945 143.497 106.449 144.679C108.34 142.979 109.417 140.569 109.417 138Z" fill="#9E4EFF"/>
<path d="M97.5006 149.917C102.461 149.917 106.496 145.881 106.496 140.921C106.496 138.352 105.42 135.942 103.528 134.242C104.024 135.425 104.284 136.715 104.284 138C104.284 143.351 99.9306 147.705 94.579 147.705C93.295 147.705 92.004 147.445 90.8213 146.949C92.5214 148.84 94.9315 149.917 97.5006 149.917Z" fill="#FF19F5"/>
<path d="M85.583 138C85.583 142.96 89.6188 146.995 94.5781 146.995C97.1471 146.995 99.5573 145.92 101.257 144.028C100.075 144.523 98.7847 144.784 97.4997 144.784C92.1481 144.784 87.7945 140.43 87.7945 135.079C87.7945 133.795 88.0547 132.504 88.5503 131.321C86.6595 133.021 85.583 135.431 85.583 138Z" fill="#9E4EFF"/>
</g>
</g>
<g filter="url(#filter3_d_1300_9388)">
<rect x="280" y="16" width="47" height="25" rx="12.5" fill="white" fill-opacity="0.5" shape-rendering="crispEdges"/>
<rect x="280.5" y="16.5" width="46" height="24" rx="12" stroke="#6D35DD" shape-rendering="crispEdges"/>
<g filter="url(#filter4_d_1300_9388)">
<path d="M294.818 33H293.041V23.1016H294.818V33ZM305.496 28.0508C305.496 29.0944 305.3 29.999 304.908 30.7646C304.516 31.5303 303.976 32.1182 303.288 32.5283C302.604 32.9339 301.827 33.1367 300.957 33.1367C300.087 33.1367 299.307 32.9339 298.619 32.5283C297.936 32.1182 297.398 31.5303 297.006 30.7646C296.614 29.9945 296.418 29.0898 296.418 28.0508C296.418 27.0072 296.614 26.1025 297.006 25.3369C297.398 24.5713 297.936 23.9857 298.619 23.5801C299.307 23.1699 300.087 22.9648 300.957 22.9648C301.827 22.9648 302.604 23.1699 303.288 23.5801C303.976 23.9857 304.516 24.5713 304.908 25.3369C305.3 26.1025 305.496 27.0072 305.496 28.0508ZM303.705 28.0508C303.705 27.3125 303.589 26.6836 303.356 26.1641C303.129 25.64 302.807 25.2435 302.393 24.9746C301.978 24.7012 301.499 24.5645 300.957 24.5645C300.415 24.5645 299.936 24.7012 299.521 24.9746C299.107 25.2435 298.783 25.64 298.551 26.1641C298.323 26.6836 298.209 27.3125 298.209 28.0508C298.209 28.7891 298.323 29.4202 298.551 29.9443C298.783 30.4639 299.107 30.8604 299.521 31.1338C299.936 31.4027 300.415 31.5371 300.957 31.5371C301.499 31.5371 301.978 31.4027 302.393 31.1338C302.807 30.8604 303.129 30.4639 303.356 29.9443C303.589 29.4202 303.705 28.7891 303.705 28.0508ZM312.469 25.8223C312.428 25.403 312.239 25.0749 311.901 24.8379C311.569 24.6009 311.133 24.4824 310.596 24.4824C310.231 24.4824 309.912 24.5371 309.639 24.6465C309.365 24.7559 309.156 24.9085 309.01 25.1045C308.864 25.3005 308.791 25.5215 308.791 25.7676C308.791 26.1458 308.948 26.4398 309.263 26.6494C309.577 26.8545 309.985 27.0163 310.486 27.1348L311.416 27.3809C312.268 27.5768 312.963 27.9027 313.501 28.3584C314.043 28.8096 314.314 29.4316 314.314 30.2246C314.314 30.8034 314.166 31.3138 313.87 31.7559C313.574 32.1979 313.143 32.542 312.578 32.7881C312.018 33.0296 311.348 33.1504 310.568 33.1504C309.798 33.1504 309.131 33.0319 308.565 32.7949C308 32.5534 307.558 32.2048 307.239 31.749C306.925 31.2887 306.754 30.735 306.727 30.0879H308.477C308.518 30.5892 308.727 30.972 309.105 31.2363C309.488 31.5007 309.971 31.6328 310.555 31.6328C310.942 31.6328 311.286 31.5736 311.587 31.4551C311.888 31.3366 312.12 31.1702 312.284 30.9561C312.453 30.7373 312.537 30.4889 312.537 30.2109C312.537 29.8509 312.387 29.5706 312.086 29.3701C311.79 29.165 311.343 28.985 310.746 28.8301L309.625 28.543C307.866 28.0827 306.986 27.194 306.986 25.877C306.986 25.3027 307.144 24.7969 307.458 24.3594C307.772 23.9173 308.205 23.5755 308.757 23.334C309.313 23.0879 309.935 22.9648 310.623 22.9648C311.316 22.9648 311.929 23.0879 312.462 23.334C313 23.5755 313.417 23.9128 313.713 24.3457C314.014 24.7786 314.169 25.2708 314.178 25.8223H312.469Z" fill="#6D35DD"/>
</g>
</g>
</g>
<defs>
<filter id="filter0_d_1300_9388" x="87.5" y="67" width="168" height="62" filterUnits="userSpaceOnUse" color-interpolation-filters="sRGB">
<feFlood flood-opacity="0" result="BackgroundImageFix"/>
<feColorMatrix in="SourceAlpha" type="matrix" values="0 0 0 0 0 0 0 0 0 0 0 0 0 0 0 0 0 0 127 0" result="hardAlpha"/>
<feOffset dy="10"/>
<feGaussianBlur stdDeviation="8"/>
<feColorMatrix type="matrix" values="0 0 0 0 0 0 0 0 0 0 0 0 0 0 0 0 0 0 0.12 0"/>
<feBlend mode="normal" in2="BackgroundImageFix" result="effect1_dropShadow_1300_9388"/>
<feBlend mode="normal" in="SourceGraphic" in2="effect1_dropShadow_1300_9388" result="shape"/>
</filter>
<filter id="filter1_d_1300_9388" x="49.7" y="100.7" width="243.6" height="95.6" filterUnits="userSpaceOnUse" color-interpolation-filters="sRGB">
<feFlood flood-opacity="0" result="BackgroundImageFix"/>
<feColorMatrix in="SourceAlpha" type="matrix" values="0 0 0 0 0 0 0 0 0 0 0 0 0 0 0 0 0 0 127 0" result="hardAlpha"/>
<feOffset dy="10.5"/>
<feGaussianBlur stdDeviation="8.4"/>
<feColorMatrix type="matrix" values="0 0 0 0 0 0 0 0 0 0 0 0 0 0 0 0 0 0 0.12 0"/>
<feBlend mode="normal" in2="BackgroundImageFix" result="effect1_dropShadow_1300_9388"/>
<feBlend mode="normal" in="SourceGraphic" in2="effect1_dropShadow_1300_9388" result="shape"/>
</filter>
<filter id="filter2_d_1300_9388" x="42.0542" y="97.8328" width="258.892" height="110.892" filterUnits="userSpaceOnUse" color-interpolation-filters="sRGB">
<feFlood flood-opacity="0" result="BackgroundImageFix"/>
<feColorMatrix in="SourceAlpha" type="matrix" values="0 0 0 0 0 0 0 0 0 0 0 0 0 0 0 0 0 0 127 0" result="hardAlpha"/>
<feOffset dy="15.2786"/>
<feGaussianBlur stdDeviation="12.2229"/>
<feColorMatrix type="matrix" values="0 0 0 0 0 0 0 0 0 0 0 0 0 0 0 0 0 0 0.1 0"/>
<feBlend mode="normal" in2="BackgroundImageFix" result="effect1_dropShadow_1300_9388"/>
<feBlend mode="normal" in="SourceGraphic" in2="effect1_dropShadow_1300_9388" result="shape"/>
</filter>
<filter id="filter3_d_1300_9388" x="267" y="7" width="73" height="51" filterUnits="userSpaceOnUse" color-interpolation-filters="sRGB">
<feFlood flood-opacity="0" result="BackgroundImageFix"/>
<feColorMatrix in="SourceAlpha" type="matrix" values="0 0 0 0 0 0 0 0 0 0 0 0 0 0 0 0 0 0 127 0" result="hardAlpha"/>
<feOffset dy="4"/>
<feGaussianBlur stdDeviation="6.5"/>
<feComposite in2="hardAlpha" operator="out"/>
<feColorMatrix type="matrix" values="0 0 0 0 0.75045 0 0 0 0 0.663507 0 0 0 0 0.820833 0 0 0 1 0"/>
<feBlend mode="normal" in2="BackgroundImageFix" result="effect1_dropShadow_1300_9388"/>
<feBlend mode="normal" in="SourceGraphic" in2="effect1_dropShadow_1300_9388" result="shape"/>
</filter>
<filter id="filter4_d_1300_9388" x="293.041" y="22.9648" width="21.2734" height="11.1855" filterUnits="userSpaceOnUse" color-interpolation-filters="sRGB">
<feFlood flood-opacity="0" result="BackgroundImageFix"/>
<feColorMatrix in="SourceAlpha" type="matrix" values="0 0 0 0 0 0 0 0 0 0 0 0 0 0 0 0 0 0 127 0" result="hardAlpha"/>
<feOffset dy="1"/>
<feComposite in2="hardAlpha" operator="out"/>
<feColorMatrix type="matrix" values="0 0 0 0 1 0 0 0 0 1 0 0 0 0 1 0 0 0 1 0"/>
<feBlend mode="normal" in2="BackgroundImageFix" result="effect1_dropShadow_1300_9388"/>
<feBlend mode="normal" in="SourceGraphic" in2="effect1_dropShadow_1300_9388" result="shape"/>
</filter>
<linearGradient id="paint0_linear_1300_9388" x1="347.872" y1="177.727" x2="59.516" y2="-25.4069" gradientUnits="userSpaceOnUse">
<stop stop-color="#DBB3F9"/>
<stop offset="1" stop-color="#D3E7FF"/>
</linearGradient>
<linearGradient id="paint1_linear_1300_9388" x1="171.5" y1="57" x2="171.5" y2="260" gradientUnits="userSpaceOnUse">
<stop stop-color="#E99FEF"/>
<stop offset="1" stop-color="#6631B3"/>
</linearGradient>
<linearGradient id="paint2_linear_1300_9388" x1="171.5" y1="57" x2="171.5" y2="260" gradientUnits="userSpaceOnUse">
<stop stop-color="#E99FEF"/>
<stop offset="1" stop-color="#6631B3"/>
</linearGradient>
<clipPath id="clip0_1300_9388">
<rect width="343" height="230" rx="12" fill="white"/>
</clipPath>
<clipPath id="clip1_1300_9388">
<rect x="97.5" y="57" width="148" height="280" rx="19.2" fill="white"/>
</clipPath>
<clipPath id="clip2_1300_9388">
<rect width="129.888" height="176.064" fill="white" transform="translate(106.557 77.9678)"/>
</clipPath>
<clipPath id="clip3_1300_9388">
<rect width="23.8333" height="23.8333" fill="white" transform="translate(85.583 126.083)"/>
</clipPath>
</defs>
</svg>
