<svg width="343" height="230" viewBox="0 0 343 230" fill="none" xmlns="http://www.w3.org/2000/svg">
<g clip-path="url(#clip0_1300_8507)">
<path d="M0 12C0 5.37258 5.37258 0 12 0H331C337.627 0 343 5.37258 343 12V230H0V12Z" fill="#F3F5F6"/>
<path d="M0 12C0 5.37258 5.37258 0 12 0H331C337.627 0 343 5.37258 343 12V230H0V12Z" fill="#FDFCFF"/>
<path d="M0 12C0 5.37258 5.37258 0 12 0H331C337.627 0 343 5.37258 343 12V230H0V12Z" fill="url(#paint0_linear_1300_8507)" fill-opacity="0.6"/>
<path d="M0 12C0 5.37258 5.37258 0 12 0H331C337.627 0 343 5.37258 343 12V230H0V12Z" fill="white" fill-opacity="0.1"/>
<g clip-path="url(#clip1_1300_8507)">
<rect x="97.5" y="30" width="148" height="280" rx="20" fill="white"/>
<g clip-path="url(#clip2_1300_8507)">
<rect width="148" height="320.469" transform="translate(97.5 29.7651)" fill="url(#paint1_linear_1300_8507)"/>
<rect width="148" height="320.469" transform="translate(97.5 29.7651)" fill="url(#paint2_linear_1300_8507)"/>
<g clip-path="url(#clip3_1300_8507)">
<path d="M137.559 29.7651H205.441C204.133 29.7651 203.073 30.8253 203.073 32.1331V32.4146C203.073 33.3994 203.073 33.8917 203.034 34.3066C202.635 38.5754 199.254 41.9559 194.985 42.3556C194.57 42.3945 194.078 42.3945 193.093 42.3945H149.906C148.922 42.3945 148.429 42.3945 148.014 42.3556C143.746 41.9559 140.365 38.5754 139.965 34.3066C139.927 33.8917 139.927 33.3994 139.927 32.4146V32.1331C139.927 30.8253 138.866 29.7651 137.559 29.7651Z" fill="black"/>
<rect x="107.503" y="35.2905" width="21.312" height="9.57867" rx="4.78933" fill="#30D158"/>
<path d="M114.021 37.8048C114.911 37.8048 115.686 38.4379 115.686 39.941V39.9468C115.686 41.3516 115.053 42.1841 114.004 42.1841C113.238 42.1841 112.665 41.7303 112.532 41.0915L112.527 41.0597H113.261L113.269 41.0886C113.379 41.3805 113.637 41.5713 114.004 41.5713C114.666 41.5713 114.946 40.9238 114.978 40.126C114.978 40.0942 114.981 40.0624 114.981 40.0306H114.923C114.77 40.3602 114.405 40.6521 113.833 40.6521C113.032 40.6521 112.472 40.0682 112.472 39.2762V39.2704C112.472 38.4234 113.116 37.8048 114.021 37.8048ZM114.018 40.0798C114.489 40.0798 114.851 39.7387 114.851 39.2675V39.2617C114.851 38.7848 114.489 38.4119 114.027 38.4119C113.567 38.4119 113.2 38.779 113.2 39.2444V39.2502C113.2 39.7329 113.544 40.0798 114.018 40.0798ZM116.801 39.3773C116.538 39.3773 116.341 39.175 116.341 38.9206C116.341 38.6634 116.538 38.4639 116.801 38.4639C117.067 38.4639 117.261 38.6634 117.261 38.9206C117.261 39.175 117.067 39.3773 116.801 39.3773ZM116.801 41.5222C116.538 41.5222 116.341 41.3227 116.341 41.0655C116.341 40.8082 116.538 40.6087 116.801 40.6087C117.067 40.6087 117.261 40.8082 117.261 41.0655C117.261 41.3227 117.067 41.5222 116.801 41.5222ZM119.939 42.0801V41.2794H117.899V40.6695C118.439 39.73 119.032 38.7703 119.598 37.9089H120.653V40.6637H121.214V41.2794H120.653V42.0801H119.939ZM118.592 40.681H119.951V38.5044H119.908C119.48 39.1577 118.997 39.9295 118.592 40.6377V40.681ZM122.745 42.0801V38.6431H122.696L121.659 39.3773V38.6749L122.748 37.9089H123.491V42.0801H122.745Z" fill="white"/>
<path opacity="0.35" d="M225.049 38.8428C225.049 38.0859 225.663 37.4724 226.419 37.4724H233.129C233.886 37.4724 234.499 38.0859 234.499 38.8428V40.8162C234.499 41.573 233.886 42.1866 233.129 42.1866H226.419C225.663 42.1866 225.049 41.573 225.049 40.8162V38.8428Z" stroke="white" stroke-width="0.416407"/>
<path opacity="0.4" d="M235.103 39.2378V40.9034C235.438 40.7624 235.656 40.4342 235.656 40.0706C235.656 39.707 235.438 39.3789 235.103 39.2378Z" fill="white"/>
<path d="M225.631 38.843C225.631 38.4071 225.984 38.0537 226.42 38.0537H230.762C231.197 38.0537 231.551 38.4071 231.551 38.843V40.8164C231.551 41.2523 231.197 41.6057 230.762 41.6057H226.42C225.984 41.6057 225.631 41.2523 225.631 40.8164V38.843Z" fill="white"/>
<path fill-rule="evenodd" clip-rule="evenodd" d="M218.723 38.6799C219.696 38.6799 220.633 39.0618 221.338 39.7464C221.391 39.7993 221.476 39.7986 221.529 39.7449L222.036 39.2217C222.063 39.1945 222.078 39.1576 222.077 39.1193C222.077 39.0809 222.062 39.0442 222.035 39.0173C220.184 37.2058 217.262 37.2058 215.41 39.0173C215.384 39.0442 215.368 39.0809 215.368 39.1192C215.368 39.1576 215.383 39.1945 215.409 39.2217L215.917 39.7449C215.969 39.7987 216.054 39.7993 216.107 39.7464C216.813 39.0617 217.749 38.6799 218.723 38.6799ZM218.737 40.2593C219.272 40.2593 219.788 40.4622 220.184 40.8286C220.238 40.8807 220.322 40.8795 220.374 40.8261L220.882 40.3029C220.908 40.2755 220.923 40.2383 220.923 40.1996C220.922 40.1609 220.907 40.124 220.88 40.0971C219.672 38.9508 217.803 38.9508 216.595 40.0971C216.568 40.124 216.553 40.1609 216.552 40.1996C216.552 40.2383 216.567 40.2755 216.593 40.3029L217.101 40.8261C217.153 40.8795 217.237 40.8807 217.291 40.8286C217.687 40.4624 218.203 40.2595 218.737 40.2593ZM219.769 41.2804C219.769 41.3192 219.754 41.3566 219.727 41.3838L218.85 42.2877C218.824 42.3142 218.789 42.3292 218.752 42.3292C218.716 42.3292 218.681 42.3142 218.655 42.2877L217.777 41.3838C217.75 41.3566 217.735 41.3192 217.736 41.2804C217.737 41.2416 217.753 41.2049 217.782 41.1789C218.342 40.6951 219.163 40.6951 219.723 41.1789C219.751 41.2049 219.768 41.2416 219.769 41.2804Z" fill="white"/>
<path d="M209.054 38.8427C209.054 38.6247 209.231 38.448 209.449 38.448H209.843C210.061 38.448 210.238 38.6247 210.238 38.8427V42C210.238 42.218 210.061 42.3947 209.843 42.3947H209.449C209.231 42.3947 209.054 42.218 209.054 42V38.8427Z" fill="white"/>
<path d="M211.027 38.0534C211.027 37.8354 211.204 37.6587 211.422 37.6587H211.817C212.035 37.6587 212.211 37.8354 212.211 38.0534V42C212.211 42.218 212.035 42.3947 211.817 42.3947H211.422C211.204 42.3947 211.027 42.218 211.027 42V38.0534Z" fill="white"/>
<path d="M207.081 40.224C207.081 40.0061 207.257 39.8294 207.475 39.8294H207.87C208.088 39.8294 208.265 40.0061 208.265 40.224V42C208.265 42.218 208.088 42.3947 207.87 42.3947H207.475C207.257 42.3947 207.081 42.218 207.081 42V40.224Z" fill="white"/>
<path d="M205.107 41.2107C205.107 40.9927 205.284 40.816 205.502 40.816H205.897C206.115 40.816 206.291 40.9927 206.291 41.2107V42C206.291 42.218 206.115 42.3947 205.897 42.3947H205.502C205.284 42.3947 205.107 42.218 205.107 42V41.2107Z" fill="white"/>
</g>
<path d="M114.66 61.8239C114.195 61.8239 113.794 61.7121 113.458 61.4886C113.124 61.2624 112.867 60.9348 112.687 60.5057C112.507 60.0766 112.417 59.5602 112.417 58.9564C112.417 58.3525 112.507 57.8361 112.687 57.407C112.867 56.9779 113.124 56.6516 113.458 56.428C113.794 56.2019 114.195 56.0889 114.66 56.0889C115.123 56.0889 115.522 56.2019 115.859 56.428C116.195 56.6516 116.454 56.9792 116.633 57.4108C116.813 57.8399 116.903 58.3551 116.903 58.9564C116.903 59.5628 116.813 60.0805 116.633 60.5096C116.454 60.9387 116.195 61.265 115.859 61.4886C115.525 61.7121 115.125 61.8239 114.66 61.8239ZM114.66 60.868C114.876 60.868 115.062 60.7987 115.219 60.6599C115.378 60.5212 115.5 60.3117 115.585 60.0317C115.672 59.7516 115.716 59.406 115.716 58.9949C115.716 58.3551 115.624 57.8695 115.439 57.538C115.254 57.204 114.994 57.037 114.66 57.037C114.326 57.037 114.067 57.204 113.882 57.538C113.697 57.8695 113.604 58.3551 113.604 58.9949C113.604 59.406 113.646 59.7516 113.731 60.0317C113.819 60.3117 113.941 60.5212 114.097 60.6599C114.257 60.7987 114.444 60.868 114.66 60.868Z" fill="white"/>
<path d="M111.199 61.7468H110.035V57.2683H110.004L108.725 58.07V57.0448L110.104 56.166H111.199V61.7468Z" fill="white"/>
<path d="M105.749 61.8239C105.284 61.8239 104.883 61.7121 104.546 61.4886C104.212 61.2624 103.956 60.9348 103.776 60.5057C103.596 60.0766 103.506 59.5602 103.506 58.9564C103.506 58.3525 103.596 57.8361 103.776 57.407C103.956 56.9779 104.212 56.6516 104.546 56.428C104.883 56.2019 105.284 56.0889 105.749 56.0889C106.211 56.0889 106.611 56.2019 106.948 56.428C107.284 56.6516 107.542 56.9792 107.722 57.4108C107.902 57.8399 107.992 58.3551 107.992 58.9564C107.992 59.5628 107.902 60.0805 107.722 60.5096C107.542 60.9387 107.284 61.265 106.948 61.4886C106.614 61.7121 106.214 61.8239 105.749 61.8239ZM105.749 60.868C105.965 60.868 106.151 60.7987 106.308 60.6599C106.467 60.5212 106.589 60.3117 106.674 60.0317C106.761 59.7516 106.805 59.406 106.805 58.9949C106.805 58.3551 106.713 57.8695 106.528 57.538C106.343 57.204 106.083 57.037 105.749 57.037C105.415 57.037 105.155 57.204 104.97 57.538C104.785 57.8695 104.693 58.3551 104.693 58.9949C104.693 59.406 104.735 59.7516 104.82 60.0317C104.907 60.3117 105.03 60.5212 105.186 60.6599C105.346 60.7987 105.533 60.868 105.749 60.868Z" fill="white"/>
<rect x="118.903" y="58.4561" width="3" height="1" fill="white"/>
<rect x="124.362" y="56.6644" width="4.58333" height="4.58333" stroke="white" stroke-width="0.916667"/>
<rect x="131.362" y="56.6644" width="4.58333" height="4.58333" stroke="white" stroke-width="0.916667"/>
<rect x="138.362" y="56.6644" width="4.58333" height="4.58333" stroke="white" stroke-width="0.916667"/>
<rect x="145.362" y="56.6644" width="4.58333" height="4.58333" stroke="white" stroke-width="0.916667"/>
<rect x="152.403" y="58.4561" width="3" height="1" fill="white"/>
<path d="M183.164 56.0396L186.619 61.7396H179.718L183.164 56.0396ZM185.114 60.8946L183.164 57.6702L181.23 60.8946H185.114Z" fill="white"/>
<path d="M175.493 56.0396L178.947 61.7396H172.046L175.493 56.0396ZM177.442 60.8946L175.493 57.6702L173.558 60.8946H177.442Z" fill="white"/>
<path d="M167.821 56.0396L171.275 61.7396H164.374L167.821 56.0396ZM169.77 60.8946L167.821 57.6702L165.886 60.8946H169.77Z" fill="white"/>
<path d="M160.149 56.0396L163.603 61.7396H156.702L160.149 56.0396ZM162.098 60.8946L160.149 57.6702L158.214 60.8946H162.098Z" fill="white"/>
<path opacity="0.6" d="M105.276 69.8861C105.018 69.8861 104.797 69.819 104.612 69.6849C104.429 69.5508 104.289 69.355 104.191 69.0975C104.094 68.8385 104.046 68.5279 104.046 68.1656C104.046 67.8064 104.094 67.4981 104.191 67.2406C104.29 66.9816 104.432 66.7843 104.617 66.6486C104.802 66.5129 105.022 66.4451 105.276 66.4451C105.53 66.4451 105.75 66.5129 105.935 66.6486C106.12 66.7843 106.261 66.9816 106.358 67.2406C106.457 67.4981 106.506 67.8064 106.506 68.1656C106.506 68.5279 106.458 68.8378 106.361 69.0952C106.263 69.3527 106.122 69.5492 105.937 69.6849C105.752 69.819 105.532 69.8861 105.276 69.8861ZM105.276 69.4467C105.427 69.4467 105.557 69.3982 105.664 69.301C105.772 69.2024 105.855 69.0574 105.912 68.8663C105.969 68.6751 105.997 68.4416 105.997 68.1656C105.997 67.8912 105.968 67.6576 105.91 67.4649C105.853 67.2707 105.77 67.1242 105.662 67.0255C105.554 66.9253 105.425 66.8752 105.276 66.8752C105.126 66.8752 104.998 66.9253 104.89 67.0255C104.782 67.1242 104.699 67.2707 104.64 67.4649C104.583 67.6576 104.554 67.8912 104.554 68.1656C104.554 68.4416 104.583 68.6751 104.64 68.8663C104.697 69.0574 104.78 69.2024 104.887 69.301C104.995 69.3982 105.125 69.4467 105.276 69.4467ZM108.175 69.8861C107.918 69.8861 107.697 69.819 107.512 69.6849C107.328 69.5508 107.188 69.355 107.091 69.0975C106.994 68.8385 106.945 68.5279 106.945 68.1656C106.945 67.8064 106.994 67.4981 107.091 67.2406C107.189 66.9816 107.331 66.7843 107.516 66.6486C107.701 66.5129 107.921 66.4451 108.175 66.4451C108.43 66.4451 108.649 66.5129 108.834 66.6486C109.019 66.7843 109.16 66.9816 109.258 67.2406C109.356 67.4981 109.406 67.8064 109.406 68.1656C109.406 68.5279 109.357 68.8378 109.26 69.0952C109.163 69.3527 109.022 69.5492 108.837 69.6849C108.652 69.819 108.431 69.8861 108.175 69.8861ZM108.175 69.4467C108.326 69.4467 108.456 69.3982 108.564 69.301C108.672 69.2024 108.754 69.0574 108.811 68.8663C108.868 68.6751 108.897 68.4416 108.897 68.1656C108.897 67.8912 108.867 67.6576 108.809 67.4649C108.752 67.2707 108.669 67.1242 108.561 67.0255C108.454 66.9253 108.325 66.8752 108.175 66.8752C108.026 66.8752 107.897 66.9253 107.789 67.0255C107.681 67.1242 107.598 67.2707 107.539 67.4649C107.482 67.6576 107.454 67.8912 107.454 68.1656C107.454 68.4416 107.482 68.6751 107.539 68.8663C107.596 69.0574 107.679 69.2024 107.787 69.301C107.895 69.3982 108.024 69.4467 108.175 69.4467ZM110.237 69.4097C110.179 69.4097 110.123 69.3951 110.071 69.3658C110.02 69.3365 109.98 69.2964 109.951 69.2455C109.921 69.1947 109.908 69.1399 109.909 69.0813C109.908 69.0228 109.921 68.968 109.951 68.9172C109.98 68.8663 110.02 68.8262 110.071 68.7969C110.123 68.7676 110.179 68.753 110.237 68.753C110.295 68.753 110.348 68.7676 110.399 68.7969C110.45 68.8262 110.49 68.8663 110.52 68.9172C110.55 68.968 110.566 69.0228 110.566 69.0813C110.566 69.1399 110.55 69.1947 110.52 69.2455C110.49 69.2964 110.45 69.3365 110.399 69.3658C110.348 69.3951 110.295 69.4097 110.237 69.4097ZM110.237 67.5828C110.179 67.5828 110.123 67.5682 110.071 67.5389C110.02 67.5096 109.98 67.4695 109.951 67.4187C109.921 67.3678 109.908 67.3131 109.909 67.2545C109.908 67.1959 109.921 67.1412 109.951 67.0903C109.98 67.0394 110.02 66.9993 110.071 66.97C110.123 66.9407 110.179 66.9261 110.237 66.9261C110.295 66.9261 110.348 66.9407 110.399 66.97C110.45 66.9993 110.49 67.0394 110.52 67.0903C110.55 67.1412 110.566 67.1959 110.566 67.2545C110.566 67.3131 110.55 67.3678 110.52 67.4187C110.49 67.4695 110.45 67.5096 110.399 67.5389C110.348 67.5682 110.295 67.5828 110.237 67.5828ZM112.3 69.8861C112.042 69.8861 111.821 69.819 111.636 69.6849C111.453 69.5508 111.312 69.355 111.215 69.0975C111.118 68.8385 111.069 68.5279 111.069 68.1656C111.069 67.8064 111.118 67.4981 111.215 67.2406C111.314 66.9816 111.456 66.7843 111.641 66.6486C111.826 66.5129 112.045 66.4451 112.3 66.4451C112.554 66.4451 112.774 66.5129 112.959 66.6486C113.144 66.7843 113.285 66.9816 113.382 67.2406C113.481 67.4981 113.53 67.8064 113.53 68.1656C113.53 68.5279 113.481 68.8378 113.384 69.0952C113.287 69.3527 113.146 69.5492 112.961 69.6849C112.776 69.819 112.556 69.8861 112.3 69.8861ZM112.3 69.4467C112.451 69.4467 112.58 69.3982 112.688 69.301C112.796 69.2024 112.879 69.0574 112.936 68.8663C112.993 68.6751 113.021 68.4416 113.021 68.1656C113.021 67.8912 112.992 67.6576 112.933 67.4649C112.876 67.2707 112.794 67.1242 112.686 67.0255C112.578 66.9253 112.449 66.8752 112.3 66.8752C112.15 66.8752 112.021 66.9253 111.913 67.0255C111.806 67.1242 111.722 67.2707 111.664 67.4649C111.607 67.6576 111.578 67.8912 111.578 68.1656C111.578 68.4416 111.607 68.6751 111.664 68.8663C111.721 69.0574 111.803 69.2024 111.911 69.301C112.019 69.3982 112.149 69.4467 112.3 69.4467ZM115.171 69.8861C114.963 69.8861 114.774 69.8468 114.605 69.7682C114.435 69.688 114.3 69.5785 114.2 69.4398C114.1 69.2995 114.046 69.1415 114.038 68.9657H114.533C114.542 69.0598 114.576 69.1446 114.635 69.2201C114.693 69.2956 114.77 69.355 114.864 69.3982C114.958 69.4398 115.06 69.4606 115.171 69.4606C115.305 69.4606 115.425 69.4305 115.53 69.3704C115.636 69.3103 115.719 69.2278 115.779 69.123C115.84 69.0166 115.87 68.8979 115.87 68.7668C115.87 68.6327 115.839 68.5125 115.777 68.4061C115.715 68.2982 115.63 68.2142 115.52 68.154C115.411 68.0924 115.287 68.0608 115.148 68.0592C114.866 68.0592 114.67 68.1579 114.561 68.3552H114.08L114.297 66.4913H116.193V66.9261H114.718L114.607 67.865H114.639C114.71 67.7971 114.801 67.7424 114.912 67.7008C115.025 67.6592 115.143 67.6383 115.268 67.6383C115.475 67.6383 115.661 67.6861 115.828 67.7817C115.996 67.8773 116.127 68.0099 116.221 68.1795C116.317 68.3491 116.364 68.5402 116.364 68.753C116.364 68.9703 116.314 69.1654 116.212 69.338C116.11 69.5107 115.968 69.6456 115.786 69.7427C115.606 69.8383 115.401 69.8861 115.171 69.8861Z" fill="white"/>
<path fill-rule="evenodd" clip-rule="evenodd" d="M232.766 60.3675C232.766 60.8034 232.413 61.1568 231.977 61.1568C231.541 61.1568 231.188 60.8034 231.188 60.3675C231.188 59.9315 231.541 59.5781 231.977 59.5781C232.413 59.5781 232.766 59.9315 232.766 60.3675ZM232.766 62.7355C232.766 63.1714 232.413 63.5248 231.977 63.5248C231.541 63.5248 231.188 63.1714 231.188 62.7355C231.188 62.2995 231.541 61.9461 231.977 61.9461C232.413 61.9461 232.766 62.2995 232.766 62.7355ZM231.977 65.8928C232.413 65.8928 232.766 65.5394 232.766 65.1035C232.766 64.6675 232.413 64.3141 231.977 64.3141C231.541 64.3141 231.188 64.6675 231.188 65.1035C231.188 65.5394 231.541 65.8928 231.977 65.8928Z" fill="white"/>
<path opacity="0.05" d="M97.5 76.9707H245.5V77.3654H97.5V76.9707Z" fill="white"/>
</g>
</g>
<rect x="94.8" y="27.3" width="153.4" height="285.4" rx="22.7" stroke="black" stroke-width="5.4"/>
<g filter="url(#filter0_d_1300_8507)">
<g clip-path="url(#clip4_1300_8507)">
<rect width="230" height="491" transform="translate(57 -274)" fill="url(#paint3_linear_1300_8507)"/>
<rect width="230" height="491" transform="translate(57 -274)" fill="url(#paint4_linear_1300_8507)"/>
<path opacity="0.7" d="M93.5428 140.113H87.606V139.48H90.1719V138.999H88.3678V136.275H92.8313V136.893H89.1657V137.338H92.6732V137.928H89.1657V138.388H92.8816V138.999H90.9697V139.48H93.5428V140.113ZM90.5744 140.472C91.0488 140.472 91.4537 140.514 91.7891 140.598C92.1245 140.679 92.3797 140.799 92.5546 140.957C92.7318 141.113 92.8217 141.304 92.8241 141.529C92.8217 141.876 92.6252 142.14 92.2347 142.319C91.8466 142.501 91.2932 142.592 90.5744 142.592C89.8437 142.592 89.283 142.501 88.8925 142.319C88.5044 142.14 88.3103 141.876 88.3103 141.529C88.3103 141.304 88.3978 141.113 88.5727 140.957C88.75 140.799 89.0075 140.679 89.3453 140.598C89.6832 140.514 90.0928 140.472 90.5744 140.472ZM90.5744 141.069C89.5969 141.069 89.1082 141.222 89.1082 141.529C89.1082 141.687 89.2291 141.804 89.4711 141.881C89.7155 141.958 90.0833 141.996 90.5744 141.996C91.0584 141.996 91.4201 141.958 91.6597 141.881C91.9017 141.804 92.0239 141.687 92.0263 141.529C92.0191 141.222 91.5351 141.069 90.5744 141.069ZM99.1203 138.783H100.033V139.452H99.1203V142.6H98.3153V136.102H99.1203V138.783ZM93.9022 140.796C94.6114 140.796 95.1648 140.791 95.5625 140.781V140.174C95.3277 140.133 95.1217 140.059 94.9444 139.951C94.7695 139.843 94.6341 139.708 94.5383 139.545C94.4425 139.38 94.3958 139.198 94.3982 138.999C94.3958 138.757 94.4604 138.544 94.5922 138.359C94.724 138.175 94.9097 138.032 95.1492 137.931C95.3888 137.828 95.6632 137.777 95.9722 137.777C96.2765 137.777 96.5472 137.828 96.7844 137.931C97.024 138.032 97.2109 138.175 97.345 138.359C97.4816 138.544 97.5511 138.757 97.5535 138.999C97.5511 139.2 97.5008 139.382 97.4025 139.545C97.3043 139.708 97.1653 139.844 96.9857 139.955C96.8084 140.062 96.6023 140.136 96.3675 140.174V140.752C96.988 140.719 97.5223 140.671 97.9703 140.609L98.0207 141.191C97.4025 141.301 96.77 141.373 96.1232 141.407C95.4763 141.44 94.7743 141.457 94.0172 141.457L93.9022 140.796ZM97.8985 137.482H94.0244V136.85H95.5625V136.131H96.3675V136.85H97.8985V137.482ZM95.9722 138.388C95.7207 138.393 95.5206 138.449 95.3721 138.557C95.2259 138.662 95.1528 138.809 95.1528 138.999C95.1528 139.186 95.2271 139.332 95.3757 139.437C95.5242 139.543 95.723 139.593 95.9722 139.588C96.219 139.593 96.4154 139.543 96.5616 139.437C96.7101 139.329 96.7844 139.183 96.7844 138.999C96.7844 138.812 96.7101 138.664 96.5616 138.557C96.4154 138.449 96.219 138.393 95.9722 138.388ZM107.35 138.431H105.445V139.186H108.018V139.825H102.089V139.186H104.648V138.431H102.851V136.217H103.641V137.791H107.35V138.431ZM107.285 142.6H106.488V141.026H102.764V140.379H107.285V142.6ZM111.404 136.232C111.881 136.232 112.294 136.282 112.644 136.382C112.996 136.483 113.267 136.629 113.456 136.821C113.647 137.01 113.745 137.235 113.747 137.497C113.745 137.753 113.647 137.974 113.456 138.161C113.267 138.348 112.996 138.491 112.644 138.589C112.294 138.687 111.881 138.735 111.404 138.733C110.932 138.735 110.519 138.687 110.164 138.589C109.812 138.491 109.54 138.348 109.348 138.161C109.156 137.974 109.061 137.753 109.061 137.497C109.061 137.235 109.156 137.01 109.348 136.821C109.54 136.629 109.812 136.483 110.164 136.382C110.519 136.282 110.932 136.232 111.404 136.232ZM111.404 136.857C110.925 136.857 110.552 136.912 110.286 137.022C110.023 137.132 109.892 137.29 109.894 137.497C109.892 137.693 110.023 137.844 110.286 137.949C110.552 138.055 110.925 138.11 111.404 138.115C111.883 138.11 112.255 138.055 112.521 137.949C112.787 137.844 112.92 137.693 112.92 137.497C112.92 137.29 112.787 137.132 112.521 137.022C112.255 136.912 111.883 136.857 111.404 136.857ZM113.653 142.521H109.147V140.336H113.653V142.521ZM109.938 141.874H112.877V140.968H109.938V141.874ZM114.372 139.818H108.45V139.171H114.372V139.818Z" fill="white"/>
<rect x="79.5332" y="102.067" width="42.9333" height="29.44" rx="14.72" fill="white"/>
<path fill-rule="evenodd" clip-rule="evenodd" d="M96.0938 114.335C94.7388 114.335 93.6404 115.434 93.6404 116.789C93.6404 118.144 94.7388 119.242 96.0938 119.242C97.4487 119.242 98.5471 118.144 98.5471 116.789C98.5471 115.434 97.4487 114.335 96.0938 114.335ZM99.3652 119.242C99.8785 118.559 100.183 117.709 100.183 116.789C100.183 114.53 98.352 112.7 96.0938 112.7C93.8355 112.7 92.0049 114.53 92.0049 116.789C92.0049 119.047 93.8355 120.877 96.0938 120.877H105.907C108.165 120.877 109.996 119.047 109.996 116.789C109.996 114.53 108.165 112.7 105.907 112.7C103.649 112.7 101.818 114.53 101.818 116.789C101.818 117.709 102.122 118.559 102.636 119.242H99.3652ZM105.907 119.242C107.262 119.242 108.36 118.144 108.36 116.789C108.36 115.434 107.262 114.335 105.907 114.335C104.552 114.335 103.454 115.434 103.454 116.789C103.454 118.144 104.552 119.242 105.907 119.242Z" fill="#181A1B"/>
<path opacity="0.7" d="M169.738 141.795H163.801V141.148H166.345V139.646H167.136V141.148H169.738V141.795ZM167.157 136.972C167.157 137.298 167.258 137.614 167.459 137.921C167.663 138.227 167.943 138.491 168.3 138.711C168.66 138.929 169.062 139.073 169.508 139.142L169.163 139.804C168.614 139.701 168.125 139.501 167.696 139.204C167.27 138.904 166.949 138.542 166.733 138.118C166.59 138.399 166.398 138.655 166.158 138.887C165.919 139.117 165.642 139.311 165.328 139.469C165.014 139.625 164.678 139.737 164.318 139.804L163.973 139.142C164.414 139.073 164.812 138.929 165.166 138.711C165.523 138.491 165.803 138.227 166.004 137.921C166.205 137.612 166.307 137.295 166.309 136.972V136.497H167.157V136.972ZM175.574 142.607H174.783V136.102H175.574V142.607ZM173.576 139.107H171.34V140.415C171.889 140.41 172.392 140.391 172.85 140.357C173.31 140.324 173.779 140.266 174.259 140.185L174.33 140.839C173.815 140.93 173.309 140.991 172.81 141.022C172.312 141.053 171.738 141.069 171.089 141.069H170.521V138.474H172.764V137.317H170.514V136.67H173.576V139.107ZM184.192 139.358H178.269V138.718H179.915C180.011 138.383 180.078 138.078 180.116 137.802C180.155 137.526 180.178 137.262 180.185 137.008H178.823V136.361H180.972V136.677C180.972 137.003 180.957 137.323 180.929 137.637C180.9 137.951 180.83 138.311 180.72 138.718H182.503C182.582 138.388 182.636 138.087 182.664 137.816C182.696 137.546 182.715 137.276 182.722 137.008H181.367V136.361H183.502V136.735C183.497 136.979 183.491 137.184 183.484 137.349C183.477 137.514 183.459 137.717 183.43 137.957C183.401 138.194 183.357 138.448 183.297 138.718H184.192V139.358ZM183.473 142.492H178.981V140.113H183.473V142.492ZM179.764 141.852H182.682V140.745H179.764V141.852Z" fill="white"/>
<g opacity="0.7">
<path fill-rule="evenodd" clip-rule="evenodd" d="M170.73 113.583V117.36C170.73 119.166 172.194 120.631 174.001 120.631C174.773 120.631 175.483 120.363 176.043 119.915L176.675 120.668C175.944 121.259 175.014 121.614 174.001 121.614C171.652 121.614 169.748 119.71 169.748 117.361V115.726C169.748 115.364 169.455 115.071 169.094 115.071C168.733 115.071 168.44 115.364 168.44 115.726V117.361C168.44 120.211 170.584 122.56 173.347 122.884V124.312C173.347 124.674 173.64 124.967 174.001 124.967C174.362 124.967 174.655 124.674 174.655 124.312V122.884C175.733 122.758 176.717 122.323 177.516 121.67L178.635 123.004C178.896 123.315 179.36 123.356 179.671 123.094C179.983 122.833 180.023 122.369 179.762 122.057L169.249 109.528C168.988 109.217 168.524 109.176 168.212 109.438C167.901 109.699 167.86 110.163 168.121 110.474L170.73 113.583ZM177.272 111.963V117.297L171.276 110.152C171.862 109.271 172.864 108.691 174.001 108.691C175.807 108.691 177.272 110.156 177.272 111.963ZM179.012 119.775C179.364 119.045 179.562 118.226 179.562 117.361V115.726C179.562 115.364 179.269 115.071 178.907 115.071C178.546 115.071 178.253 115.364 178.253 115.726V117.361C178.253 117.806 178.185 118.235 178.058 118.638L179.012 119.775Z" fill="white"/>
</g>
<path opacity="0.7" d="M241.031 136.993C241.031 137.326 241.131 137.651 241.333 137.967C241.536 138.284 241.816 138.557 242.173 138.787C242.53 139.014 242.931 139.166 243.374 139.243L243.014 139.912C242.471 139.797 241.987 139.584 241.563 139.275C241.141 138.964 240.825 138.589 240.614 138.151C240.398 138.587 240.078 138.96 239.654 139.272C239.23 139.581 238.747 139.794 238.206 139.912L237.854 139.243C238.292 139.164 238.688 139.011 239.04 138.783C239.394 138.553 239.672 138.28 239.873 137.964C240.077 137.647 240.18 137.324 240.183 136.993V136.512H241.031V136.993ZM243.611 141.773H237.674V141.112H243.611V141.773ZM249.462 142.6H248.657V136.102H249.462V142.6ZM247.88 137.389H247.255V140.303C247.6 140.274 247.904 140.245 248.168 140.213L248.211 140.81C247.586 140.911 246.933 140.978 246.252 141.011C245.572 141.045 244.854 141.062 244.1 141.062L244.021 140.407C244.179 140.407 244.447 140.405 244.826 140.4V137.389H244.193V136.735H247.88V137.389ZM245.595 140.382C245.887 140.375 246.179 140.364 246.472 140.35V137.389H245.595V140.382ZM253.717 136.742C253.714 137.449 253.628 138.089 253.458 138.664C253.288 139.237 252.989 139.771 252.563 140.267C252.137 140.761 251.551 141.2 250.806 141.586L250.367 140.975C250.899 140.7 251.339 140.4 251.686 140.077C252.036 139.751 252.308 139.392 252.502 138.999L250.511 139.186L250.396 138.503L252.75 138.359C252.836 138.064 252.892 137.741 252.919 137.389H250.734V136.742H253.717ZM255.837 142.6H255.039V139.293H253.702V138.639H255.039V136.102H255.837V142.6Z" fill="white"/>
<g opacity="0.7">
<path fill-rule="evenodd" clip-rule="evenodd" d="M252.655 110.77C252.388 110.527 251.974 110.545 251.731 110.812C251.487 111.079 251.505 111.492 251.772 111.736C254.877 114.575 254.856 119.053 251.775 121.834C251.507 122.076 251.486 122.49 251.728 122.758C251.97 123.026 252.384 123.047 252.652 122.805C256.31 119.504 256.326 114.127 252.655 110.77ZM241.85 113.884C241.85 113.883 241.85 113.882 241.85 113.882L246.187 110.821C246.946 110.286 247.992 110.829 247.992 111.757V121.791C247.992 122.72 246.946 123.262 246.187 122.727L242.151 119.877C241.958 119.74 241.727 119.667 241.49 119.667H239.743C239.11 119.667 238.598 119.154 238.598 118.522V115.03C238.598 114.398 239.11 113.886 239.743 113.886H241.848C241.849 113.886 241.85 113.885 241.85 113.884ZM249.971 113.379C250.208 113.106 250.621 113.076 250.894 113.313C253.116 115.24 253.108 118.361 250.891 120.259C250.616 120.494 250.203 120.462 249.968 120.188C249.733 119.913 249.765 119.5 250.04 119.265C251.646 117.891 251.659 115.708 250.037 114.302C249.764 114.065 249.734 113.652 249.971 113.379Z" fill="white"/>
</g>
<path opacity="0.7" d="M90.3767 198.816H84.4399V198.162H86.9986V196.897H85.0939V193.533H85.8917V194.597H88.9033V193.533H89.7011V196.897H87.7892V198.162H90.3767V198.816ZM88.9033 196.25V195.237H85.8917V196.25H88.9033ZM96.2058 199.607H95.4008V193.102H96.2058V199.607ZM92.7055 193.577C93.0313 193.577 93.3212 193.671 93.5752 193.86C93.8315 194.047 94.0328 194.314 94.1789 194.662C94.3251 195.007 94.3993 195.409 94.4017 195.869C94.3993 196.332 94.3251 196.737 94.1789 197.084C94.0352 197.431 93.8351 197.7 93.5788 197.889C93.3224 198.076 93.0313 198.169 92.7055 198.169C92.3773 198.169 92.085 198.076 91.8286 197.889C91.5723 197.7 91.371 197.431 91.2249 197.084C91.0811 196.737 91.0092 196.332 91.0092 195.869C91.0092 195.409 91.0811 195.007 91.2249 194.662C91.371 194.314 91.5723 194.047 91.8286 193.86C92.085 193.671 92.3773 193.577 92.7055 193.577ZM92.7055 194.295C92.521 194.295 92.3581 194.358 92.2167 194.482C92.0778 194.607 91.97 194.788 91.8933 195.025C91.8166 195.262 91.7783 195.544 91.7783 195.869C91.7783 196.198 91.8166 196.48 91.8933 196.717C91.97 196.955 92.0778 197.137 92.2167 197.264C92.3581 197.388 92.521 197.451 92.7055 197.451C92.8876 197.451 93.0481 197.388 93.1871 197.264C93.326 197.137 93.4338 196.955 93.5105 196.717C93.5872 196.48 93.6255 196.198 93.6255 195.869C93.6255 195.544 93.5872 195.263 93.5105 195.028C93.4338 194.791 93.326 194.61 93.1871 194.486C93.0481 194.359 92.8876 194.295 92.7055 194.295ZM102.423 195.575H97.9236V193.339H98.7142V194.942H102.423V195.575ZM103.091 196.962H97.1546V196.329H103.091V196.962ZM102.466 199.449H97.8661V197.537H98.6639V198.802H102.466V199.449ZM110.71 197.853H109.912V195.474H108.762V194.827H109.912V193.109H110.71V197.853ZM110.875 199.47H106.448V197.436H107.246V198.823H110.875V199.47ZM107.655 194.403C107.655 194.669 107.714 194.929 107.832 195.183C107.949 195.434 108.123 195.661 108.353 195.862C108.583 196.061 108.861 196.214 109.186 196.322L108.784 196.962C108.429 196.84 108.123 196.662 107.864 196.43C107.608 196.195 107.406 195.921 107.26 195.607C107.114 195.957 106.906 196.261 106.635 196.52C106.364 196.776 106.041 196.969 105.665 197.098L105.255 196.452C105.59 196.341 105.877 196.181 106.114 195.97C106.353 195.757 106.534 195.515 106.656 195.244C106.781 194.971 106.843 194.688 106.843 194.396V194.223H105.492V193.577H109V194.223H107.655V194.403ZM116.769 195.783H117.682V196.452H116.769V199.6H115.964V193.102H116.769V195.783ZM111.551 197.796C112.26 197.796 112.814 197.791 113.211 197.781V197.174C112.977 197.133 112.771 197.059 112.593 196.951C112.418 196.843 112.283 196.708 112.187 196.545C112.091 196.38 112.045 196.198 112.047 195.999C112.045 195.757 112.109 195.544 112.241 195.359C112.373 195.175 112.559 195.032 112.798 194.931C113.038 194.828 113.312 194.777 113.621 194.777C113.925 194.777 114.196 194.828 114.433 194.931C114.673 195.032 114.86 195.175 114.994 195.359C115.13 195.544 115.2 195.757 115.202 195.999C115.2 196.2 115.15 196.382 115.051 196.545C114.953 196.708 114.814 196.844 114.635 196.955C114.457 197.062 114.251 197.136 114.016 197.174V197.752C114.637 197.719 115.171 197.671 115.619 197.609L115.67 198.191C115.051 198.301 114.419 198.373 113.772 198.407C113.125 198.44 112.423 198.457 111.666 198.457L111.551 197.796ZM115.547 194.482H111.673V193.85H113.211V193.131H114.016V193.85H115.547V194.482ZM113.621 195.388C113.37 195.393 113.17 195.449 113.021 195.557C112.875 195.662 112.802 195.809 112.802 195.999C112.802 196.186 112.876 196.332 113.025 196.437C113.173 196.543 113.372 196.593 113.621 196.588C113.868 196.593 114.064 196.543 114.21 196.437C114.359 196.329 114.433 196.183 114.433 195.999C114.433 195.812 114.359 195.664 114.21 195.557C114.064 195.449 113.868 195.393 113.621 195.388Z" fill="white"/>
<rect x="79.5332" y="159.067" width="42.9333" height="29.44" rx="14.72" fill="white"/>
<path fill-rule="evenodd" clip-rule="evenodd" d="M97.3205 166.12C96.3043 166.12 95.4805 166.943 95.4805 167.96V179.613C95.4805 180.629 96.3043 181.453 97.3205 181.453H104.68C105.697 181.453 106.52 180.629 106.52 179.613V177.651C106.126 177.744 105.713 177.799 105.288 177.808V179.146C105.288 179.688 104.848 180.127 104.306 180.127H97.6953C97.1534 180.127 96.714 179.688 96.714 179.146V168.425C96.714 167.883 97.1534 167.444 97.6953 167.444H104.306C104.848 167.444 105.288 167.883 105.288 168.425V168.738C105.713 168.747 106.126 168.801 106.52 168.895V167.96C106.52 166.943 105.697 166.12 104.68 166.12H97.3205ZM105.089 169.696C102.83 169.696 101 171.298 101 173.274C101 173.863 101.162 174.418 101.45 174.908C101.505 175.001 101.517 175.109 101.477 175.207L101.098 176.147C100.96 176.487 101.335 176.815 101.724 176.695L102.755 176.376C102.872 176.34 103.001 176.353 103.109 176.405C103.696 176.69 104.371 176.852 105.089 176.852C107.347 176.852 109.178 175.25 109.178 173.274C109.178 171.298 107.347 169.696 105.089 169.696ZM105.646 173.278C105.646 172.97 105.396 172.72 105.088 172.72C104.78 172.72 104.53 172.97 104.53 173.278C104.53 173.586 104.78 173.835 105.088 173.835C105.396 173.835 105.646 173.586 105.646 173.278ZM106.947 172.72C107.255 172.72 107.504 172.97 107.504 173.278C107.504 173.586 107.255 173.835 106.947 173.835C106.639 173.835 106.389 173.586 106.389 173.278C106.389 172.97 106.639 172.72 106.947 172.72ZM103.786 173.278C103.786 172.97 103.537 172.72 103.229 172.72C102.921 172.72 102.671 172.97 102.671 173.278C102.671 173.586 102.921 173.835 103.229 173.835C103.537 173.835 103.786 173.586 103.786 173.278Z" fill="#181A1B"/>
<circle cx="173.537" cy="177.467" r="21.4667" fill="#F73D3E"/>
<g clip-path="url(#clip5_1300_8507)">
<path d="M173.537 172.416C168.525 172.416 165.801 174.479 164.925 175.293C163.592 176.531 163.322 178.764 163.972 180.39C164.132 180.789 164.497 181.094 164.954 181.15C166.499 181.341 168.041 181.043 169.557 180.767C170.213 180.648 170.663 180.031 170.569 179.366L170.179 177.488C170.136 177.28 170.257 177.072 170.462 177.016C171.254 176.8 172.48 176.557 173.536 176.557C174.592 176.557 175.754 176.797 176.484 177.009C176.676 177.065 176.792 177.255 176.762 177.453L176.468 179.447C176.422 180.084 176.863 180.646 177.482 180.762C178.852 181.019 180.534 181.405 182.155 181.151C182.598 181.082 182.943 180.779 183.096 180.397C183.747 178.768 183.483 176.531 182.148 175.291C181.272 174.477 178.549 172.415 173.537 172.416Z" fill="white"/>
</g>
<path opacity="0.7" d="M241.196 193.742C241.194 194.451 241.105 195.094 240.93 195.672C240.755 196.249 240.446 196.787 240.003 197.285C239.562 197.781 238.956 198.217 238.184 198.593L237.76 197.975C238.311 197.707 238.767 197.41 239.126 197.084C239.488 196.756 239.769 196.394 239.97 195.999L237.904 196.186L237.803 195.503L240.226 195.352C240.31 195.067 240.367 194.746 240.398 194.389H238.134V193.742H241.196ZM243.101 199.6H242.296V193.102H243.101V199.6ZM249.641 199.6H248.872V196.301H248.225V199.269H247.471V193.224H248.225V195.647H248.872V193.102H249.641V199.6ZM247.097 194.518H246.63V197.318C246.867 197.296 247.051 197.276 247.183 197.257L247.226 197.839C246.481 197.992 245.425 198.069 244.057 198.069L243.963 197.407C244.22 197.407 244.421 197.406 244.567 197.404V194.518H244.093V193.871H247.097V194.518ZM245.286 197.389C245.331 197.387 245.387 197.385 245.455 197.382C245.522 197.38 245.6 197.379 245.688 197.379C245.736 197.374 245.778 197.372 245.814 197.372C245.85 197.369 245.88 197.368 245.904 197.368V194.518H245.286V197.389ZM255.672 196.789H251.115V193.67H255.621V194.317H251.905V196.15H255.672V196.789ZM256.333 198.773H250.396V198.112H256.333V198.773Z" fill="white"/>
<g opacity="0.7">
<path fill-rule="evenodd" clip-rule="evenodd" d="M242.094 169.289C242.997 169.289 243.729 168.556 243.729 167.653C243.729 166.75 242.997 166.018 242.094 166.018C241.19 166.018 240.458 166.75 240.458 167.653C240.458 168.556 241.19 169.289 242.094 169.289ZM242.094 173.377C242.997 173.377 243.729 172.645 243.729 171.742C243.729 170.839 242.997 170.106 242.094 170.106C241.19 170.106 240.458 170.839 240.458 171.742C240.458 172.645 241.19 173.377 242.094 173.377ZM243.729 175.831C243.729 176.734 242.997 177.467 242.094 177.467C241.19 177.467 240.458 176.734 240.458 175.831C240.458 174.928 241.19 174.195 242.094 174.195C242.997 174.195 243.729 174.928 243.729 175.831ZM247 169.289C247.904 169.289 248.636 168.556 248.636 167.653C248.636 166.75 247.904 166.018 247 166.018C246.097 166.018 245.365 166.75 245.365 167.653C245.365 168.556 246.097 169.289 247 169.289ZM248.636 171.742C248.636 172.645 247.904 173.377 247 173.377C246.097 173.377 245.365 172.645 245.365 171.742C245.365 170.839 246.097 170.106 247 170.106C247.904 170.106 248.636 170.839 248.636 171.742ZM247 177.467C247.904 177.467 248.636 176.734 248.636 175.831C248.636 174.928 247.904 174.195 247 174.195C246.097 174.195 245.365 174.928 245.365 175.831C245.365 176.734 246.097 177.467 247 177.467ZM248.636 179.92C248.636 180.823 247.904 181.555 247 181.555C246.097 181.555 245.365 180.823 245.365 179.92C245.365 179.017 246.097 178.284 247 178.284C247.904 178.284 248.636 179.017 248.636 179.92ZM251.907 169.289C252.81 169.289 253.542 168.556 253.542 167.653C253.542 166.75 252.81 166.018 251.907 166.018C251.004 166.018 250.271 166.75 250.271 167.653C250.271 168.556 251.004 169.289 251.907 169.289ZM253.542 171.742C253.542 172.645 252.81 173.377 251.907 173.377C251.004 173.377 250.271 172.645 250.271 171.742C250.271 170.839 251.004 170.106 251.907 170.106C252.81 170.106 253.542 170.839 253.542 171.742ZM251.907 177.467C252.81 177.467 253.542 176.734 253.542 175.831C253.542 174.928 252.81 174.195 251.907 174.195C251.004 174.195 250.271 174.928 250.271 175.831C250.271 176.734 251.004 177.467 251.907 177.467Z" fill="white"/>
</g>
</g>
</g>
<g filter="url(#filter1_d_1300_8507)">
<rect x="280" y="16" width="47" height="25" rx="12.5" fill="white" fill-opacity="0.5" shape-rendering="crispEdges"/>
<rect x="280.5" y="16.5" width="46" height="24" rx="12" stroke="#6D35DD" shape-rendering="crispEdges"/>
<g filter="url(#filter2_d_1300_8507)">
<path d="M294.818 33H293.041V23.1016H294.818V33ZM305.496 28.0508C305.496 29.0944 305.3 29.999 304.908 30.7646C304.516 31.5303 303.976 32.1182 303.288 32.5283C302.604 32.9339 301.827 33.1367 300.957 33.1367C300.087 33.1367 299.307 32.9339 298.619 32.5283C297.936 32.1182 297.398 31.5303 297.006 30.7646C296.614 29.9945 296.418 29.0898 296.418 28.0508C296.418 27.0072 296.614 26.1025 297.006 25.3369C297.398 24.5713 297.936 23.9857 298.619 23.5801C299.307 23.1699 300.087 22.9648 300.957 22.9648C301.827 22.9648 302.604 23.1699 303.288 23.5801C303.976 23.9857 304.516 24.5713 304.908 25.3369C305.3 26.1025 305.496 27.0072 305.496 28.0508ZM303.705 28.0508C303.705 27.3125 303.589 26.6836 303.356 26.1641C303.129 25.64 302.807 25.2435 302.393 24.9746C301.978 24.7012 301.499 24.5645 300.957 24.5645C300.415 24.5645 299.936 24.7012 299.521 24.9746C299.107 25.2435 298.783 25.64 298.551 26.1641C298.323 26.6836 298.209 27.3125 298.209 28.0508C298.209 28.7891 298.323 29.4202 298.551 29.9443C298.783 30.4639 299.107 30.8604 299.521 31.1338C299.936 31.4027 300.415 31.5371 300.957 31.5371C301.499 31.5371 301.978 31.4027 302.393 31.1338C302.807 30.8604 303.129 30.4639 303.356 29.9443C303.589 29.4202 303.705 28.7891 303.705 28.0508ZM312.469 25.8223C312.428 25.403 312.239 25.0749 311.901 24.8379C311.569 24.6009 311.133 24.4824 310.596 24.4824C310.231 24.4824 309.912 24.5371 309.639 24.6465C309.365 24.7559 309.156 24.9085 309.01 25.1045C308.864 25.3005 308.791 25.5215 308.791 25.7676C308.791 26.1458 308.948 26.4398 309.263 26.6494C309.577 26.8545 309.985 27.0163 310.486 27.1348L311.416 27.3809C312.268 27.5768 312.963 27.9027 313.501 28.3584C314.043 28.8096 314.314 29.4316 314.314 30.2246C314.314 30.8034 314.166 31.3138 313.87 31.7559C313.574 32.1979 313.143 32.542 312.578 32.7881C312.018 33.0296 311.348 33.1504 310.568 33.1504C309.798 33.1504 309.131 33.0319 308.565 32.7949C308 32.5534 307.558 32.2048 307.239 31.749C306.925 31.2887 306.754 30.735 306.727 30.0879H308.477C308.518 30.5892 308.727 30.972 309.105 31.2363C309.488 31.5007 309.971 31.6328 310.555 31.6328C310.942 31.6328 311.286 31.5736 311.587 31.4551C311.888 31.3366 312.12 31.1702 312.284 30.9561C312.453 30.7373 312.537 30.4889 312.537 30.2109C312.537 29.8509 312.387 29.5706 312.086 29.3701C311.79 29.165 311.343 28.985 310.746 28.8301L309.625 28.543C307.866 28.0827 306.986 27.194 306.986 25.877C306.986 25.3027 307.144 24.7969 307.458 24.3594C307.772 23.9173 308.205 23.5755 308.757 23.334C309.313 23.0879 309.935 22.9648 310.623 22.9648C311.316 22.9648 311.929 23.0879 312.462 23.334C313 23.5755 313.417 23.9128 313.713 24.3457C314.014 24.7786 314.169 25.2708 314.178 25.8223H312.469Z" fill="#6D35DD"/>
</g>
</g>
</g>
<defs>
<filter id="filter0_d_1300_8507" x="37.1081" y="79.5405" width="269.784" height="169.784" filterUnits="userSpaceOnUse" color-interpolation-filters="sRGB">
<feFlood flood-opacity="0" result="BackgroundImageFix"/>
<feColorMatrix in="SourceAlpha" type="matrix" values="0 0 0 0 0 0 0 0 0 0 0 0 0 0 0 0 0 0 127 0" result="hardAlpha"/>
<feOffset dy="12.4324"/>
<feGaussianBlur stdDeviation="9.94595"/>
<feColorMatrix type="matrix" values="0 0 0 0 0 0 0 0 0 0 0 0 0 0 0 0 0 0 0.12 0"/>
<feBlend mode="normal" in2="BackgroundImageFix" result="effect1_dropShadow_1300_8507"/>
<feBlend mode="normal" in="SourceGraphic" in2="effect1_dropShadow_1300_8507" result="shape"/>
</filter>
<filter id="filter1_d_1300_8507" x="267" y="7" width="73" height="51" filterUnits="userSpaceOnUse" color-interpolation-filters="sRGB">
<feFlood flood-opacity="0" result="BackgroundImageFix"/>
<feColorMatrix in="SourceAlpha" type="matrix" values="0 0 0 0 0 0 0 0 0 0 0 0 0 0 0 0 0 0 127 0" result="hardAlpha"/>
<feOffset dy="4"/>
<feGaussianBlur stdDeviation="6.5"/>
<feComposite in2="hardAlpha" operator="out"/>
<feColorMatrix type="matrix" values="0 0 0 0 0.75045 0 0 0 0 0.663507 0 0 0 0 0.820833 0 0 0 1 0"/>
<feBlend mode="normal" in2="BackgroundImageFix" result="effect1_dropShadow_1300_8507"/>
<feBlend mode="normal" in="SourceGraphic" in2="effect1_dropShadow_1300_8507" result="shape"/>
</filter>
<filter id="filter2_d_1300_8507" x="293.041" y="22.9648" width="21.2734" height="11.1855" filterUnits="userSpaceOnUse" color-interpolation-filters="sRGB">
<feFlood flood-opacity="0" result="BackgroundImageFix"/>
<feColorMatrix in="SourceAlpha" type="matrix" values="0 0 0 0 0 0 0 0 0 0 0 0 0 0 0 0 0 0 127 0" result="hardAlpha"/>
<feOffset dy="1"/>
<feComposite in2="hardAlpha" operator="out"/>
<feColorMatrix type="matrix" values="0 0 0 0 1 0 0 0 0 1 0 0 0 0 1 0 0 0 1 0"/>
<feBlend mode="normal" in2="BackgroundImageFix" result="effect1_dropShadow_1300_8507"/>
<feBlend mode="normal" in="SourceGraphic" in2="effect1_dropShadow_1300_8507" result="shape"/>
</filter>
<linearGradient id="paint0_linear_1300_8507" x1="347.872" y1="177.727" x2="59.516" y2="-25.4069" gradientUnits="userSpaceOnUse">
<stop stop-color="#DBB3F9"/>
<stop offset="1" stop-color="#D3E7FF"/>
</linearGradient>
<linearGradient id="paint1_linear_1300_8507" x1="73.8027" y1="-145.237" x2="73.8027" y2="325.008" gradientUnits="userSpaceOnUse">
<stop stop-color="#FBD3FA"/>
<stop offset="0.6" stop-color="#5930AC"/>
<stop offset="1" stop-color="#250F53"/>
</linearGradient>
<linearGradient id="paint2_linear_1300_8507" x1="74" y1="0" x2="74" y2="320.469" gradientUnits="userSpaceOnUse">
<stop offset="0.255" stop-color="#5B5B7B"/>
<stop offset="1" stop-color="#1C1E2B"/>
</linearGradient>
<linearGradient id="paint3_linear_1300_8507" x1="114.693" y1="-222.522" x2="114.693" y2="497.954" gradientUnits="userSpaceOnUse">
<stop stop-color="#FBD3FA"/>
<stop offset="0.6" stop-color="#5930AC"/>
<stop offset="1" stop-color="#250F53"/>
</linearGradient>
<linearGradient id="paint4_linear_1300_8507" x1="115" y1="0" x2="115" y2="491" gradientUnits="userSpaceOnUse">
<stop offset="0.255" stop-color="#5B5B7B"/>
<stop offset="1" stop-color="#1C1E2B"/>
</linearGradient>
<clipPath id="clip0_1300_8507">
<path d="M0 12C0 5.37258 5.37258 0 12 0H331C337.627 0 343 5.37258 343 12V230H0V12Z" fill="white"/>
</clipPath>
<clipPath id="clip1_1300_8507">
<rect x="97.5" y="30" width="148" height="280" rx="20" fill="white"/>
</clipPath>
<clipPath id="clip2_1300_8507">
<rect width="148" height="320.469" fill="white" transform="translate(97.5 29.7651)"/>
</clipPath>
<clipPath id="clip3_1300_8507">
<rect width="148" height="18.5493" fill="white" transform="translate(97.5 29.7651)"/>
</clipPath>
<clipPath id="clip4_1300_8507">
<rect x="57" y="87" width="230" height="130" rx="9.94595" fill="white"/>
</clipPath>
<clipPath id="clip5_1300_8507">
<rect width="22.08" height="22.08" fill="white" transform="translate(162.497 166.427)"/>
</clipPath>
</defs>
</svg>
