<svg width="343" height="286" viewBox="0 0 343 286" fill="none" xmlns="http://www.w3.org/2000/svg">
<g clip-path="url(#clip0_1300_8440)">
<path d="M0 0H343V274C343 280.627 337.627 286 331 286H12C5.37258 286 0 280.627 0 274V0Z" fill="#F3F5F6"/>
<path d="M0 0H343V274C343 280.627 337.627 286 331 286H12C5.37258 286 0 280.627 0 274V0Z" fill="#FDFCFF"/>
<path d="M0 0H343V274C343 280.627 337.627 286 331 286H12C5.37258 286 0 280.627 0 274V0Z" fill="url(#paint0_linear_1300_8440)" fill-opacity="0.6"/>
<path d="M0 0H343V274C343 280.627 337.627 286 331 286H12C5.37258 286 0 280.627 0 274V0Z" fill="white" fill-opacity="0.1"/>
<g clip-path="url(#clip1_1300_8440)">
<rect x="97.5" y="30" width="148" height="280" rx="20" fill="white"/>
<g clip-path="url(#clip2_1300_8440)">
<rect width="148" height="320.469" transform="translate(97.5 29.7651)" fill="url(#paint1_linear_1300_8440)"/>
<rect width="148" height="320.469" transform="translate(97.5 29.7651)" fill="url(#paint2_linear_1300_8440)"/>
<rect x="107.503" y="35.2905" width="21.312" height="9.57867" rx="4.78933" fill="#30D158"/>
<path d="M114.021 37.8048C114.911 37.8048 115.686 38.4379 115.686 39.941V39.9468C115.686 41.3516 115.053 42.1841 114.004 42.1841C113.238 42.1841 112.665 41.7303 112.532 41.0915L112.527 41.0597H113.261L113.269 41.0886C113.379 41.3805 113.637 41.5713 114.004 41.5713C114.666 41.5713 114.946 40.9238 114.978 40.126C114.978 40.0942 114.981 40.0624 114.981 40.0306H114.923C114.77 40.3602 114.405 40.6521 113.833 40.6521C113.032 40.6521 112.472 40.0682 112.472 39.2762V39.2704C112.472 38.4234 113.116 37.8048 114.021 37.8048ZM114.018 40.0798C114.489 40.0798 114.851 39.7387 114.851 39.2675V39.2617C114.851 38.7848 114.489 38.4119 114.027 38.4119C113.567 38.4119 113.2 38.779 113.2 39.2444V39.2502C113.2 39.7329 113.544 40.0798 114.018 40.0798ZM116.801 39.3773C116.538 39.3773 116.341 39.175 116.341 38.9206C116.341 38.6634 116.538 38.4639 116.801 38.4639C117.067 38.4639 117.261 38.6634 117.261 38.9206C117.261 39.175 117.067 39.3773 116.801 39.3773ZM116.801 41.5222C116.538 41.5222 116.341 41.3227 116.341 41.0655C116.341 40.8082 116.538 40.6087 116.801 40.6087C117.067 40.6087 117.261 40.8082 117.261 41.0655C117.261 41.3227 117.067 41.5222 116.801 41.5222ZM119.939 42.0801V41.2794H117.899V40.6695C118.439 39.73 119.032 38.7703 119.598 37.9089H120.653V40.6637H121.214V41.2794H120.653V42.0801H119.939ZM118.592 40.681H119.951V38.5044H119.908C119.48 39.1577 118.997 39.9295 118.592 40.6377V40.681ZM122.745 42.0801V38.6431H122.696L121.659 39.3773V38.6749L122.748 37.9089H123.491V42.0801H122.745Z" fill="white"/>
<path opacity="0.35" d="M225.049 38.8428C225.049 38.0859 225.663 37.4724 226.419 37.4724H233.129C233.886 37.4724 234.499 38.0859 234.499 38.8428V40.8162C234.499 41.573 233.886 42.1866 233.129 42.1866H226.419C225.663 42.1866 225.049 41.573 225.049 40.8162V38.8428Z" stroke="white" stroke-width="0.416407"/>
<path opacity="0.4" d="M235.103 39.2378V40.9034C235.438 40.7624 235.656 40.4342 235.656 40.0706C235.656 39.707 235.438 39.3789 235.103 39.2378Z" fill="white"/>
<path d="M225.631 38.843C225.631 38.4071 225.984 38.0537 226.42 38.0537H230.762C231.197 38.0537 231.551 38.4071 231.551 38.843V40.8164C231.551 41.2523 231.197 41.6057 230.762 41.6057H226.42C225.984 41.6057 225.631 41.2523 225.631 40.8164V38.843Z" fill="white"/>
<path fill-rule="evenodd" clip-rule="evenodd" d="M218.723 38.6799C219.696 38.6799 220.633 39.0618 221.338 39.7464C221.391 39.7993 221.476 39.7986 221.529 39.7449L222.036 39.2217C222.063 39.1945 222.078 39.1576 222.077 39.1193C222.077 39.0809 222.062 39.0442 222.035 39.0173C220.184 37.2058 217.262 37.2058 215.41 39.0173C215.384 39.0442 215.368 39.0809 215.368 39.1192C215.368 39.1576 215.383 39.1945 215.409 39.2217L215.917 39.7449C215.969 39.7987 216.054 39.7993 216.107 39.7464C216.813 39.0617 217.749 38.6799 218.723 38.6799ZM218.737 40.2593C219.272 40.2593 219.788 40.4622 220.184 40.8286C220.238 40.8807 220.322 40.8795 220.374 40.8261L220.882 40.3029C220.908 40.2755 220.923 40.2383 220.923 40.1996C220.922 40.1609 220.907 40.124 220.88 40.0971C219.672 38.9508 217.803 38.9508 216.595 40.0971C216.568 40.124 216.553 40.1609 216.552 40.1996C216.552 40.2383 216.567 40.2755 216.593 40.3029L217.101 40.8261C217.153 40.8795 217.237 40.8807 217.291 40.8286C217.687 40.4624 218.203 40.2595 218.737 40.2593ZM219.769 41.2804C219.769 41.3192 219.754 41.3566 219.727 41.3838L218.85 42.2877C218.824 42.3142 218.789 42.3292 218.752 42.3292C218.716 42.3292 218.681 42.3142 218.655 42.2877L217.777 41.3838C217.75 41.3566 217.735 41.3192 217.736 41.2804C217.737 41.2416 217.753 41.2049 217.782 41.1789C218.342 40.6951 219.163 40.6951 219.723 41.1789C219.751 41.2049 219.768 41.2416 219.769 41.2804Z" fill="white"/>
<path d="M209.054 38.8427C209.054 38.6247 209.231 38.448 209.449 38.448H209.843C210.061 38.448 210.238 38.6247 210.238 38.8427V42C210.238 42.218 210.061 42.3947 209.843 42.3947H209.449C209.231 42.3947 209.054 42.218 209.054 42V38.8427Z" fill="white"/>
<path d="M211.027 38.0534C211.027 37.8354 211.204 37.6587 211.422 37.6587H211.817C212.035 37.6587 212.211 37.8354 212.211 38.0534V42C212.211 42.218 212.035 42.3947 211.817 42.3947H211.422C211.204 42.3947 211.027 42.218 211.027 42V38.0534Z" fill="white"/>
<path d="M207.081 40.224C207.081 40.0061 207.257 39.8294 207.475 39.8294H207.87C208.088 39.8294 208.265 40.0061 208.265 40.224V42C208.265 42.218 208.088 42.3947 207.87 42.3947H207.475C207.257 42.3947 207.081 42.218 207.081 42V40.224Z" fill="white"/>
<path d="M205.107 41.2107C205.107 40.9927 205.284 40.816 205.502 40.816H205.897C206.115 40.816 206.291 40.9927 206.291 41.2107V42C206.291 42.218 206.115 42.3947 205.897 42.3947H205.502C205.284 42.3947 205.107 42.218 205.107 42V41.2107Z" fill="white"/>
<path d="M114.66 61.8239C114.195 61.8239 113.794 61.7121 113.458 61.4886C113.124 61.2624 112.867 60.9348 112.687 60.5057C112.507 60.0766 112.417 59.5602 112.417 58.9564C112.417 58.3525 112.507 57.8361 112.687 57.407C112.867 56.9779 113.124 56.6516 113.458 56.428C113.794 56.2019 114.195 56.0889 114.66 56.0889C115.123 56.0889 115.522 56.2019 115.859 56.428C116.195 56.6516 116.454 56.9792 116.633 57.4108C116.813 57.8399 116.903 58.3551 116.903 58.9564C116.903 59.5628 116.813 60.0805 116.633 60.5096C116.454 60.9387 116.195 61.265 115.859 61.4886C115.525 61.7121 115.125 61.8239 114.66 61.8239ZM114.66 60.868C114.876 60.868 115.062 60.7987 115.219 60.6599C115.378 60.5212 115.5 60.3117 115.585 60.0317C115.672 59.7516 115.716 59.406 115.716 58.9949C115.716 58.3551 115.624 57.8695 115.439 57.538C115.254 57.204 114.994 57.037 114.66 57.037C114.326 57.037 114.067 57.204 113.882 57.538C113.697 57.8695 113.604 58.3551 113.604 58.9949C113.604 59.406 113.646 59.7516 113.731 60.0317C113.819 60.3117 113.941 60.5212 114.097 60.6599C114.257 60.7987 114.444 60.868 114.66 60.868Z" fill="white"/>
<path d="M111.199 61.7468H110.035V57.2683H110.004L108.725 58.07V57.0448L110.104 56.166H111.199V61.7468Z" fill="white"/>
<path d="M105.749 61.8239C105.284 61.8239 104.883 61.7121 104.546 61.4886C104.212 61.2624 103.956 60.9348 103.776 60.5057C103.596 60.0766 103.506 59.5602 103.506 58.9564C103.506 58.3525 103.596 57.8361 103.776 57.407C103.956 56.9779 104.212 56.6516 104.546 56.428C104.883 56.2019 105.284 56.0889 105.749 56.0889C106.211 56.0889 106.611 56.2019 106.948 56.428C107.284 56.6516 107.542 56.9792 107.722 57.4108C107.902 57.8399 107.992 58.3551 107.992 58.9564C107.992 59.5628 107.902 60.0805 107.722 60.5096C107.542 60.9387 107.284 61.265 106.948 61.4886C106.614 61.7121 106.214 61.8239 105.749 61.8239ZM105.749 60.868C105.965 60.868 106.151 60.7987 106.308 60.6599C106.467 60.5212 106.589 60.3117 106.674 60.0317C106.761 59.7516 106.805 59.406 106.805 58.9949C106.805 58.3551 106.713 57.8695 106.528 57.538C106.343 57.204 106.083 57.037 105.749 57.037C105.415 57.037 105.155 57.204 104.97 57.538C104.785 57.8695 104.693 58.3551 104.693 58.9949C104.693 59.406 104.735 59.7516 104.82 60.0317C104.907 60.3117 105.03 60.5212 105.186 60.6599C105.346 60.7987 105.533 60.868 105.749 60.868Z" fill="white"/>
<rect x="118.903" y="58.4561" width="3" height="1" fill="white"/>
<rect x="124.362" y="56.6644" width="4.58333" height="4.58333" stroke="white" stroke-width="0.916667"/>
<rect x="131.362" y="56.6644" width="4.58333" height="4.58333" stroke="white" stroke-width="0.916667"/>
<rect x="138.362" y="56.6644" width="4.58333" height="4.58333" stroke="white" stroke-width="0.916667"/>
<rect x="145.362" y="56.6644" width="4.58333" height="4.58333" stroke="white" stroke-width="0.916667"/>
<rect x="152.403" y="58.4561" width="3" height="1" fill="white"/>
<path d="M183.164 56.0396L186.619 61.7396H179.718L183.164 56.0396ZM185.114 60.8946L183.164 57.6702L181.23 60.8946H185.114Z" fill="white"/>
<path d="M175.493 56.0396L178.947 61.7396H172.046L175.493 56.0396ZM177.442 60.8946L175.493 57.6702L173.558 60.8946H177.442Z" fill="white"/>
<path d="M167.821 56.0396L171.275 61.7396H164.374L167.821 56.0396ZM169.77 60.8946L167.821 57.6702L165.886 60.8946H169.77Z" fill="white"/>
<path d="M160.149 56.0396L163.603 61.7396H156.702L160.149 56.0396ZM162.098 60.8946L160.149 57.6702L158.214 60.8946H162.098Z" fill="white"/>
<path opacity="0.6" d="M105.276 69.8861C105.018 69.8861 104.797 69.819 104.612 69.6849C104.429 69.5508 104.289 69.355 104.191 69.0975C104.094 68.8385 104.046 68.5279 104.046 68.1656C104.046 67.8064 104.094 67.4981 104.191 67.2406C104.29 66.9816 104.432 66.7843 104.617 66.6486C104.802 66.5129 105.022 66.4451 105.276 66.4451C105.53 66.4451 105.75 66.5129 105.935 66.6486C106.12 66.7843 106.261 66.9816 106.358 67.2406C106.457 67.4981 106.506 67.8064 106.506 68.1656C106.506 68.5279 106.458 68.8378 106.361 69.0952C106.263 69.3527 106.122 69.5492 105.937 69.6849C105.752 69.819 105.532 69.8861 105.276 69.8861ZM105.276 69.4467C105.427 69.4467 105.557 69.3982 105.664 69.301C105.772 69.2024 105.855 69.0574 105.912 68.8663C105.969 68.6751 105.997 68.4416 105.997 68.1656C105.997 67.8912 105.968 67.6576 105.91 67.4649C105.853 67.2707 105.77 67.1242 105.662 67.0255C105.554 66.9253 105.425 66.8752 105.276 66.8752C105.126 66.8752 104.998 66.9253 104.89 67.0255C104.782 67.1242 104.699 67.2707 104.64 67.4649C104.583 67.6576 104.554 67.8912 104.554 68.1656C104.554 68.4416 104.583 68.6751 104.64 68.8663C104.697 69.0574 104.78 69.2024 104.887 69.301C104.995 69.3982 105.125 69.4467 105.276 69.4467ZM108.175 69.8861C107.918 69.8861 107.697 69.819 107.512 69.6849C107.328 69.5508 107.188 69.355 107.091 69.0975C106.994 68.8385 106.945 68.5279 106.945 68.1656C106.945 67.8064 106.994 67.4981 107.091 67.2406C107.189 66.9816 107.331 66.7843 107.516 66.6486C107.701 66.5129 107.921 66.4451 108.175 66.4451C108.43 66.4451 108.649 66.5129 108.834 66.6486C109.019 66.7843 109.16 66.9816 109.258 67.2406C109.356 67.4981 109.406 67.8064 109.406 68.1656C109.406 68.5279 109.357 68.8378 109.26 69.0952C109.163 69.3527 109.022 69.5492 108.837 69.6849C108.652 69.819 108.431 69.8861 108.175 69.8861ZM108.175 69.4467C108.326 69.4467 108.456 69.3982 108.564 69.301C108.672 69.2024 108.754 69.0574 108.811 68.8663C108.868 68.6751 108.897 68.4416 108.897 68.1656C108.897 67.8912 108.867 67.6576 108.809 67.4649C108.752 67.2707 108.669 67.1242 108.561 67.0255C108.454 66.9253 108.325 66.8752 108.175 66.8752C108.026 66.8752 107.897 66.9253 107.789 67.0255C107.681 67.1242 107.598 67.2707 107.539 67.4649C107.482 67.6576 107.454 67.8912 107.454 68.1656C107.454 68.4416 107.482 68.6751 107.539 68.8663C107.596 69.0574 107.679 69.2024 107.787 69.301C107.895 69.3982 108.024 69.4467 108.175 69.4467ZM110.237 69.4097C110.179 69.4097 110.123 69.3951 110.071 69.3658C110.02 69.3365 109.98 69.2964 109.951 69.2455C109.921 69.1947 109.908 69.1399 109.909 69.0813C109.908 69.0228 109.921 68.968 109.951 68.9172C109.98 68.8663 110.02 68.8262 110.071 68.7969C110.123 68.7676 110.179 68.753 110.237 68.753C110.295 68.753 110.348 68.7676 110.399 68.7969C110.45 68.8262 110.49 68.8663 110.52 68.9172C110.55 68.968 110.566 69.0228 110.566 69.0813C110.566 69.1399 110.55 69.1947 110.52 69.2455C110.49 69.2964 110.45 69.3365 110.399 69.3658C110.348 69.3951 110.295 69.4097 110.237 69.4097ZM110.237 67.5828C110.179 67.5828 110.123 67.5682 110.071 67.5389C110.02 67.5096 109.98 67.4695 109.951 67.4187C109.921 67.3678 109.908 67.3131 109.909 67.2545C109.908 67.1959 109.921 67.1412 109.951 67.0903C109.98 67.0394 110.02 66.9993 110.071 66.97C110.123 66.9407 110.179 66.9261 110.237 66.9261C110.295 66.9261 110.348 66.9407 110.399 66.97C110.45 66.9993 110.49 67.0394 110.52 67.0903C110.55 67.1412 110.566 67.1959 110.566 67.2545C110.566 67.3131 110.55 67.3678 110.52 67.4187C110.49 67.4695 110.45 67.5096 110.399 67.5389C110.348 67.5682 110.295 67.5828 110.237 67.5828ZM112.3 69.8861C112.042 69.8861 111.821 69.819 111.636 69.6849C111.453 69.5508 111.312 69.355 111.215 69.0975C111.118 68.8385 111.069 68.5279 111.069 68.1656C111.069 67.8064 111.118 67.4981 111.215 67.2406C111.314 66.9816 111.456 66.7843 111.641 66.6486C111.826 66.5129 112.045 66.4451 112.3 66.4451C112.554 66.4451 112.774 66.5129 112.959 66.6486C113.144 66.7843 113.285 66.9816 113.382 67.2406C113.481 67.4981 113.53 67.8064 113.53 68.1656C113.53 68.5279 113.481 68.8378 113.384 69.0952C113.287 69.3527 113.146 69.5492 112.961 69.6849C112.776 69.819 112.556 69.8861 112.3 69.8861ZM112.3 69.4467C112.451 69.4467 112.58 69.3982 112.688 69.301C112.796 69.2024 112.879 69.0574 112.936 68.8663C112.993 68.6751 113.021 68.4416 113.021 68.1656C113.021 67.8912 112.992 67.6576 112.933 67.4649C112.876 67.2707 112.794 67.1242 112.686 67.0255C112.578 66.9253 112.449 66.8752 112.3 66.8752C112.15 66.8752 112.021 66.9253 111.913 67.0255C111.806 67.1242 111.722 67.2707 111.664 67.4649C111.607 67.6576 111.578 67.8912 111.578 68.1656C111.578 68.4416 111.607 68.6751 111.664 68.8663C111.721 69.0574 111.803 69.2024 111.911 69.301C112.019 69.3982 112.149 69.4467 112.3 69.4467ZM115.171 69.8861C114.963 69.8861 114.774 69.8468 114.605 69.7682C114.435 69.688 114.3 69.5785 114.2 69.4398C114.1 69.2995 114.046 69.1415 114.038 68.9657H114.533C114.542 69.0598 114.576 69.1446 114.635 69.2201C114.693 69.2956 114.77 69.355 114.864 69.3982C114.958 69.4398 115.06 69.4606 115.171 69.4606C115.305 69.4606 115.425 69.4305 115.53 69.3704C115.636 69.3103 115.719 69.2278 115.779 69.123C115.84 69.0166 115.87 68.8979 115.87 68.7668C115.87 68.6327 115.839 68.5125 115.777 68.4061C115.715 68.2982 115.63 68.2142 115.52 68.154C115.411 68.0924 115.287 68.0608 115.148 68.0592C114.866 68.0592 114.67 68.1579 114.561 68.3552H114.08L114.297 66.4913H116.193V66.9261H114.718L114.607 67.865H114.639C114.71 67.7971 114.801 67.7424 114.912 67.7008C115.025 67.6592 115.143 67.6383 115.268 67.6383C115.475 67.6383 115.661 67.6861 115.828 67.7817C115.996 67.8773 116.127 68.0099 116.221 68.1795C116.317 68.3491 116.364 68.5402 116.364 68.753C116.364 68.9703 116.314 69.1654 116.212 69.338C116.11 69.5107 115.968 69.6456 115.786 69.7427C115.606 69.8383 115.401 69.8861 115.171 69.8861Z" fill="white"/>
<path fill-rule="evenodd" clip-rule="evenodd" d="M232.766 60.3675C232.766 60.8034 232.413 61.1568 231.977 61.1568C231.541 61.1568 231.188 60.8034 231.188 60.3675C231.188 59.9315 231.541 59.5781 231.977 59.5781C232.413 59.5781 232.766 59.9315 232.766 60.3675ZM232.766 62.7355C232.766 63.1714 232.413 63.5248 231.977 63.5248C231.541 63.5248 231.188 63.1714 231.188 62.7355C231.188 62.2995 231.541 61.9461 231.977 61.9461C232.413 61.9461 232.766 62.2995 232.766 62.7355ZM231.977 65.8928C232.413 65.8928 232.766 65.5394 232.766 65.1035C232.766 64.6675 232.413 64.3141 231.977 64.3141C231.541 64.3141 231.188 64.6675 231.188 65.1035C231.188 65.5394 231.541 65.8928 231.977 65.8928Z" fill="white"/>
<path opacity="0.05" d="M97.5 76.9707H245.5V77.3654H97.5V76.9707Z" fill="white"/>
<rect width="148" height="88.8" transform="translate(97.5 261.435)" fill="black" fill-opacity="0.1"/>
</g>
</g>
<rect x="94.8" y="27.3" width="153.4" height="285.4" rx="22.7" stroke="black" stroke-width="5.4"/>
<rect x="57" y="88" width="230" height="185.278" rx="9.9475" fill="url(#paint3_linear_1300_8440)"/>
<rect x="73.6104" y="99.1108" width="43.4444" height="28.1111" rx="14.0556" fill="white"/>
<path fill-rule="evenodd" clip-rule="evenodd" d="M90.8597 110.932C89.6247 110.932 88.6236 111.933 88.6236 113.168C88.6236 114.403 89.6247 115.404 90.8597 115.404C92.0946 115.404 93.0958 114.403 93.0958 113.168C93.0958 111.933 92.0946 110.932 90.8597 110.932ZM93.8414 115.404C94.3093 114.781 94.5865 114.007 94.5865 113.168C94.5865 111.11 92.9179 109.441 90.8597 109.441C88.8014 109.441 87.1328 111.11 87.1328 113.168C87.1328 115.227 88.8014 116.895 90.8597 116.895H99.8041C101.862 116.895 103.531 115.227 103.531 113.168C103.531 111.11 101.862 109.441 99.8041 109.441C97.7458 109.441 96.0773 111.11 96.0773 113.168C96.0773 114.007 96.3545 114.781 96.8224 115.404H93.8414ZM99.8041 115.404C101.039 115.404 102.04 114.403 102.04 113.168C102.04 111.933 101.039 110.932 99.8041 110.932C98.5691 110.932 97.568 111.933 97.568 113.168C97.568 114.403 98.5691 115.404 99.8041 115.404Z" fill="#181A1B"/>
<path opacity="0.7" d="M86.9662 137.852C86.532 137.852 86.1589 137.744 85.8469 137.527C85.5374 137.307 85.2991 136.989 85.1319 136.572C84.9672 136.155 84.8848 135.654 84.8848 135.067C84.8848 134.483 84.9672 133.983 85.1319 133.566C85.2991 133.147 85.5387 132.828 85.8506 132.611C86.1626 132.392 86.5344 132.282 86.9662 132.282C87.3955 132.282 87.7661 132.392 88.078 132.611C88.3925 132.828 88.6321 133.147 88.7968 133.566C88.964 133.983 89.0476 134.483 89.0476 135.067C89.0476 135.654 88.964 136.155 88.7968 136.572C88.6321 136.989 88.3937 137.307 88.0818 137.527C87.7723 137.744 87.4004 137.852 86.9662 137.852ZM86.9662 137.036C87.1958 137.036 87.3917 136.963 87.5539 136.815C87.7186 136.666 87.8447 136.445 87.932 136.153C88.0219 135.858 88.0668 135.496 88.0668 135.067C88.0668 134.643 88.0219 134.283 87.932 133.989C87.8447 133.692 87.7186 133.469 87.5539 133.319C87.3892 133.167 87.1933 133.09 86.9662 133.09C86.7391 133.09 86.5432 133.167 86.3785 133.319C86.2138 133.469 86.0865 133.692 85.9966 133.989C85.9093 134.283 85.8656 134.643 85.8656 135.067C85.8656 135.496 85.9093 135.858 85.9966 136.153C86.0865 136.445 86.2125 136.666 86.3747 136.815C86.5394 136.963 86.7366 137.036 86.9662 137.036ZM91.8627 137.852C91.4284 137.852 91.0553 137.744 90.7434 137.527C90.4339 137.307 90.1956 136.989 90.0284 136.572C89.8637 136.155 89.7813 135.654 89.7813 135.067C89.7813 134.483 89.8637 133.983 90.0284 133.566C90.1956 133.147 90.4352 132.828 90.7471 132.611C91.0591 132.392 91.4309 132.282 91.8627 132.282C92.2919 132.282 92.6625 132.392 92.9745 132.611C93.289 132.828 93.5285 133.147 93.6932 133.566C93.8605 133.983 93.9441 134.483 93.9441 135.067C93.9441 135.654 93.8605 136.155 93.6932 136.572C93.5285 136.989 93.2902 137.307 92.9782 137.527C92.6688 137.744 92.2969 137.852 91.8627 137.852ZM91.8627 137.036C92.0923 137.036 92.2882 136.963 92.4504 136.815C92.6151 136.666 92.7412 136.445 92.8285 136.153C92.9183 135.858 92.9633 135.496 92.9633 135.067C92.9633 134.643 92.9183 134.283 92.8285 133.989C92.7412 133.692 92.6151 133.469 92.4504 133.319C92.2857 133.167 92.0898 133.09 91.8627 133.09C91.6356 133.09 91.4397 133.167 91.275 133.319C91.1102 133.469 90.983 133.692 90.8931 133.989C90.8058 134.283 90.7621 134.643 90.7621 135.067C90.7621 135.496 90.8058 135.858 90.8931 136.153C90.983 136.445 91.109 136.666 91.2712 136.815C91.4359 136.963 91.6331 137.036 91.8627 137.036ZM95.3591 137.104C95.2543 137.104 95.157 137.077 95.0671 137.025C94.9773 136.972 94.9061 136.901 94.8537 136.812C94.8013 136.722 94.7751 136.624 94.7751 136.52C94.7751 136.417 94.8013 136.322 94.8537 136.235C94.9061 136.145 94.9773 136.074 95.0671 136.022C95.157 135.969 95.2543 135.943 95.3591 135.943C95.4589 135.943 95.5525 135.969 95.6399 136.022C95.7297 136.074 95.8008 136.145 95.8532 136.235C95.9081 136.322 95.9356 136.417 95.9356 136.52C95.9356 136.624 95.9081 136.722 95.8532 136.812C95.8008 136.901 95.7297 136.972 95.6399 137.025C95.5525 137.077 95.4589 137.104 95.3591 137.104ZM95.3591 134.199C95.2543 134.199 95.157 134.172 95.0671 134.12C94.9773 134.068 94.9061 133.996 94.8537 133.907C94.8013 133.817 94.7751 133.719 94.7751 133.615C94.7751 133.512 94.8013 133.417 94.8537 133.33C94.9061 133.24 94.9773 133.169 95.0671 133.117C95.157 133.064 95.2543 133.038 95.3591 133.038C95.4589 133.038 95.5525 133.064 95.6399 133.117C95.7297 133.169 95.8008 133.24 95.8532 133.33C95.9081 133.417 95.9356 133.512 95.9356 133.615C95.9356 133.719 95.9081 133.817 95.8532 133.907C95.8008 133.996 95.7297 134.068 95.6399 134.12C95.5525 134.172 95.4589 134.199 95.3591 134.199ZM98.848 137.852C98.4138 137.852 98.0407 137.744 97.7287 137.527C97.4193 137.307 97.1809 136.989 97.0137 136.572C96.849 136.155 96.7667 135.654 96.7667 135.067C96.7667 134.483 96.849 133.983 97.0137 133.566C97.1809 133.147 97.4205 132.828 97.7325 132.611C98.0444 132.392 98.4163 132.282 98.848 132.282C99.2773 132.282 99.6479 132.392 99.9599 132.611C100.274 132.828 100.514 133.147 100.679 133.566C100.846 133.983 100.929 134.483 100.929 135.067C100.929 135.654 100.846 136.155 100.679 136.572C100.514 136.989 100.276 137.307 99.9636 137.527C99.6541 137.744 99.2823 137.852 98.848 137.852ZM98.848 137.036C99.0776 137.036 99.2735 136.963 99.4358 136.815C99.6005 136.666 99.7265 136.445 99.8139 136.153C99.9037 135.858 99.9486 135.496 99.9486 135.067C99.9486 134.643 99.9037 134.283 99.8139 133.989C99.7265 133.692 99.6005 133.469 99.4358 133.319C99.271 133.167 99.0751 133.09 98.848 133.09C98.6209 133.09 98.425 133.167 98.2603 133.319C98.0956 133.469 97.9683 133.692 97.8785 133.989C97.7911 134.283 97.7474 134.643 97.7474 135.067C97.7474 135.496 97.7911 135.858 97.8785 136.153C97.9683 136.445 98.0943 136.666 98.2566 136.815C98.4213 136.963 98.6184 137.036 98.848 137.036ZM103.789 137.852C103.405 137.852 103.053 137.769 102.734 137.601C102.414 137.432 102.155 137.151 101.955 136.759C101.758 136.365 101.661 135.851 101.663 135.217C101.663 134.605 101.752 134.08 101.929 133.641C102.106 133.199 102.357 132.862 102.681 132.63C103.008 132.398 103.393 132.282 103.834 132.282C104.176 132.282 104.482 132.348 104.752 132.48C105.024 132.613 105.243 132.796 105.41 133.031C105.578 133.263 105.681 133.525 105.721 133.817H104.755C104.705 133.607 104.599 133.44 104.437 133.315C104.277 133.19 104.076 133.128 103.834 133.128C103.575 133.128 103.353 133.202 103.168 133.349C102.986 133.496 102.846 133.707 102.749 133.981C102.654 134.256 102.606 134.583 102.606 134.962H102.659C102.796 134.73 102.988 134.549 103.235 134.419C103.482 134.287 103.755 134.221 104.051 134.221C104.373 134.221 104.665 134.297 104.927 134.449C105.19 134.599 105.395 134.808 105.545 135.075C105.697 135.342 105.773 135.644 105.773 135.98C105.773 136.335 105.69 136.654 105.523 136.939C105.358 137.223 105.125 137.447 104.823 137.609C104.523 137.771 104.179 137.852 103.789 137.852ZM103.774 137.066C103.972 137.066 104.15 137.019 104.31 136.924C104.472 136.829 104.599 136.7 104.692 136.538C104.784 136.376 104.83 136.198 104.83 136.003C104.83 135.813 104.785 135.639 104.695 135.479C104.606 135.319 104.481 135.193 104.321 135.101C104.161 135.008 103.984 134.962 103.789 134.962C103.592 134.962 103.411 135.01 103.247 135.104C103.082 135.199 102.952 135.328 102.857 135.49C102.762 135.65 102.714 135.823 102.711 136.01C102.714 136.2 102.761 136.376 102.854 136.538C102.946 136.698 103.072 136.826 103.232 136.924C103.394 137.019 103.575 137.066 103.774 137.066Z" fill="white"/>
<g opacity="0.7">
<path fill-rule="evenodd" clip-rule="evenodd" d="M173.302 105.963C173.096 105.732 172.769 105.652 172.48 105.762C172.191 105.872 172 106.149 172 106.458V111.367L168.8 108.167C168.509 107.876 168.037 107.876 167.746 108.167C167.455 108.458 167.455 108.93 167.746 109.221L171.691 113.167L167.746 117.112C167.455 117.403 167.455 117.875 167.746 118.166C168.037 118.457 168.509 118.457 168.8 118.166L172 114.966V119.875C172 120.184 172.191 120.462 172.48 120.572C172.769 120.682 173.096 120.601 173.302 120.37L176.284 117.016C176.535 116.734 176.535 116.308 176.284 116.026L173.742 113.167L176.284 110.308C176.535 110.025 176.535 109.6 176.284 109.317L173.302 105.963ZM174.729 109.812L173.49 111.206V108.419L174.729 109.812ZM174.729 116.521L173.49 115.127V117.914L174.729 116.521Z" fill="white"/>
</g>
<path opacity="0.7" d="M160.597 132.327H163.517V131.795H164.341V134.056H159.774V131.795H160.597V132.327ZM163.517 133.427V132.933H160.597V133.427H163.517ZM165.142 135.142H158.973V134.491H165.142V135.142ZM164.371 137.253H160.522V137.747H164.558V138.384H159.706V136.669H163.555V136.235H159.699V135.621H164.371V137.253ZM171.057 133.832H167.171V134.506H171.206V135.172H166.332V133.203H170.203V132.581H166.317V131.908H171.057V133.832ZM171.775 136.415H169.087V138.451H168.256V136.415H165.591V135.748H171.775V136.415ZM178.401 136.392H175.713V138.444H174.89V136.392H172.217V135.711H178.401V136.392ZM177.735 135.149H173.011V131.967H177.66V132.626H173.834V133.225H177.51V133.869H173.834V134.491H177.735V135.149ZM182.347 132.604C182.347 132.951 182.452 133.289 182.661 133.618C182.873 133.948 183.165 134.232 183.537 134.472C183.909 134.709 184.326 134.867 184.788 134.947L184.413 135.644C183.847 135.524 183.343 135.303 182.901 134.981C182.462 134.657 182.132 134.266 181.913 133.809C181.688 134.263 181.355 134.653 180.913 134.977C180.471 135.299 179.969 135.521 179.405 135.644L179.038 134.947C179.494 134.865 179.906 134.705 180.273 134.468C180.642 134.229 180.932 133.944 181.141 133.615C181.354 133.285 181.461 132.948 181.463 132.604V132.102H182.347V132.604ZM185.035 137.583H178.85V136.894H185.035V137.583Z" fill="white"/>
<g opacity="0.7">
<path fill-rule="evenodd" clip-rule="evenodd" d="M253.819 107.684C253.576 107.461 253.199 107.478 252.977 107.721C252.755 107.964 252.772 108.342 253.015 108.564C255.845 111.151 255.826 115.233 253.018 117.767C252.773 117.988 252.754 118.365 252.974 118.61C253.195 118.854 253.572 118.873 253.817 118.653C257.151 115.644 257.165 110.742 253.819 107.684ZM243.971 110.521C243.971 110.52 243.971 110.52 243.972 110.52L247.925 107.73C248.616 107.242 249.57 107.736 249.57 108.583V117.729C249.57 118.575 248.616 119.069 247.924 118.581L244.245 115.983C244.069 115.859 243.859 115.792 243.643 115.792H242.05C241.474 115.792 241.007 115.325 241.007 114.749V111.566C241.007 110.99 241.474 110.523 242.05 110.523H243.969C243.97 110.523 243.971 110.522 243.971 110.521ZM251.373 110.061C251.589 109.812 251.966 109.785 252.214 110.001C254.24 111.757 254.232 114.602 252.212 116.332C251.961 116.546 251.585 116.517 251.371 116.267C251.157 116.017 251.186 115.641 251.436 115.426C252.899 114.173 252.911 112.184 251.433 110.902C251.184 110.686 251.158 110.31 251.373 110.061Z" fill="white"/>
</g>
<path opacity="0.7" d="M242.448 132.604C242.448 132.951 242.553 133.289 242.762 133.618C242.975 133.948 243.267 134.232 243.638 134.472C244.01 134.709 244.427 134.867 244.889 134.947L244.514 135.644C243.948 135.524 243.444 135.303 243.002 134.981C242.563 134.657 242.233 134.266 242.014 133.809C241.789 134.263 241.456 134.653 241.014 134.977C240.572 135.299 240.07 135.521 239.506 135.644L239.139 134.947C239.595 134.865 240.007 134.705 240.374 134.468C240.743 134.229 241.033 133.944 241.243 133.615C241.455 133.285 241.562 132.948 241.565 132.604V132.102H242.448V132.604ZM245.136 137.583H238.952V136.894H245.136V137.583ZM251.23 138.444H250.392V131.675H251.23V138.444ZM249.583 133.016H248.932V136.052C249.291 136.022 249.608 135.99 249.883 135.958L249.927 136.579C249.276 136.684 248.596 136.754 247.887 136.789C247.178 136.824 246.431 136.841 245.645 136.841L245.563 136.16C245.727 136.16 246.007 136.158 246.401 136.153V133.016H245.742V132.334H249.583V133.016ZM247.202 136.134C247.507 136.126 247.811 136.115 248.116 136.1V133.016H247.202V136.134ZM255.662 132.342C255.66 133.078 255.57 133.746 255.393 134.345C255.216 134.941 254.905 135.498 254.461 136.014C254.017 136.528 253.406 136.986 252.63 137.388L252.174 136.752C252.728 136.465 253.186 136.153 253.547 135.816C253.912 135.476 254.195 135.102 254.397 134.693L252.323 134.887L252.204 134.176L254.655 134.026C254.745 133.719 254.804 133.382 254.831 133.016H252.555V132.342H255.662ZM257.871 138.444H257.04V135H255.648V134.318H257.04V131.675H257.871V138.444Z" fill="white"/>
<rect x="73.6104" y="156.611" width="43.4444" height="28.1111" rx="14.0556" fill="white"/>
<path fill-rule="evenodd" clip-rule="evenodd" d="M91.9788 163.679C91.0526 163.679 90.3018 164.43 90.3018 165.356V175.977C90.3018 176.904 91.0526 177.654 91.9788 177.654H98.6872C99.6134 177.654 100.364 176.904 100.364 175.977V174.188C100.005 174.274 99.6284 174.323 99.2403 174.331V175.551C99.2403 176.045 98.8399 176.445 98.3459 176.445H92.3204C91.8264 176.445 91.4259 176.045 91.4259 175.551V165.78C91.4259 165.286 91.8264 164.885 92.3204 164.885H98.3459C98.8399 164.885 99.2403 165.286 99.2403 165.78V166.064C99.6284 166.073 100.005 166.122 100.364 166.207V165.356C100.364 164.43 99.6134 163.679 98.6872 163.679H91.9788ZM99.0593 166.938C97.001 166.938 95.3325 168.398 95.3325 170.199C95.3325 170.735 95.4805 171.242 95.7428 171.688C95.7925 171.772 95.8037 171.871 95.7675 171.961L95.4216 172.817C95.2963 173.127 95.6378 173.426 95.9922 173.317L96.9324 173.026C97.0388 172.993 97.1561 173.005 97.2549 173.053C97.7895 173.312 98.4047 173.46 99.0593 173.46C101.118 173.46 102.786 172 102.786 170.199C102.786 168.398 101.118 166.938 99.0593 166.938ZM99.5667 170.202C99.5667 169.921 99.3391 169.693 99.0585 169.693C98.7778 169.693 98.5503 169.921 98.5503 170.202C98.5503 170.482 98.7778 170.71 99.0585 170.71C99.3391 170.71 99.5667 170.482 99.5667 170.202ZM100.753 169.693C101.034 169.693 101.261 169.921 101.261 170.202C101.261 170.482 101.034 170.71 100.753 170.71C100.472 170.71 100.245 170.482 100.245 170.202C100.245 169.921 100.472 169.693 100.753 169.693ZM97.8721 170.202C97.8721 169.921 97.6446 169.693 97.3639 169.693C97.0832 169.693 96.8557 169.921 96.8557 170.202C96.8557 170.482 97.0832 170.71 97.3639 170.71C97.6446 170.71 97.8721 170.482 97.8721 170.202Z" fill="#181A1B"/>
<path opacity="0.7" d="M84.2671 195.128H78.0829V194.446H80.7483V193.129H78.7642V189.625H79.5953V190.733H82.7323V189.625H83.5634V193.129H81.5718V194.446H84.2671V195.128ZM82.7323 192.455V191.399H79.5953V192.455H82.7323ZM90.3391 195.951H89.5005V189.175H90.3391V195.951ZM86.6929 189.67C87.0323 189.67 87.3343 189.768 87.5988 189.965C87.8659 190.16 88.0755 190.438 88.2278 190.8C88.38 191.16 88.4574 191.579 88.4599 192.058C88.4574 192.54 88.38 192.961 88.2278 193.323C88.078 193.685 87.8696 193.965 87.6026 194.162C87.3356 194.356 87.0323 194.454 86.6929 194.454C86.351 194.454 86.0465 194.356 85.7795 194.162C85.5125 193.965 85.3028 193.685 85.1506 193.323C85.0009 192.961 84.926 192.54 84.926 192.058C84.926 191.579 85.0009 191.16 85.1506 190.8C85.3028 190.438 85.5125 190.16 85.7795 189.965C86.0465 189.768 86.351 189.67 86.6929 189.67ZM86.6929 190.418C86.5008 190.418 86.3311 190.483 86.1838 190.613C86.0391 190.743 85.9268 190.931 85.8469 191.178C85.767 191.425 85.7271 191.719 85.7271 192.058C85.7271 192.4 85.767 192.694 85.8469 192.941C85.9268 193.188 86.0391 193.378 86.1838 193.51C86.3311 193.64 86.5008 193.705 86.6929 193.705C86.8826 193.705 87.0498 193.64 87.1946 193.51C87.3393 193.378 87.4516 193.188 87.5315 192.941C87.6113 192.694 87.6513 192.4 87.6513 192.058C87.6513 191.719 87.6113 191.427 87.5315 191.182C87.4516 190.935 87.3393 190.746 87.1946 190.617C87.0498 190.484 86.8826 190.418 86.6929 190.418ZM96.8153 191.751H92.1285V189.423H92.952V191.092H96.8153V191.751ZM97.5116 193.196H91.3274V192.537H97.5116V193.196ZM96.8602 195.786H92.0686V193.795H92.8996V195.113H96.8602V195.786ZM105.448 194.124H104.617V191.646H103.419V190.972H104.617V189.183H105.448V194.124ZM105.62 195.809H101.008V193.69H101.839V195.135H105.62V195.809ZM102.266 190.531C102.266 190.808 102.327 191.078 102.449 191.343C102.572 191.605 102.752 191.841 102.992 192.05C103.232 192.258 103.521 192.417 103.861 192.53L103.441 193.196C103.072 193.069 102.752 192.884 102.483 192.642C102.216 192.397 102.006 192.112 101.854 191.785C101.702 192.149 101.485 192.466 101.203 192.736C100.921 193.003 100.584 193.203 100.192 193.338L99.7652 192.664C100.115 192.55 100.413 192.382 100.66 192.163C100.909 191.941 101.098 191.689 101.225 191.407C101.355 191.122 101.42 190.828 101.42 190.523V190.343H100.012V189.67H103.666V190.343H102.266V190.531ZM111.759 191.968H112.71V192.664H111.759V195.944H110.921V189.175H111.759V191.968ZM106.324 194.064C107.062 194.064 107.639 194.059 108.053 194.049V193.417C107.809 193.374 107.594 193.297 107.409 193.185C107.227 193.072 107.086 192.931 106.986 192.762C106.887 192.59 106.838 192.4 106.84 192.193C106.838 191.941 106.905 191.719 107.043 191.526C107.18 191.334 107.373 191.186 107.623 191.081C107.872 190.974 108.158 190.92 108.48 190.92C108.797 190.92 109.079 190.974 109.326 191.081C109.576 191.186 109.77 191.334 109.91 191.526C110.052 191.719 110.125 191.941 110.127 192.193C110.125 192.402 110.072 192.592 109.97 192.762C109.868 192.931 109.723 193.074 109.536 193.188C109.351 193.301 109.136 193.377 108.892 193.417V194.02C109.538 193.985 110.095 193.935 110.561 193.87L110.614 194.476C109.97 194.591 109.311 194.666 108.637 194.701C107.963 194.736 107.232 194.753 106.444 194.753L106.324 194.064ZM110.487 190.613H106.451V189.954H108.053V189.205H108.892V189.954H110.487V190.613ZM108.48 191.556C108.218 191.561 108.01 191.62 107.855 191.732C107.703 191.842 107.627 191.996 107.627 192.193C107.627 192.387 107.704 192.54 107.859 192.649C108.013 192.759 108.22 192.812 108.48 192.807C108.737 192.812 108.942 192.759 109.094 192.649C109.249 192.537 109.326 192.385 109.326 192.193C109.326 191.998 109.249 191.845 109.094 191.732C108.942 191.62 108.737 191.561 108.48 191.556Z" fill="white"/>
<g opacity="0.7">
<path fill-rule="evenodd" clip-rule="evenodd" d="M169.019 167.747V171.189C169.019 172.836 170.354 174.171 172 174.171C172.705 174.171 173.352 173.927 173.862 173.519L174.437 174.203C173.771 174.742 172.923 175.065 172 175.065C169.86 175.065 168.124 173.329 168.124 171.189V169.698C168.124 169.369 167.857 169.102 167.528 169.102C167.199 169.102 166.932 169.369 166.932 169.698V171.189C166.932 173.786 168.885 175.927 171.404 176.223V177.525C171.404 177.854 171.671 178.121 172 178.121C172.329 178.121 172.596 177.854 172.596 177.525V176.223C173.579 176.107 174.475 175.711 175.203 175.117L176.224 176.333C176.462 176.617 176.885 176.654 177.169 176.416C177.453 176.178 177.49 175.754 177.251 175.471L167.669 164.051C167.431 163.767 167.008 163.73 166.724 163.968C166.44 164.206 166.403 164.63 166.641 164.913L169.019 167.747ZM174.982 166.27V171.132L169.517 164.62C170.051 163.817 170.964 163.289 172 163.289C173.647 163.289 174.982 164.623 174.982 166.27ZM176.568 173.389C176.889 172.723 177.069 171.977 177.069 171.189V169.698C177.069 169.369 176.802 169.102 176.472 169.102C176.143 169.102 175.876 169.369 175.876 169.698V171.189C175.876 171.594 175.814 171.985 175.698 172.353L176.568 173.389Z" fill="white"/>
</g>
<path opacity="0.7" d="M159.65 195.944H158.849V192.522H158.1V195.599H157.322V189.303H158.1V191.841H158.849V189.175H159.65V195.944ZM154.971 193.525C155.655 193.513 156.298 193.446 156.902 193.323L156.985 194.049C156.556 194.127 156.146 194.182 155.757 194.214C155.368 194.244 154.976 194.259 154.581 194.259H154.132V189.954H154.971V193.525ZM168.47 195.105H162.286V194.431H164.936V192.867H165.759V194.431H168.47V195.105ZM165.782 190.081C165.782 190.421 165.887 190.75 166.096 191.07C166.309 191.389 166.601 191.664 166.972 191.893C167.347 192.12 167.766 192.27 168.23 192.342L167.871 193.031C167.299 192.924 166.79 192.716 166.343 192.406C165.899 192.094 165.565 191.717 165.34 191.276C165.19 191.568 164.991 191.835 164.741 192.077C164.492 192.316 164.203 192.518 163.877 192.683C163.55 192.845 163.199 192.961 162.825 193.031L162.465 192.342C162.924 192.27 163.339 192.12 163.708 191.893C164.08 191.664 164.371 191.389 164.58 191.07C164.79 190.748 164.896 190.418 164.898 190.081V189.587H165.782V190.081ZM174.549 195.951H173.726V189.175H174.549V195.951ZM172.468 192.305H170.139V193.668C170.711 193.663 171.235 193.643 171.712 193.608C172.191 193.573 172.68 193.513 173.179 193.428L173.254 194.109C172.717 194.204 172.19 194.268 171.67 194.3C171.151 194.333 170.554 194.349 169.877 194.349H169.286V191.646H171.622V190.441H169.278V189.767H172.468V192.305ZM179.738 191.324C179.738 191.664 179.8 192.002 179.925 192.339C180.052 192.676 180.237 192.983 180.479 193.26C180.721 193.537 181.01 193.755 181.347 193.915L180.883 194.544C180.526 194.376 180.216 194.136 179.951 193.821C179.689 193.507 179.484 193.146 179.337 192.739C179.185 193.178 178.969 193.567 178.69 193.903C178.412 194.24 178.086 194.494 177.709 194.663L177.252 194.02C177.596 193.865 177.893 193.644 178.143 193.357C178.395 193.07 178.586 192.749 178.716 192.395C178.848 192.04 178.914 191.684 178.914 191.324V190.972H177.469V190.306H178.914V189.318H179.745V190.306H181.168V190.972H179.738V191.324ZM182.658 191.856H183.698V192.552H182.658V195.944H181.827V189.175H182.658V191.856ZM189.321 191.077H190.272V191.766H189.321V194.072H188.49V189.175H189.321V191.077ZM187.3 190.403H185.091V192.245H185.233C185.842 192.245 186.34 192.23 186.727 192.2C187.116 192.17 187.499 192.115 187.876 192.035L187.966 192.709C187.534 192.794 187.09 192.852 186.633 192.882C186.176 192.911 185.57 192.926 184.814 192.926H184.267V189.737H187.3V190.403ZM189.591 195.809H184.986V193.555H185.817V195.135H189.591V195.809Z" fill="white"/>
<g opacity="0.7">
<path fill-rule="evenodd" clip-rule="evenodd" d="M244.192 166.567C245.015 166.567 245.683 165.9 245.683 165.077C245.683 164.253 245.015 163.586 244.192 163.586C243.369 163.586 242.701 164.253 242.701 165.077C242.701 165.9 243.369 166.567 244.192 166.567ZM244.192 170.294C245.015 170.294 245.683 169.627 245.683 168.804C245.683 167.98 245.015 167.313 244.192 167.313C243.369 167.313 242.701 167.98 242.701 168.804C242.701 169.627 243.369 170.294 244.192 170.294ZM245.683 172.53C245.683 173.354 245.015 174.021 244.192 174.021C243.369 174.021 242.701 173.354 242.701 172.53C242.701 171.707 243.369 171.04 244.192 171.04C245.015 171.04 245.683 171.707 245.683 172.53ZM248.664 166.567C249.487 166.567 250.155 165.9 250.155 165.077C250.155 164.253 249.487 163.586 248.664 163.586C247.841 163.586 247.173 164.253 247.173 165.077C247.173 165.9 247.841 166.567 248.664 166.567ZM250.155 168.804C250.155 169.627 249.487 170.294 248.664 170.294C247.841 170.294 247.173 169.627 247.173 168.804C247.173 167.98 247.841 167.313 248.664 167.313C249.487 167.313 250.155 167.98 250.155 168.804ZM248.664 174.021C249.487 174.021 250.155 173.354 250.155 172.53C250.155 171.707 249.487 171.04 248.664 171.04C247.841 171.04 247.173 171.707 247.173 172.53C247.173 173.354 247.841 174.021 248.664 174.021ZM250.155 176.257C250.155 177.081 249.487 177.748 248.664 177.748C247.841 177.748 247.173 177.081 247.173 176.257C247.173 175.434 247.841 174.766 248.664 174.766C249.487 174.766 250.155 175.434 250.155 176.257ZM253.136 166.567C253.96 166.567 254.627 165.9 254.627 165.077C254.627 164.253 253.96 163.586 253.136 163.586C252.313 163.586 251.646 164.253 251.646 165.077C251.646 165.9 252.313 166.567 253.136 166.567ZM254.627 168.804C254.627 169.627 253.96 170.294 253.136 170.294C252.313 170.294 251.646 169.627 251.646 168.804C251.646 167.98 252.313 167.313 253.136 167.313C253.96 167.313 254.627 167.98 254.627 168.804ZM253.136 174.021C253.96 174.021 254.627 173.354 254.627 172.53C254.627 171.707 253.96 171.04 253.136 171.04C252.313 171.04 251.646 171.707 251.646 172.53C251.646 173.354 252.313 174.021 253.136 174.021Z" fill="white"/>
</g>
<path opacity="0.7" d="M242.62 189.842C242.618 190.581 242.525 191.251 242.343 191.852C242.161 192.454 241.839 193.014 241.377 193.533C240.918 194.049 240.287 194.504 239.483 194.896L239.041 194.252C239.615 193.972 240.09 193.663 240.464 193.323C240.841 192.981 241.134 192.604 241.344 192.193L239.191 192.387L239.086 191.676L241.609 191.519C241.697 191.222 241.757 190.887 241.789 190.516H239.431V189.842H242.62ZM244.604 195.944H243.766V189.175H244.604V195.944ZM251.417 195.944H250.616V192.507H249.942V195.599H249.156V189.303H249.942V191.826H250.616V189.175H251.417V195.944ZM248.767 190.65H248.28V193.567C248.527 193.544 248.72 193.523 248.857 193.503L248.902 194.109C248.126 194.269 247.025 194.349 245.6 194.349L245.503 193.66C245.77 193.66 245.979 193.659 246.132 193.656V190.65H245.637V189.977H248.767V190.65ZM246.88 193.641C246.928 193.639 246.986 193.636 247.056 193.634C247.126 193.631 247.207 193.63 247.3 193.63C247.349 193.625 247.393 193.623 247.431 193.623C247.468 193.62 247.499 193.619 247.524 193.619V190.65H246.88V193.641ZM257.699 193.016H252.952V189.767H257.647V190.441H253.776V192.35H257.699V193.016ZM258.388 195.083H252.204V194.394H258.388V195.083Z" fill="white"/>
<g opacity="0.7">
<path d="M90.3018 222.856C90.3018 221.93 91.0526 221.179 91.9788 221.179H98.6872C99.6134 221.179 100.364 221.93 100.364 222.856V223.708C100.005 223.622 99.6282 223.573 99.2401 223.565V223.28C99.2401 222.786 98.8397 222.386 98.3457 222.386H92.3202C91.8262 222.386 91.4257 222.786 91.4257 223.28V233.051C91.4257 233.545 91.8262 233.946 92.3202 233.946H98.3457C98.8397 233.946 99.2401 233.545 99.2401 233.051V231.832C99.6282 231.823 100.005 231.774 100.364 231.688V233.477C100.364 234.404 99.6134 235.154 98.6872 235.154H91.9788C91.0526 235.154 90.3018 234.404 90.3018 233.477V222.856Z" fill="white"/>
<path d="M102.001 225.614C102.176 225.789 102.176 226.072 102.001 226.247L100.539 227.709L102.002 229.172C102.176 229.346 102.176 229.63 102.002 229.804C101.827 229.979 101.544 229.979 101.369 229.804L99.9065 228.341L98.4436 229.804C98.269 229.979 97.9858 229.979 97.8112 229.804C97.6365 229.63 97.6365 229.346 97.8112 229.172L99.274 227.709L97.8117 226.247C97.637 226.072 97.637 225.789 97.8117 225.614C97.9863 225.44 98.2695 225.44 98.4441 225.614L99.9065 227.077L101.369 225.614C101.543 225.44 101.827 225.44 102.001 225.614Z" fill="white"/>
</g>
<path opacity="0.7" d="M76.7315 252.628H70.5473V251.946H73.2126V250.629H71.2286V247.125H72.0596V248.233H75.1967V247.125H76.0277V250.629H74.0362V251.946H76.7315V252.628ZM75.1967 249.955V248.899H72.0596V249.955H75.1967ZM82.8034 253.451H81.9649V246.675H82.8034V253.451ZM79.1573 247.17C79.4967 247.17 79.7987 247.268 80.0632 247.465C80.3302 247.66 80.5399 247.938 80.6921 248.3C80.8443 248.66 80.9217 249.079 80.9242 249.558C80.9217 250.04 80.8443 250.461 80.6921 250.823C80.5424 251.185 80.334 251.465 80.0669 251.662C79.7999 251.856 79.4967 251.954 79.1573 251.954C78.8154 251.954 78.5109 251.856 78.2439 251.662C77.9768 251.465 77.7672 251.185 77.615 250.823C77.4652 250.461 77.3904 250.04 77.3904 249.558C77.3904 249.079 77.4652 248.66 77.615 248.3C77.7672 247.938 77.9768 247.66 78.2439 247.465C78.5109 247.268 78.8154 247.17 79.1573 247.17ZM79.1573 247.918C78.9651 247.918 78.7954 247.983 78.6482 248.113C78.5034 248.243 78.3911 248.431 78.3113 248.678C78.2314 248.925 78.1915 249.219 78.1915 249.558C78.1915 249.9 78.2314 250.194 78.3113 250.441C78.3911 250.688 78.5034 250.878 78.6482 251.01C78.7954 251.14 78.9651 251.205 79.1573 251.205C79.347 251.205 79.5142 251.14 79.6589 251.01C79.8037 250.878 79.916 250.688 79.9958 250.441C80.0757 250.194 80.1156 249.9 80.1156 249.558C80.1156 249.219 80.0757 248.927 79.9958 248.682C79.916 248.435 79.8037 248.246 79.6589 248.117C79.5142 247.984 79.347 247.918 79.1573 247.918ZM89.2797 249.251H84.5928V246.923H85.4164V248.592H89.2797V249.251ZM89.976 250.696H83.7917V250.037H89.976V250.696ZM89.3246 253.286H84.5329V251.295H85.364V252.613H89.3246V253.286ZM97.9122 251.624H97.0811V249.146H95.8832V248.472H97.0811V246.683H97.9122V251.624ZM98.0844 253.309H93.4724V251.19H94.3034V252.635H98.0844V253.309ZM94.7302 248.031C94.7302 248.308 94.7913 248.578 94.9136 248.843C95.0359 249.105 95.2168 249.341 95.4564 249.55C95.696 249.758 95.9855 249.917 96.3249 250.03L95.9057 250.696C95.5363 250.569 95.2168 250.384 94.9473 250.142C94.6803 249.897 94.4706 249.612 94.3184 249.285C94.1662 249.649 93.9491 249.966 93.667 250.236C93.385 250.503 93.0481 250.703 92.6563 250.838L92.2295 250.164C92.5789 250.05 92.8772 249.882 93.1242 249.663C93.3738 249.441 93.5622 249.189 93.6895 248.907C93.8193 248.622 93.8842 248.328 93.8842 248.023V247.843H92.4766V247.17H96.1303V247.843H94.7302V248.031ZM104.224 249.468H105.175V250.164H104.224V253.444H103.385V246.675H104.224V249.468ZM98.7881 251.564C99.5269 251.564 100.103 251.559 100.518 251.549V250.917C100.273 250.874 100.058 250.797 99.8737 250.685C99.6916 250.572 99.5506 250.431 99.4507 250.262C99.3509 250.09 99.3022 249.9 99.3047 249.693C99.3022 249.441 99.3696 249.219 99.5069 249.026C99.6441 248.834 99.8376 248.686 100.087 248.581C100.337 248.474 100.622 248.42 100.944 248.42C101.261 248.42 101.543 248.474 101.79 248.581C102.04 248.686 102.235 248.834 102.374 249.026C102.517 249.219 102.589 249.441 102.592 249.693C102.589 249.902 102.537 250.092 102.434 250.262C102.332 250.431 102.187 250.574 102 250.688C101.815 250.801 101.601 250.877 101.356 250.917V251.52C102.003 251.485 102.559 251.435 103.026 251.37L103.078 251.976C102.434 252.091 101.775 252.166 101.102 252.201C100.428 252.236 99.6966 252.253 98.9079 252.253L98.7881 251.564ZM102.951 248.113H98.9154V247.454H100.518V246.705H101.356V247.454H102.951V248.113ZM100.944 249.056C100.682 249.061 100.474 249.12 100.319 249.232C100.167 249.342 100.091 249.496 100.091 249.693C100.091 249.887 100.168 250.04 100.323 250.149C100.478 250.259 100.685 250.312 100.944 250.307C101.201 250.312 101.406 250.259 101.558 250.149C101.713 250.037 101.79 249.885 101.79 249.693C101.79 249.498 101.713 249.345 101.558 249.232C101.406 249.12 101.201 249.061 100.944 249.056ZM112.654 248.203H113.597V248.892H112.654V250.471H111.823V246.675H112.654V248.203ZM110.61 247.776H108.424V249.468H108.566C109.175 249.468 109.673 249.453 110.06 249.423C110.449 249.393 110.832 249.338 111.209 249.258L111.299 249.932C110.862 250.022 110.414 250.083 109.955 250.116C109.498 250.148 108.896 250.164 108.147 250.164H107.6V247.102H110.61V247.776ZM112.706 251.482H109.128V252.688H112.834V253.361H108.297V250.816H112.706V251.482ZM119.594 253.444H118.756V246.675H119.594V253.444ZM117.573 247.394C117.573 248.47 117.33 249.414 116.843 250.228C116.356 251.039 115.549 251.712 114.421 252.246L113.987 251.579C114.858 251.165 115.513 250.67 115.952 250.093C116.394 249.514 116.652 248.834 116.727 248.053H114.331V247.394H117.573Z" fill="white"/>
<circle cx="172.001" cy="234.944" r="22.3611" fill="#F73D3E"/>
<g clip-path="url(#clip3_1300_8440)">
<path d="M172 229.682C166.779 229.683 163.942 231.832 163.029 232.68C161.641 233.97 161.359 236.295 162.037 237.99C162.203 238.404 162.583 238.723 163.059 238.781C164.669 238.979 166.275 238.669 167.855 238.382C168.538 238.257 169.006 237.616 168.908 236.923L168.503 234.966C168.458 234.749 168.584 234.533 168.798 234.475C169.622 234.25 170.899 233.996 171.999 233.996C173.099 233.996 174.31 234.246 175.07 234.467C175.27 234.525 175.39 234.724 175.36 234.93L175.053 237.007C175.005 237.67 175.465 238.255 176.11 238.376C177.537 238.644 179.289 239.046 180.978 238.782C181.439 238.71 181.798 238.394 181.957 237.996C182.636 236.3 182.361 233.969 180.97 232.678C180.058 231.83 177.221 229.682 172 229.682Z" fill="white"/>
</g>
<g opacity="0.7">
<path d="M243.554 229.125L248.665 234.236L253.776 229.125" stroke="white" stroke-width="1.19259" stroke-linecap="round" stroke-linejoin="round"/>
<path d="M248.665 234.236V222.097" stroke="white" stroke-width="1.19259" stroke-linecap="round" stroke-linejoin="round"/>
</g>
<path opacity="0.7" d="M237.091 253.451H236.267V249.783H234.89V251.812H231.67V247.2H232.509V248.884H234.074V247.2H234.89V249.101H236.267V246.675H237.091V253.451ZM234.074 251.145V249.535H232.509V251.145H234.074ZM244.211 251.025H238.027V250.367H244.211V251.025ZM243.575 253.309H238.806V251.415H239.622V252.635H243.575V253.309ZM243.522 249.872H238.821V246.908H243.47V247.551H239.652V248.076H243.305V248.697H239.652V249.236H243.522V249.872ZM251.788 249.318H252.791V250.015H251.788V253.429H250.957V246.675H251.788V249.318ZM249.999 247.379C249.999 249.6 248.973 251.215 246.921 252.223L246.45 251.579C247.273 251.17 247.908 250.675 248.355 250.093C248.804 249.512 249.071 248.837 249.156 248.068H246.817V247.379H249.999ZM258.751 253.451H257.927V246.675H258.751V253.451ZM256.669 249.805H254.341V251.168C254.913 251.163 255.437 251.143 255.913 251.108C256.392 251.073 256.882 251.013 257.381 250.928L257.456 251.609C256.919 251.704 256.391 251.768 255.872 251.8C255.353 251.833 254.755 251.849 254.079 251.849H253.488V249.146H255.823V247.941H253.48V247.267H256.669V249.805ZM265.392 253.444H264.553V246.675H265.392V253.444ZM263.37 247.394C263.37 248.47 263.127 249.414 262.64 250.228C262.154 251.039 261.346 251.712 260.218 252.246L259.784 251.579C260.655 251.165 261.31 250.67 261.749 250.093C262.191 249.514 262.449 248.834 262.524 248.053H260.128V247.394H263.37Z" fill="white"/>
<g filter="url(#filter0_d_1300_8440)">
<rect x="274" y="16" width="53" height="25" rx="12.5" fill="white" fill-opacity="0.5" shape-rendering="crispEdges"/>
<rect x="274.5" y="16.5" width="52" height="24" rx="12" stroke="#6D35DD" shape-rendering="crispEdges"/>
<g filter="url(#filter1_d_1300_8440)">
<path d="M286.589 33L290.075 23.1016H292.263L295.763 33H293.862L293.035 30.5527H289.31L288.489 33H286.589ZM292.557 29.1172L291.21 25.125H291.128L289.788 29.1172H292.557ZM305.306 28.0508C305.306 29.0944 305.11 29.999 304.718 30.7646C304.326 31.5303 303.786 32.1182 303.098 32.5283C302.414 32.9339 301.637 33.1367 300.767 33.1367C299.896 33.1367 299.117 32.9339 298.429 32.5283C297.745 32.1182 297.207 31.5303 296.815 30.7646C296.424 29.9945 296.228 29.0898 296.228 28.0508C296.228 27.0072 296.424 26.1025 296.815 25.3369C297.207 24.5713 297.745 23.9857 298.429 23.5801C299.117 23.1699 299.896 22.9648 300.767 22.9648C301.637 22.9648 302.414 23.1699 303.098 23.5801C303.786 23.9857 304.326 24.5713 304.718 25.3369C305.11 26.1025 305.306 27.0072 305.306 28.0508ZM303.515 28.0508C303.515 27.3125 303.398 26.6836 303.166 26.1641C302.938 25.64 302.617 25.2435 302.202 24.9746C301.787 24.7012 301.309 24.5645 300.767 24.5645C300.224 24.5645 299.746 24.7012 299.331 24.9746C298.916 25.2435 298.593 25.64 298.36 26.1641C298.132 26.6836 298.019 27.3125 298.019 28.0508C298.019 28.7891 298.132 29.4202 298.36 29.9443C298.593 30.4639 298.916 30.8604 299.331 31.1338C299.746 31.4027 300.224 31.5371 300.767 31.5371C301.309 31.5371 301.787 31.4027 302.202 31.1338C302.617 30.8604 302.938 30.4639 303.166 29.9443C303.398 29.4202 303.515 28.7891 303.515 28.0508ZM312.278 25.8223C312.237 25.403 312.048 25.0749 311.711 24.8379C311.378 24.6009 310.943 24.4824 310.405 24.4824C310.041 24.4824 309.722 24.5371 309.448 24.6465C309.175 24.7559 308.965 24.9085 308.819 25.1045C308.674 25.3005 308.601 25.5215 308.601 25.7676C308.601 26.1458 308.758 26.4398 309.072 26.6494C309.387 26.8545 309.795 27.0163 310.296 27.1348L311.226 27.3809C312.078 27.5768 312.773 27.9027 313.311 28.3584C313.853 28.8096 314.124 29.4316 314.124 30.2246C314.124 30.8034 313.976 31.3138 313.68 31.7559C313.383 32.1979 312.953 32.542 312.388 32.7881C311.827 33.0296 311.157 33.1504 310.378 33.1504C309.608 33.1504 308.94 33.0319 308.375 32.7949C307.81 32.5534 307.368 32.2048 307.049 31.749C306.734 31.2887 306.563 30.735 306.536 30.0879H308.286C308.327 30.5892 308.537 30.972 308.915 31.2363C309.298 31.5007 309.781 31.6328 310.364 31.6328C310.752 31.6328 311.096 31.5736 311.396 31.4551C311.697 31.3366 311.93 31.1702 312.094 30.9561C312.262 30.7373 312.347 30.4889 312.347 30.2109C312.347 29.8509 312.196 29.5706 311.896 29.3701C311.599 29.165 311.153 28.985 310.556 28.8301L309.435 28.543C307.675 28.0827 306.796 27.194 306.796 25.877C306.796 25.3027 306.953 24.7969 307.268 24.3594C307.582 23.9173 308.015 23.5755 308.566 23.334C309.122 23.0879 309.744 22.9648 310.433 22.9648C311.125 22.9648 311.738 23.0879 312.271 23.334C312.809 23.5755 313.226 23.9128 313.522 24.3457C313.823 24.7786 313.978 25.2708 313.987 25.8223H312.278Z" fill="#6D35DD"/>
</g>
</g>
</g>
<defs>
<filter id="filter0_d_1300_8440" x="261" y="7" width="79" height="51" filterUnits="userSpaceOnUse" color-interpolation-filters="sRGB">
<feFlood flood-opacity="0" result="BackgroundImageFix"/>
<feColorMatrix in="SourceAlpha" type="matrix" values="0 0 0 0 0 0 0 0 0 0 0 0 0 0 0 0 0 0 127 0" result="hardAlpha"/>
<feOffset dy="4"/>
<feGaussianBlur stdDeviation="6.5"/>
<feComposite in2="hardAlpha" operator="out"/>
<feColorMatrix type="matrix" values="0 0 0 0 0.74902 0 0 0 0 0.662745 0 0 0 0 0.819608 0 0 0 1 0"/>
<feBlend mode="normal" in2="BackgroundImageFix" result="effect1_dropShadow_1300_8440"/>
<feBlend mode="normal" in="SourceGraphic" in2="effect1_dropShadow_1300_8440" result="shape"/>
</filter>
<filter id="filter1_d_1300_8440" x="286.589" y="22.9648" width="27.5352" height="11.1855" filterUnits="userSpaceOnUse" color-interpolation-filters="sRGB">
<feFlood flood-opacity="0" result="BackgroundImageFix"/>
<feColorMatrix in="SourceAlpha" type="matrix" values="0 0 0 0 0 0 0 0 0 0 0 0 0 0 0 0 0 0 127 0" result="hardAlpha"/>
<feOffset dy="1"/>
<feComposite in2="hardAlpha" operator="out"/>
<feColorMatrix type="matrix" values="0 0 0 0 1 0 0 0 0 1 0 0 0 0 1 0 0 0 1 0"/>
<feBlend mode="normal" in2="BackgroundImageFix" result="effect1_dropShadow_1300_8440"/>
<feBlend mode="normal" in="SourceGraphic" in2="effect1_dropShadow_1300_8440" result="shape"/>
</filter>
<linearGradient id="paint0_linear_1300_8440" x1="347.872" y1="221" x2="21.2461" y2="35.9596" gradientUnits="userSpaceOnUse">
<stop stop-color="#DBB3F9"/>
<stop offset="1" stop-color="#D3E7FF"/>
</linearGradient>
<linearGradient id="paint1_linear_1300_8440" x1="73.8027" y1="-145.237" x2="73.8027" y2="325.008" gradientUnits="userSpaceOnUse">
<stop stop-color="#FBD3FA"/>
<stop offset="0.6" stop-color="#5930AC"/>
<stop offset="1" stop-color="#250F53"/>
</linearGradient>
<linearGradient id="paint2_linear_1300_8440" x1="74" y1="0" x2="74" y2="441.235" gradientUnits="userSpaceOnUse">
<stop offset="0.255" stop-color="#5B5B7B"/>
<stop offset="1" stop-color="#1C1E2B"/>
</linearGradient>
<linearGradient id="paint3_linear_1300_8440" x1="172" y1="88" x2="172" y2="273.278" gradientUnits="userSpaceOnUse">
<stop stop-color="#2E3041"/>
<stop offset="1" stop-color="#1A1D29"/>
</linearGradient>
<clipPath id="clip0_1300_8440">
<path d="M0 0H343V274C343 280.627 337.627 286 331 286H12C5.37258 286 0 280.627 0 274V0Z" fill="white"/>
</clipPath>
<clipPath id="clip1_1300_8440">
<rect x="97.5" y="30" width="148" height="280" rx="20" fill="white"/>
</clipPath>
<clipPath id="clip2_1300_8440">
<rect width="148" height="320.469" fill="white" transform="translate(97.5 29.7651)"/>
</clipPath>
<clipPath id="clip3_1300_8440">
<rect width="23" height="23" fill="white" transform="translate(160.501 223.444)"/>
</clipPath>
</defs>
</svg>
