<svg width="40" height="11" viewBox="0 0 40 11" fill="none" xmlns="http://www.w3.org/2000/svg">
<rect width="40" height="11" rx="3" fill="#383838"/>
<path d="M4.31102 6.07982C4.21265 6.01896 4.12521 5.96571 4.03414 5.91246C3.77547 5.75651 3.57874 5.52828 3.52773 5.22018C3.44758 4.7257 3.52045 4.30729 4.02321 3.99159C4.65712 3.596 5.29832 3.21943 5.93951 2.83526C6.56614 2.4625 7.39314 2.89612 7.48786 3.64545C7.55344 4.10189 7.33849 4.55073 6.94867 4.77135C6.86488 4.82079 6.77744 4.87405 6.68272 4.93491C6.77744 4.99196 6.85759 5.04521 6.94139 5.09466C7.60809 5.48644 7.69552 6.41074 7.10897 6.92044C6.99239 7.01934 6.85395 7.09161 6.7228 7.17148C6.17268 7.50621 5.61891 7.84094 5.06515 8.16805C4.55147 8.45714 3.91027 8.25174 3.63339 7.71541C3.37108 7.20572 3.53138 6.5743 3.9977 6.2662C4.10336 6.20915 4.20172 6.14829 4.31102 6.07982Z" fill="white"/>
<path d="M36.1056 6.81348C36.1056 6.71699 36.0908 6.6304 36.0611 6.55371C36.0339 6.47454 35.9819 6.4028 35.9052 6.33848C35.8286 6.27168 35.7209 6.20612 35.5824 6.1418C35.4438 6.07747 35.2645 6.01068 35.0443 5.94141C34.7994 5.86224 34.5668 5.77318 34.3466 5.67422C34.1289 5.57526 33.936 5.46022 33.7677 5.3291C33.602 5.19551 33.4709 5.04089 33.3744 4.86523C33.2804 4.68958 33.2334 4.48548 33.2334 4.25293C33.2334 4.0278 33.2828 3.8237 33.3818 3.64062C33.4808 3.45508 33.6193 3.29674 33.7974 3.16563C33.9756 3.03203 34.1858 2.92936 34.4283 2.85762C34.6732 2.78587 34.9416 2.75 35.2336 2.75C35.6319 2.75 35.9795 2.82174 36.2763 2.96523C36.5732 3.10872 36.8033 3.3054 36.9666 3.55527C37.1323 3.80514 37.2152 4.09089 37.2152 4.4125H36.1093C36.1093 4.25417 36.0759 4.11563 36.0091 3.99687C35.9448 3.87565 35.8459 3.7804 35.7123 3.71113C35.5812 3.64186 35.4154 3.60723 35.215 3.60723C35.022 3.60723 34.8612 3.63691 34.7326 3.69629C34.6039 3.75319 34.5075 3.83112 34.4431 3.93008C34.3788 4.02656 34.3466 4.13542 34.3466 4.25664C34.3466 4.34818 34.3689 4.43105 34.4134 4.50527C34.4605 4.57949 34.5297 4.64876 34.6213 4.71309C34.7128 4.77741 34.8254 4.83802 34.959 4.89492C35.0925 4.95182 35.2472 5.00749 35.4228 5.06191C35.7172 5.15098 35.9758 5.25117 36.1984 5.3625C36.4235 5.47383 36.6116 5.59876 36.7625 5.7373C36.9134 5.87585 37.0272 6.03294 37.1039 6.20859C37.1806 6.38424 37.2189 6.5834 37.2189 6.80605C37.2189 7.04108 37.1731 7.25137 37.0816 7.43691C36.9901 7.62246 36.8577 7.77956 36.6845 7.9082C36.5114 8.03685 36.3048 8.13457 36.0648 8.20137C35.8248 8.26816 35.5564 8.30156 35.2595 8.30156C34.9924 8.30156 34.7289 8.26693 34.4691 8.19766C34.2093 8.12591 33.9731 8.01829 33.7603 7.8748C33.55 7.73132 33.3818 7.54824 33.2556 7.32559C33.1295 7.10293 33.0664 6.83945 33.0664 6.53516H34.1834C34.1834 6.70339 34.2093 6.84564 34.2613 6.96191C34.3133 7.07819 34.3862 7.1722 34.4802 7.24395C34.5767 7.31569 34.6905 7.36764 34.8216 7.3998C34.9552 7.43197 35.1012 7.44805 35.2595 7.44805C35.4525 7.44805 35.6108 7.42083 35.7345 7.36641C35.8607 7.31198 35.9535 7.23652 36.0129 7.14004C36.0747 7.04355 36.1056 6.9347 36.1056 6.81348Z" fill="white"/>
<path d="M31.3301 2.82422V8.22734H30.2205V2.82422H31.3301ZM32.9926 2.82422V3.69629H28.584V2.82422H32.9926Z" fill="white"/>
<path d="M24.541 2.82422H26.5561C26.9692 2.82422 27.3242 2.88607 27.6211 3.00977C27.9204 3.13346 28.1505 3.31654 28.3113 3.55898C28.4721 3.80143 28.5525 4.09954 28.5525 4.45332C28.5525 4.74277 28.5031 4.99141 28.4041 5.19922C28.3076 5.40456 28.1703 5.5765 27.9922 5.71504C27.8165 5.85111 27.61 5.95996 27.3725 6.0416L27.0199 6.22715H25.2684L25.2609 5.35879H26.5635C26.7589 5.35879 26.921 5.32415 27.0496 5.25488C27.1783 5.18561 27.2747 5.08913 27.3391 4.96543C27.4059 4.84173 27.4393 4.69824 27.4393 4.53496C27.4393 4.36178 27.4071 4.21211 27.3428 4.08594C27.2785 3.95977 27.1807 3.86328 27.0496 3.79648C26.9185 3.72969 26.754 3.69629 26.5561 3.69629H25.6543V8.22734H24.541V2.82422ZM27.5617 8.22734L26.3297 5.81895L27.5061 5.81152L28.7529 8.17539V8.22734H27.5617Z" fill="white"/>
<path d="M24.0137 5.39961V5.65566C24.0137 6.06634 23.958 6.43496 23.8467 6.76152C23.7354 7.08809 23.5783 7.36641 23.3754 7.59648C23.1725 7.82409 22.9301 7.9985 22.648 8.11973C22.3685 8.24095 22.058 8.30156 21.7166 8.30156C21.3777 8.30156 21.0672 8.24095 20.7852 8.11973C20.5056 7.9985 20.2632 7.82409 20.0578 7.59648C19.8525 7.36641 19.6929 7.08809 19.5791 6.76152C19.4678 6.43496 19.4121 6.06634 19.4121 5.65566V5.39961C19.4121 4.98646 19.4678 4.61784 19.5791 4.29375C19.6904 3.96719 19.8475 3.68887 20.0504 3.45879C20.2557 3.22871 20.4982 3.05306 20.7777 2.93184C21.0598 2.81061 21.3702 2.75 21.7092 2.75C22.0506 2.75 22.3611 2.81061 22.6406 2.93184C22.9227 3.05306 23.1651 3.22871 23.368 3.45879C23.5733 3.68887 23.7316 3.96719 23.843 4.29375C23.9568 4.61784 24.0137 4.98646 24.0137 5.39961ZM22.8893 5.65566V5.39219C22.8893 5.10521 22.8633 4.85286 22.8113 4.63516C22.7594 4.41745 22.6827 4.23438 22.5812 4.08594C22.4798 3.9375 22.3561 3.82617 22.2102 3.75195C22.0642 3.67526 21.8972 3.63691 21.7092 3.63691C21.5212 3.63691 21.3542 3.67526 21.2082 3.75195C21.0647 3.82617 20.9423 3.9375 20.8408 4.08594C20.7419 4.23438 20.6664 4.41745 20.6145 4.63516C20.5625 4.85286 20.5365 5.10521 20.5365 5.39219V5.65566C20.5365 5.94017 20.5625 6.19251 20.6145 6.4127C20.6664 6.6304 20.7431 6.81471 20.8445 6.96562C20.946 7.11406 21.0697 7.22663 21.2156 7.30332C21.3616 7.38001 21.5286 7.41836 21.7166 7.41836C21.9046 7.41836 22.0716 7.38001 22.2176 7.30332C22.3635 7.22663 22.486 7.11406 22.585 6.96562C22.6839 6.81471 22.7594 6.6304 22.8113 6.4127C22.8633 6.19251 22.8893 5.94017 22.8893 5.65566Z" fill="white"/>
<path d="M18.0857 5.0248V5.89316H15.2654V5.0248H18.0857ZM15.5957 2.82422V8.22734H14.4824V2.82422H15.5957ZM18.8799 2.82422V8.22734H17.7703V2.82422H18.8799Z" fill="white"/>
<path d="M12.885 6.81348C12.885 6.71699 12.8701 6.6304 12.8404 6.55371C12.8132 6.47454 12.7613 6.4028 12.6846 6.33848C12.6079 6.27168 12.5003 6.20612 12.3617 6.1418C12.2232 6.07747 12.0438 6.01068 11.8236 5.94141C11.5787 5.86224 11.3462 5.77318 11.126 5.67422C10.9083 5.57526 10.7153 5.46022 10.5471 5.3291C10.3813 5.19551 10.2502 5.04089 10.1537 4.86523C10.0597 4.68958 10.0127 4.48548 10.0127 4.25293C10.0127 4.0278 10.0622 3.8237 10.1611 3.64062C10.2601 3.45508 10.3986 3.29674 10.5768 3.16563C10.7549 3.03203 10.9652 2.92936 11.2076 2.85762C11.4525 2.78587 11.721 2.75 12.0129 2.75C12.4112 2.75 12.7588 2.82174 13.0557 2.96523C13.3525 3.10872 13.5826 3.3054 13.7459 3.55527C13.9117 3.80514 13.9945 4.09089 13.9945 4.4125H12.8887C12.8887 4.25417 12.8553 4.11563 12.7885 3.99687C12.7242 3.87565 12.6252 3.7804 12.4916 3.71113C12.3605 3.64186 12.1947 3.60723 11.9943 3.60723C11.8014 3.60723 11.6406 3.63691 11.5119 3.69629C11.3833 3.75319 11.2868 3.83112 11.2225 3.93008C11.1581 4.02656 11.126 4.13542 11.126 4.25664C11.126 4.34818 11.1482 4.43105 11.1928 4.50527C11.2398 4.57949 11.309 4.64876 11.4006 4.71309C11.4921 4.77741 11.6047 4.83802 11.7383 4.89492C11.8719 4.95182 12.0265 5.00749 12.2021 5.06191C12.4965 5.15098 12.7551 5.25117 12.9777 5.3625C13.2029 5.47383 13.3909 5.59876 13.5418 5.7373C13.6927 5.87585 13.8065 6.03294 13.8832 6.20859C13.9599 6.38424 13.9982 6.5834 13.9982 6.80605C13.9982 7.04108 13.9525 7.25137 13.8609 7.43691C13.7694 7.62246 13.637 7.77956 13.4639 7.9082C13.2907 8.03685 13.0841 8.13457 12.8441 8.20137C12.6042 8.26816 12.3357 8.30156 12.0389 8.30156C11.7717 8.30156 11.5082 8.26693 11.2484 8.19766C10.9887 8.12591 10.7524 8.01829 10.5396 7.8748C10.3294 7.73132 10.1611 7.54824 10.035 7.32559C9.90879 7.10293 9.8457 6.83945 9.8457 6.53516H10.9627C10.9627 6.70339 10.9887 6.84564 11.0406 6.96191C11.0926 7.07819 11.1656 7.1722 11.2596 7.24395C11.3561 7.31569 11.4699 7.36764 11.601 7.3998C11.7346 7.43197 11.8805 7.44805 12.0389 7.44805C12.2318 7.44805 12.3902 7.42083 12.5139 7.36641C12.64 7.31198 12.7328 7.23652 12.7922 7.14004C12.854 7.04355 12.885 6.9347 12.885 6.81348Z" fill="white"/>
</svg>
