<svg width="170" height="132" viewBox="0 0 170 132" fill="none" xmlns="http://www.w3.org/2000/svg">
<g clip-path="url(#clip0_9190_64804)">
<path d="M85.2558 109.518C120.945 109.518 149.862 106.754 149.862 103.347C149.862 99.9395 120.929 97.1758 85.2558 97.1758C49.5828 97.1758 20.65 99.9395 20.65 103.347C20.65 106.754 49.5828 109.518 85.2558 109.518Z" fill="#ADB5BC"/>
<path d="M116.416 63.1421C118.346 62.6141 119.493 60.6259 118.973 58.6871C118.454 56.7484 116.457 55.6099 114.518 56.1296C112.588 56.6576 111.441 58.6459 111.961 60.5846C112.489 62.5151 114.477 63.6619 116.416 63.1421Z" fill="#B097FF" stroke="#B097FF" stroke-width="1.65" stroke-miterlimit="10"/>
<path d="M119.667 52.6411L117.414 51.6263C116.672 51.2881 116.342 50.4218 116.68 49.6793L119.155 44.1683C120.533 41.4788 123.354 41.8748 125.046 42.1058C127.191 42.4028 129.327 41.9243 130.87 40.5796C132.19 39.4328 132.974 37.5601 133.271 35.6461C133.749 32.5523 132.033 28.9471 128.296 27.9406C124.031 26.7856 120.582 29.1698 119.592 30.4898C119.172 31.0426 118.446 31.2488 117.819 30.9683L116.647 29.6483C116.144 28.8728 115.5 28.2458 116.012 27.4786C118.058 24.4343 123.387 21.0436 129.69 22.7018C136.818 24.5828 139.607 31.0508 138.584 36.7598C138.031 39.8453 135.952 43.3351 133.708 45.2408C130.713 47.7818 126.514 47.7736 124.311 47.4683C124.113 47.4436 123.874 47.4106 123.651 47.3776L121.622 51.8903C121.284 52.6328 120.417 52.9628 119.675 52.6246L119.667 52.6411Z" fill="#B097FF" stroke="#B097FF" stroke-width="1.65" stroke-miterlimit="10"/>
<path d="M118.347 83.8403C118.347 83.8403 132.405 92.7915 132.553 87.1073C132.553 87.1073 134.913 86.769 134.022 84.9953C134.022 84.9953 135.474 85.3005 135.87 83.9063C136.01 83.403 136.084 82.8915 135.804 82.4543C135.597 82.1243 135.259 82.0418 134.772 81.8438C134.772 81.8438 136.29 83.3123 137.165 81.72C138.485 79.311 131.167 75.0045 131.167 75.0045C131.167 75.0045 134.896 72.975 132.537 70.8548C131.266 69.7163 125.491 71.985 125.491 71.985C119.568 72.5543 117.984 76.0605 115.187 79.4183C112.39 82.776 111.499 85.0613 111.499 85.0613" fill="#CBD3DD"/>
<path d="M119.477 97.4435C126.613 91.3633 128.601 85.7863 128.601 85.7863L123.618 78.0725L123.594 72.545C118.644 71.918 114.857 83.0638 108.653 83.8475C104.998 84.3095 103.719 84.4745 102.325 84.722C94.6195 86.075 92.854 88.3025 92.854 88.3025L104.759 102.27C104.759 102.27 112.852 101.923 119.477 97.4435Z" fill="#CBD3DD"/>
<path d="M135.185 82.1425C134.888 81.9115 130.342 78.6445 130.342 78.6445" stroke="#8C9EAE" stroke-width="0.61875" stroke-linecap="round" stroke-linejoin="round"/>
<path d="M134.021 84.988C133.724 84.757 128.725 81.6055 128.725 81.6055" stroke="#8C9EAE" stroke-width="0.61875" stroke-linecap="round" stroke-linejoin="round"/>
<path d="M132.091 87.1319C131.794 86.9009 126.53 84.1289 126.53 84.1289" stroke="#8C9EAE" stroke-width="0.61875" stroke-linecap="round" stroke-linejoin="round"/>
<path d="M126.662 88.2203C126.365 87.9893 123.948 87.6758 123.948 87.6758" stroke="#8C9EAE" stroke-width="0.61875" stroke-linecap="round" stroke-linejoin="round"/>
<path d="M106.516 109.221L103.662 45.3655C103.505 41.7933 100.477 39.0295 96.9131 39.1945L55.3578 41.0508C51.7856 41.2075 49.0218 44.2353 49.1868 47.7993L51.9176 108.808C58.0803 109.245 67.1388 109.691 79.0106 109.732C90.8823 109.782 100.089 109.625 106.524 109.212L106.516 109.221Z" fill="#CBD3DD"/>
<path d="M102.952 109.407L100.098 45.5193C100.024 43.9271 98.6788 42.7061 97.0948 42.7721L55.4983 44.6283C53.9061 44.7026 52.6851 46.0473 52.7511 47.6313L55.4983 109.036C61.4053 109.383 69.2593 109.688 79.0026 109.729C88.8366 109.77 96.8391 109.671 102.952 109.399V109.407Z" fill="#F9FAFB"/>
<path d="M97.4493 43.0381L55.8528 44.8944C54.2606 44.9686 53.0396 46.3134 53.1056 47.8974L55.8363 109.063C61.7021 109.401 69.4323 109.698 78.9941 109.739C89.0096 109.781 97.1276 109.673 103.282 109.393L100.436 45.7771C100.362 44.1849 99.0168 42.9639 97.4328 43.0299L97.4493 43.0381Z" fill="#F9FAFB"/>
<path d="M64.6146 42.52L87.8301 41.4805L87.9703 44.698C88.0446 46.282 86.8153 47.6267 85.2231 47.701L67.7496 48.4847C66.1656 48.559 64.8208 47.3297 64.7466 45.7375L64.6063 42.52H64.6146Z" fill="#CBD3DD"/>
<path d="M64.3667 75.4062L52.5362 94.9835" stroke="#B097FF" stroke-width="4.95" stroke-miterlimit="10"/>
<path d="M68.9538 76.6779C73.9616 76.6779 78.0206 72.5611 78.0206 67.4874C78.0206 62.4136 73.9616 58.2969 68.9538 58.2969C63.9461 58.2969 59.8871 62.4136 59.8871 67.4874C59.8871 72.5611 63.9461 76.6779 68.9538 76.6779Z" stroke="#B097FF" stroke-width="3.3" stroke-miterlimit="10"/>
<path d="M80.5202 71.0215C83.1602 69.1652 88.6465 71.0627 88.6465 71.0627L86.3365 73.7192L80.578 73.3232C80.578 73.3232 80.3965 71.863 80.5202 71.0215Z" fill="#F9FAFB"/>
<path d="M83.3497 72.0589C84.3892 72.0589 85.2307 71.2174 85.2307 70.1779C85.2307 69.1384 84.3892 68.2969 83.3497 68.2969C82.3102 68.2969 81.4688 69.1384 81.4688 70.1779C81.4688 71.2174 82.3102 72.0589 83.3497 72.0589Z" fill="#7F8A94" stroke="#7F8A94" stroke-width="1.65" stroke-miterlimit="10"/>
<path d="M82.2937 63.4023C82.2937 63.4023 82.4009 64.0541 82.8464 64.3923C83.2919 64.8543 84.381 64.7223 84.381 64.7223" stroke="#7F8A94" stroke-width="0.825" stroke-linecap="round" stroke-linejoin="round"/>
<path d="M71.9814 72.1526C73.0291 72.1526 73.8789 71.3111 73.8789 70.2716C73.8789 69.2321 73.0291 68.3906 71.9814 68.3906C70.9336 68.3906 70.0839 69.2321 70.0839 70.2716C70.0839 71.3111 70.9336 72.1526 71.9814 72.1526Z" fill="#7F8A94" stroke="#7F8A94" stroke-width="1.65" stroke-miterlimit="10"/>
<path d="M72.3196 62.287C72.3196 62.287 72.0639 61.6352 71.1646 61.5527C70.2654 61.4702 69.8446 62.287 69.8446 62.287" stroke="#7F8A94" stroke-width="0.825" stroke-linecap="round" stroke-linejoin="round"/>
<path d="M76.3536 76.4665L79.1009 76.1118C79.5959 76.0458 80.0166 76.5078 79.8929 76.9945C79.6454 77.9268 79.1091 78.7188 77.9954 78.8178C76.8816 78.9168 76.1556 78.2815 75.7844 77.4648C75.5864 77.0358 75.8751 76.5243 76.3454 76.4665H76.3536Z" fill="#7F8A94"/>
<path d="M48.8486 86.9064C52.0578 90.6684 54.9948 93.9767 58.9796 92.0214C58.9796 92.0214 61.7516 90.7179 61.2483 88.8534C61.2483 88.8534 62.2548 89.2907 62.9643 87.9789C63.1871 87.5664 63.4758 86.7744 63.0303 86.4527C63.0303 86.4527 64.0451 86.5352 64.6803 84.7614C65.0516 83.7219 64.6638 82.9464 63.2778 81.8409C58.9961 78.4172 56.9336 78.6564 54.6318 79.1184C52.3301 79.5804 48.8403 86.8982 48.8403 86.8982L48.8486 86.9064Z" fill="#CBD3DD"/>
<path d="M62.8655 86.1225L59.9037 83.8867" stroke="#8C9EAE" stroke-width="0.825" stroke-linecap="round" stroke-linejoin="round"/>
<path d="M60.8524 88.6302L57.9484 86.6914" stroke="#8C9EAE" stroke-width="0.825" stroke-linecap="round" stroke-linejoin="round"/>
<path d="M59.1279 90.8493L56.2899 88.9766" stroke="#8C9EAE" stroke-width="0.825" stroke-linecap="round" stroke-linejoin="round"/>
<path d="M52.396 102.822C41.5307 100.396 36.7457 96.8489 37.117 89.5724C37.8512 76.5127 55.5227 78.1957 55.5227 78.1957L52.8745 90.1087L50.6717 93.7799L51.3317 94.2749L52.396 102.822Z" fill="#CBD3DD"/>
<path d="M53.1305 91.8095C52.751 92.1973 50.0037 90.6875 50.0037 90.6875" stroke="#8C9EAE" stroke-width="0.61875" stroke-linecap="round" stroke-linejoin="round"/>
<path d="M59.0538 79.8433C59.0538 79.8433 62.1806 77.5086 59.3013 76.2298C57.0903 75.2481 52.7591 80.7921 52.7591 80.7921" fill="#CBD3DD"/>
<path d="M52.4125 108.457C52.4125 108.457 68.995 110.536 105.914 109.018" stroke="#CBD3DD" stroke-width="0.61875" stroke-miterlimit="10"/>
</g>
<defs>
<clipPath id="clip0_9190_64804">
<rect width="129.22" height="88.4317" fill="white" transform="translate(20.65 21.4492)"/>
</clipPath>
</defs>
</svg>
