<svg width="560" height="420" viewBox="0 0 560 420" fill="none" xmlns="http://www.w3.org/2000/svg">
<rect width="560" height="420" fill="#8B50EC"/>
<path fill-rule="evenodd" clip-rule="evenodd" d="M288.856 128.024C288.792 128.032 288.556 128.064 288.336 128.096C288.116 128.132 287.728 128.212 287.475 128.276C287.223 128.34 286.835 128.456 286.615 128.536C286.395 128.616 285.926 128.82 285.574 128.996C285.222 129.168 284.673 129.448 284.353 129.616L284.353 129.616L284.352 129.617C284.032 129.785 283.392 130.121 282.932 130.364C282.695 130.49 282.43 130.629 282.196 130.752C281.976 130.868 281.784 130.968 281.671 131.029C281.522 131.106 281.332 131.206 281.168 131.292C281.077 131.34 280.994 131.384 280.931 131.417C280.878 131.444 280.778 131.497 280.646 131.566C280.337 131.73 279.849 131.987 279.37 132.237C278.685 132.593 277.949 132.981 277.728 133.097C277.596 133.167 277.362 133.289 277.11 133.422C276.942 133.51 276.766 133.602 276.608 133.685C276.211 133.897 275.651 134.189 275.367 134.337C275.205 134.424 274.968 134.548 274.732 134.672C274.552 134.766 274.373 134.86 274.226 134.937C273.886 135.117 273.353 135.397 273.045 135.557C272.737 135.717 272.204 135.997 271.864 136.178C271.524 136.358 270.992 136.638 270.683 136.798C270.375 136.958 269.843 137.238 269.503 137.418C269.162 137.598 268.63 137.878 268.322 138.038C268.013 138.198 267.481 138.478 267.141 138.658C266.9 138.785 266.554 138.966 266.255 139.123C266.132 139.187 266.016 139.248 265.92 139.298C265.588 139.47 265.203 139.686 265.059 139.774C264.915 139.862 264.671 140.022 264.519 140.134C264.367 140.242 264.095 140.45 263.919 140.598C263.742 140.746 263.474 140.99 263.322 141.142C263.17 141.294 262.91 141.582 262.746 141.779C262.578 141.975 262.313 142.335 262.153 142.579C261.993 142.823 261.753 143.235 261.621 143.499C261.489 143.763 261.305 144.171 261.217 144.411C261.129 144.647 261.004 145.051 260.936 145.307C260.872 145.567 260.788 145.951 260.748 146.159C260.692 146.463 260.676 146.755 260.68 147.62C260.68 148.624 260.688 148.736 260.788 149.24C260.844 149.536 260.956 149.98 261.029 150.22C261.105 150.46 261.225 150.804 261.297 150.98C261.365 151.156 261.513 151.476 261.621 151.692C261.729 151.904 261.913 152.236 262.033 152.428C262.153 152.625 262.381 152.953 262.542 153.161C262.702 153.369 263.026 153.737 263.258 153.977C263.49 154.213 263.823 154.525 263.999 154.669C264.175 154.809 264.471 155.029 264.659 155.157C264.847 155.285 265.143 155.473 265.32 155.569C265.496 155.669 265.828 155.837 266.06 155.941C266.292 156.045 266.721 156.209 267.013 156.305C267.301 156.401 267.761 156.525 268.033 156.581C268.302 156.633 268.746 156.701 269.018 156.729L269.511 156.781C268.682 157.217 268.218 157.461 267.941 157.605C267.899 157.628 267.852 157.652 267.801 157.679C267.518 157.826 267.122 158.032 266.841 158.182C266.512 158.354 266.044 158.602 265.8 158.734C265.56 158.862 265.199 159.078 264.999 159.214C264.803 159.346 264.479 159.586 264.279 159.742C264.083 159.902 263.722 160.238 263.478 160.49C263.238 160.738 262.91 161.114 262.754 161.322C262.594 161.53 262.353 161.89 262.213 162.122C262.077 162.354 261.877 162.73 261.765 162.962C261.657 163.194 261.493 163.607 261.397 163.883C261.305 164.159 261.189 164.555 261.141 164.763C261.097 164.971 261.029 165.315 260.996 165.523C260.964 165.731 260.924 166.163 260.912 166.483C260.896 166.827 260.904 167.275 260.932 167.583C260.96 167.867 261.017 168.291 261.065 168.523C261.109 168.756 261.205 169.152 261.277 169.404C261.353 169.656 261.489 170.044 261.581 170.264C261.669 170.484 261.809 170.792 261.885 170.944C261.965 171.096 262.125 171.384 262.249 171.584C262.369 171.784 262.59 172.104 262.738 172.304C262.886 172.504 263.142 172.812 263.314 172.992C263.482 173.176 263.75 173.444 263.911 173.592C264.067 173.736 264.335 173.96 264.499 174.084C264.663 174.209 264.955 174.417 265.151 174.541C265.344 174.665 265.704 174.865 265.952 174.989C266.196 175.113 266.596 175.293 266.841 175.389C267.085 175.485 267.525 175.625 267.821 175.701C268.118 175.777 268.55 175.869 268.782 175.905C269.014 175.941 269.519 175.981 269.903 175.993C270.331 176.009 270.783 175.997 271.064 175.969C271.316 175.941 271.74 175.877 272.004 175.825C272.269 175.773 272.641 175.681 272.837 175.625C273.029 175.569 273.361 175.457 273.577 175.369C273.79 175.285 274.058 175.173 274.166 175.121C274.278 175.073 274.682 174.865 275.067 174.661C275.451 174.461 278.089 173.076 280.931 171.584C281.725 171.167 282.546 170.736 283.34 170.319C285.387 169.244 287.254 168.264 288.016 167.863C289.072 167.307 290.666 166.471 291.558 166.003C292.049 165.746 292.594 165.459 293.054 165.217C293.43 165.018 293.751 164.85 293.94 164.751C294.36 164.531 294.845 164.259 295.021 164.151C295.197 164.039 295.513 163.823 295.721 163.667C295.929 163.511 296.298 163.194 296.538 162.962C296.774 162.73 297.11 162.37 297.278 162.162C297.446 161.954 297.687 161.63 297.811 161.442C297.935 161.254 298.155 160.878 298.299 160.602C298.439 160.326 298.611 159.962 298.679 159.794C298.747 159.622 298.863 159.278 298.939 159.034C299.016 158.786 299.108 158.438 299.144 158.262C299.18 158.086 299.236 157.733 299.268 157.481C299.3 157.229 299.324 156.729 299.324 156.373C299.324 156.013 299.296 155.509 299.264 155.253C299.228 154.993 299.172 154.657 299.14 154.501C299.104 154.345 299.032 154.061 298.976 153.861C298.919 153.661 298.811 153.341 298.735 153.141C298.659 152.941 298.491 152.565 298.359 152.3C298.227 152.036 297.971 151.596 297.787 151.32C297.603 151.044 297.31 150.66 297.134 150.46C296.958 150.26 296.674 149.96 296.498 149.792C296.326 149.624 296.057 149.384 295.901 149.26C295.745 149.136 295.441 148.916 295.221 148.768C295.001 148.62 294.568 148.372 294.26 148.216C293.952 148.064 293.492 147.86 293.239 147.772C292.987 147.684 292.591 147.56 292.359 147.504C292.127 147.448 291.786 147.372 291.598 147.34C291.41 147.308 291.082 147.268 290.87 147.248C290.654 147.232 290.493 147.208 290.509 147.196C290.525 147.18 291.41 146.711 292.479 146.151C293.548 145.591 294.572 145.035 294.761 144.919C294.949 144.803 295.165 144.659 295.241 144.603C295.317 144.547 295.561 144.355 295.781 144.175C296.001 143.995 296.318 143.707 296.482 143.535C296.646 143.359 296.89 143.083 297.026 142.919C297.162 142.755 297.39 142.439 297.538 142.219C297.687 141.999 297.923 141.595 298.059 141.318C298.199 141.042 298.379 140.646 298.463 140.438C298.543 140.23 298.671 139.842 298.743 139.578C298.815 139.314 298.915 138.854 298.964 138.558C299.036 138.126 299.056 137.854 299.056 137.198C299.06 136.606 299.04 136.242 298.988 135.897C298.951 135.633 298.859 135.185 298.783 134.897C298.711 134.613 298.567 134.161 298.463 133.897C298.359 133.633 298.179 133.229 298.059 132.997C297.943 132.765 297.723 132.389 297.567 132.157C297.414 131.925 297.166 131.585 297.014 131.397C296.866 131.209 296.57 130.889 296.362 130.68C296.153 130.472 295.837 130.188 295.661 130.048C295.485 129.908 295.169 129.68 294.961 129.54C294.753 129.4 294.392 129.188 294.16 129.064C293.928 128.944 293.624 128.792 293.48 128.732C293.335 128.672 293.019 128.556 292.779 128.476C292.539 128.392 292.131 128.28 291.878 128.224C291.626 128.164 291.206 128.092 290.95 128.056C290.65 128.02 290.205 128 289.729 128C289.313 128.004 288.92 128.016 288.856 128.024ZM274.755 151.996C274.751 156.885 274.759 159.362 274.787 159.362C274.811 159.362 277.481 157.733 280.723 155.741C283.961 153.753 286.647 152.1 286.687 152.072C286.751 152.024 286.099 151.612 280.803 148.344C277.529 146.323 274.827 144.659 274.803 144.651C274.771 144.635 274.759 146.683 274.755 151.996Z" fill="white"/>
<path d="M244.111 188.76C244.731 188.76 245.283 188.94 245.766 189.3C246.249 189.655 246.627 190.163 246.9 190.824C247.178 191.48 247.32 192.246 247.324 193.121C247.32 194.005 247.178 194.778 246.9 195.438C246.627 196.099 246.249 196.607 245.766 196.963C245.283 197.318 244.731 197.496 244.111 197.496C243.487 197.496 242.931 197.318 242.443 196.963C241.956 196.603 241.575 196.092 241.302 195.432C241.028 194.771 240.894 194.001 240.898 193.121C240.894 192.251 241.028 191.485 241.302 190.824C241.575 190.163 241.956 189.655 242.443 189.3C242.931 188.94 243.487 188.76 244.111 188.76ZM244.111 190.127C243.765 190.127 243.46 190.248 243.195 190.489C242.931 190.726 242.726 191.07 242.58 191.521C242.434 191.968 242.361 192.501 242.361 193.121C242.361 193.745 242.434 194.283 242.58 194.734C242.726 195.186 242.931 195.532 243.195 195.773C243.46 196.01 243.765 196.129 244.111 196.129C244.462 196.129 244.77 196.01 245.034 195.773C245.299 195.532 245.501 195.186 245.643 194.734C245.788 194.283 245.861 193.745 245.861 193.121C245.861 192.501 245.788 191.966 245.643 191.515C245.501 191.063 245.299 190.719 245.034 190.482C244.77 190.245 244.462 190.127 244.111 190.127ZM250.469 192.602H252.369V193.887H250.469V200.217H248.951V187.857H250.469V192.602ZM256.293 196.648H261.666V195.514H263.17V200.066H254.789V195.514H256.293V196.648ZM261.666 198.85V197.811H256.293V198.85H261.666ZM263.17 194.98H261.652V187.871H263.17V194.98ZM252.902 193.135C254.57 193.135 256.031 193.117 257.284 193.08C258.537 193.039 259.747 192.943 260.914 192.793L261.01 193.873C260.112 194.023 259.091 194.142 257.947 194.229V195.814H256.43V194.304C255.632 194.336 254.52 194.352 253.094 194.352L252.902 193.135ZM257.852 188.705C257.852 189.083 257.963 189.441 258.187 189.778C258.414 190.111 258.745 190.403 259.178 190.653C259.615 190.904 260.139 191.089 260.75 191.207L260.094 192.355C259.392 192.205 258.786 191.966 258.275 191.638C257.77 191.31 257.375 190.909 257.093 190.435C256.819 190.95 256.425 191.389 255.91 191.754C255.395 192.118 254.775 192.383 254.051 192.547L253.381 191.385C254.001 191.253 254.529 191.054 254.967 190.79C255.404 190.521 255.735 190.209 255.958 189.854C256.181 189.493 256.293 189.111 256.293 188.705V188.172H257.852V188.705ZM275.652 200.217H274.203V187.857H275.652V200.217ZM273.027 199.629H271.592V193.941H269.384C268.641 195.413 267.431 196.635 265.754 197.605L264.893 196.525C266.15 195.787 267.096 194.933 267.729 193.962C268.363 192.987 268.739 191.863 268.857 190.592H265.521V189.361H270.361C270.361 190.605 270.202 191.727 269.883 192.725H271.592V188.158H273.027V199.629ZM287.123 194.68H283.459V197.51H288.381V198.754H277.088V197.51H281.955V194.68H278.455V188.773H287.027V189.99H279.973V193.477H287.123V194.68ZM299.414 189.512V189.676C299.405 190.305 299.382 190.879 299.346 191.398C299.309 191.918 299.232 192.501 299.113 193.148L297.609 193.012C297.719 192.438 297.794 191.918 297.835 191.453C297.876 190.984 297.903 190.51 297.917 190.031H293.111V188.773H299.414V189.512ZM296.297 194.058C297.76 193.994 299.022 193.887 300.084 193.736L300.166 194.83C299.027 195.035 297.837 195.172 296.598 195.24C295.363 195.304 294 195.34 292.51 195.35L292.373 194.133H292.619C292.975 194.128 293.335 194.124 293.699 194.119C294.064 194.115 294.428 194.11 294.793 194.105V191.59H296.297V194.058ZM302.367 191.713H303.967V192.984H302.367V197.113H300.809V187.857H302.367V191.713ZM302.764 199.971H294.219V196.293H295.75V198.74H302.764V199.971ZM310.516 192.561H306.619V194.188C307.562 194.178 308.367 194.151 309.032 194.105C309.702 194.055 310.379 193.973 311.062 193.859L311.227 195.104C310.484 195.231 309.745 195.313 309.012 195.35C308.283 195.386 307.285 195.404 306.018 195.404H305.088V191.412H308.984V189.936H305.074V188.719H310.516V192.561ZM314.959 196.977H313.441V193.818H311.281V192.588H313.441V191.029H311.281V189.812H313.441V187.871H314.959V196.977ZM315.287 199.943H306.756V196.293H308.273V198.699H315.287V199.943ZM220.158 217.02H217.41V221.217H215.865V217.02H213.131V221.217H211.572V217.02H208.865V215.789H220.158V217.02ZM214.484 209.295C215.355 209.299 216.127 209.416 216.802 209.644C217.476 209.871 218 210.193 218.374 210.607C218.752 211.022 218.941 211.505 218.941 212.057C218.941 212.599 218.752 213.075 218.374 213.485C218 213.896 217.476 214.212 216.802 214.436C216.127 214.654 215.355 214.764 214.484 214.764C213.609 214.764 212.835 214.654 212.16 214.436C211.49 214.212 210.971 213.896 210.602 213.485C210.232 213.075 210.05 212.599 210.055 212.057C210.05 211.505 210.232 211.022 210.602 210.607C210.971 210.193 211.49 209.871 212.16 209.644C212.835 209.416 213.609 209.299 214.484 209.295ZM214.484 210.525C213.901 210.525 213.393 210.587 212.96 210.71C212.527 210.828 212.192 211.004 211.955 211.236C211.723 211.464 211.609 211.738 211.613 212.057C211.609 212.367 211.723 212.635 211.955 212.863C212.192 213.087 212.527 213.26 212.96 213.383C213.393 213.501 213.901 213.561 214.484 213.561C215.068 213.561 215.576 213.501 216.009 213.383C216.442 213.26 216.777 213.087 217.014 212.863C217.251 212.635 217.369 212.367 217.369 212.057C217.369 211.738 217.251 211.464 217.014 211.236C216.777 211.004 216.442 210.828 216.009 210.71C215.576 210.587 215.068 210.525 214.484 210.525ZM232.258 217.457H229.537V221.217H228.006V217.457H225.23V221.217H223.713V217.457H220.965V216.213H232.258V217.457ZM231.041 215.201H222.414V209.391H230.904V210.594H223.918V211.674H230.631V212.85H223.918V213.998H231.041V215.201ZM244.371 219.672H233.078V218.414H244.371V219.672ZM235.84 211.811H241.568V209.691H243.086V216.213H234.322V209.691H235.84V211.811ZM241.568 215.023V213H235.84V215.023H241.568ZM252.902 218.482H255.363V215.885H256.881V218.482H259.793V219.713H248.5V218.482H251.398V215.885H252.902V218.482ZM254.885 210.512C254.885 211.104 255.076 211.681 255.459 212.241C255.846 212.797 256.38 213.276 257.059 213.677C257.742 214.073 258.508 214.335 259.355 214.463L258.74 215.721C257.678 215.534 256.737 215.167 255.917 214.62C255.101 214.073 254.488 213.406 254.078 212.617C253.805 213.137 253.436 213.608 252.971 214.032C252.51 214.456 251.977 214.814 251.371 215.105C250.77 215.393 250.122 215.598 249.43 215.721L248.814 214.463C249.658 214.331 250.416 214.064 251.091 213.663C251.77 213.262 252.301 212.784 252.684 212.228C253.071 211.667 253.267 211.095 253.271 210.512V209.596H254.885V210.512ZM271.893 219.727H260.6V218.482H271.893V219.727ZM270.881 211.906H267.019C267.05 212.467 267.244 212.995 267.6 213.492C267.96 213.989 268.463 214.415 269.11 214.771C269.762 215.121 270.521 215.361 271.387 215.488L270.799 216.705C269.742 216.527 268.819 216.197 268.03 215.714C267.242 215.226 266.643 214.625 266.232 213.909C265.818 214.625 265.216 215.226 264.428 215.714C263.644 216.197 262.723 216.527 261.666 216.705L261.092 215.488C261.953 215.361 262.707 215.121 263.354 214.771C264.002 214.415 264.505 213.989 264.865 213.492C265.225 212.995 265.424 212.467 265.46 211.906H261.598V210.676H265.48V209.09H266.984V210.676H270.881V211.906ZM282.379 213.684H284.211V214.955H282.379V221.189H280.861V208.857H282.379V213.684ZM279.111 210.143C279.111 214.199 277.238 217.147 273.492 218.988L272.631 217.812C274.135 217.065 275.295 216.16 276.11 215.099C276.931 214.037 277.418 212.804 277.573 211.4H273.301V210.143H279.111ZM291.443 209.76C292.063 209.76 292.615 209.94 293.098 210.3C293.581 210.655 293.959 211.163 294.232 211.824C294.51 212.48 294.652 213.246 294.656 214.121C294.652 215.005 294.51 215.778 294.232 216.438C293.959 217.099 293.581 217.607 293.098 217.963C292.615 218.318 292.063 218.496 291.443 218.496C290.819 218.496 290.263 218.318 289.775 217.963C289.288 217.603 288.907 217.092 288.634 216.432C288.36 215.771 288.226 215.001 288.23 214.121C288.226 213.251 288.36 212.485 288.634 211.824C288.907 211.163 289.288 210.655 289.775 210.3C290.263 209.94 290.819 209.76 291.443 209.76ZM291.443 211.127C291.097 211.127 290.792 211.248 290.527 211.489C290.263 211.726 290.058 212.07 289.912 212.521C289.766 212.968 289.693 213.501 289.693 214.121C289.693 214.745 289.766 215.283 289.912 215.734C290.058 216.186 290.263 216.532 290.527 216.773C290.792 217.01 291.097 217.129 291.443 217.129C291.794 217.129 292.102 217.01 292.366 216.773C292.631 216.532 292.833 216.186 292.975 215.734C293.12 215.283 293.193 214.745 293.193 214.121C293.193 213.501 293.12 212.966 292.975 212.515C292.833 212.063 292.631 211.719 292.366 211.482C292.102 211.245 291.794 211.127 291.443 211.127ZM297.801 213.602H299.701V214.887H297.801V221.217H296.283V208.857H297.801V213.602ZM304.91 211.004C304.91 211.523 305.026 212.025 305.259 212.508C305.496 212.991 305.84 213.422 306.291 213.8C306.747 214.178 307.294 214.467 307.932 214.668L307.152 215.844C306.464 215.625 305.867 215.295 305.361 214.853C304.855 214.41 304.459 213.889 304.172 213.287C303.885 213.939 303.479 214.506 302.955 214.989C302.436 215.472 301.816 215.835 301.096 216.076L300.316 214.9C300.959 214.682 301.508 214.372 301.964 213.971C302.424 213.565 302.773 213.107 303.01 212.597C303.251 212.082 303.374 211.551 303.379 211.004V210.854H300.713V209.637H307.508V210.854H304.91V211.004ZM310.516 216.309H308.984V208.857H310.516V216.309ZM310.516 221.217H308.984V218.113H302.08V216.883H310.516V221.217ZM318.445 217.416H320.072V216.09H321.48V220.014C321.945 219.818 322.337 219.558 322.656 219.234C322.975 218.911 323.212 218.555 323.367 218.168C323.522 217.781 323.6 217.384 323.6 216.979V215.994H325.117V216.979C325.117 217.662 325.299 218.28 325.664 218.831C326.029 219.382 326.576 219.781 327.305 220.027L326.525 221.162C325.997 220.975 325.55 220.704 325.186 220.349C324.826 219.993 324.545 219.572 324.345 219.084C324.131 219.553 323.843 219.966 323.483 220.321C323.128 220.681 322.702 220.962 322.205 221.162L321.48 220.089V221.066H317.023V216.09H318.445V217.416ZM320.072 219.904V218.551H318.445V219.904H320.072ZM319.074 209.363C319.598 209.363 320.081 209.457 320.523 209.644C320.97 209.826 321.341 210.086 321.638 210.423C321.934 210.76 322.134 211.15 322.239 211.592H324.475V208.857H325.992V215.406H324.475V212.85H322.246C322.146 213.301 321.945 213.7 321.645 214.046C321.348 214.392 320.977 214.661 320.53 214.853C320.088 215.039 319.603 215.133 319.074 215.133C318.445 215.133 317.882 215.01 317.386 214.764C316.894 214.518 316.506 214.176 316.224 213.738C315.946 213.296 315.807 212.795 315.807 212.234C315.807 211.678 315.946 211.184 316.224 210.751C316.506 210.313 316.894 209.974 317.386 209.732C317.882 209.486 318.445 209.363 319.074 209.363ZM319.074 210.621C318.719 210.621 318.404 210.687 318.131 210.819C317.857 210.951 317.643 211.141 317.488 211.387C317.333 211.628 317.256 211.911 317.256 212.234C317.256 212.562 317.333 212.852 317.488 213.103C317.643 213.353 317.857 213.547 318.131 213.684C318.409 213.82 318.723 213.889 319.074 213.889C319.416 213.889 319.721 213.82 319.99 213.684C320.264 213.547 320.476 213.353 320.626 213.103C320.781 212.852 320.861 212.562 320.865 212.234C320.861 211.911 320.781 211.628 320.626 211.387C320.476 211.141 320.266 210.951 319.997 210.819C319.728 210.687 319.421 210.621 319.074 210.621ZM331.119 209.76C331.675 209.76 332.176 209.908 332.623 210.204C333.07 210.5 333.434 210.924 333.717 211.476C333.999 212.022 334.175 212.667 334.243 213.41H336.602V208.857H338.105V221.23H336.602V214.641H334.264C334.209 215.424 334.043 216.108 333.765 216.691C333.487 217.27 333.12 217.717 332.664 218.031C332.208 218.341 331.693 218.496 331.119 218.496C330.499 218.496 329.95 218.318 329.472 217.963C328.993 217.607 328.619 217.099 328.351 216.438C328.082 215.778 327.947 215.005 327.947 214.121C327.947 213.246 328.082 212.48 328.351 211.824C328.619 211.163 328.993 210.655 329.472 210.3C329.955 209.94 330.504 209.76 331.119 209.76ZM331.119 211.127C330.777 211.127 330.477 211.248 330.217 211.489C329.957 211.726 329.757 212.07 329.615 212.521C329.474 212.968 329.406 213.501 329.41 214.121C329.406 214.745 329.474 215.283 329.615 215.734C329.757 216.186 329.957 216.532 330.217 216.773C330.477 217.01 330.777 217.129 331.119 217.129C331.461 217.129 331.759 217.01 332.015 216.773C332.274 216.532 332.475 216.186 332.616 215.734C332.762 215.283 332.837 214.745 332.842 214.121C332.837 213.501 332.762 212.966 332.616 212.515C332.475 212.063 332.274 211.719 332.015 211.482C331.759 211.245 331.461 211.127 331.119 211.127ZM351.135 219.713H339.842V218.469H342.453V215.345C341.952 215.053 341.562 214.691 341.284 214.258C341.011 213.825 340.876 213.337 340.881 212.795C340.876 212.152 341.07 211.583 341.462 211.086C341.854 210.589 342.398 210.206 343.096 209.938C343.793 209.664 344.581 209.527 345.461 209.527C346.345 209.527 347.136 209.664 347.833 209.938C348.535 210.206 349.082 210.589 349.474 211.086C349.87 211.578 350.068 212.148 350.068 212.795C350.068 213.324 349.934 213.804 349.665 214.237C349.401 214.666 349.025 215.023 348.537 215.311V218.469H351.135V219.713ZM345.461 210.73C344.846 210.73 344.303 210.815 343.834 210.983C343.369 211.147 343.007 211.384 342.747 211.694C342.492 212.004 342.367 212.371 342.371 212.795C342.367 213.214 342.492 213.579 342.747 213.889C343.007 214.199 343.371 214.438 343.841 214.606C344.31 214.775 344.85 214.859 345.461 214.859C346.072 214.859 346.612 214.775 347.081 214.606C347.555 214.438 347.922 214.199 348.182 213.889C348.446 213.579 348.578 213.214 348.578 212.795C348.578 212.376 348.446 212.011 348.182 211.701C347.922 211.387 347.557 211.147 347.088 210.983C346.618 210.815 346.076 210.73 345.461 210.73ZM346.992 218.469V215.892C346.509 215.996 345.999 216.049 345.461 216.049C344.946 216.049 344.445 215.999 343.957 215.898V218.469H346.992Z" fill="white"/>
</svg>
