<svg width="448" height="313" viewBox="0 0 448 313" fill="none" xmlns="http://www.w3.org/2000/svg">
<path opacity="0.2" d="M266.145 222.64C205.607 261.459 146.021 289.107 98.634 302.436C74.9363 309.103 54.3293 312.177 38.1981 311.299C22.0467 310.42 10.5431 305.594 4.79454 296.64C-0.953963 287.687 -0.550077 275.226 5.3813 260.187C11.3053 245.167 22.6888 227.727 38.6277 208.976C70.4998 171.482 120.479 128.871 181.016 90.0522C241.554 51.2332 301.14 23.5858 348.527 10.256C372.225 3.58992 392.832 0.515962 408.963 1.39353C425.114 2.27218 436.618 7.0984 442.367 16.052C448.115 25.0055 447.711 37.4669 441.78 52.5057C435.856 67.5259 424.472 84.9655 408.533 103.716C376.661 141.21 326.682 183.821 266.145 222.64Z" stroke="white" stroke-width="1.4"/>
</svg>
